<?xml version="1.0" encoding="utf-8"?>
<!-- Generator: Adobe Illustrator 16.0.3, SVG Export Plug-In . SVG Version: 6.00 Build 0)  -->
<!DOCTYPE svg PUBLIC "-//W3C//DTD SVG 1.1//EN" "http://www.w3.org/Graphics/SVG/1.1/DTD/svg11.dtd">
<svg version="1.1" id="Layer_1" xmlns="http://www.w3.org/2000/svg" xmlns:xlink="http://www.w3.org/1999/xlink" x="0px" y="0px"
	 viewBox="0 0 798 266" enable-background="new 0 0 798 266" xml:space="preserve">
<g>
	<g>
		<path fill="#FFFFFF" d="M110.089,65.827v20.028H66.811v28.512h40.732v20.027H66.811v52.615H42.37V65.827H110.089z"/>
		<path fill="#FFFFFF" d="M139.79,64.472v20.025h-23.423V64.472H139.79z M139.79,95.698v91.311h-23.423V95.698H139.79z"/>
		<path fill="#FFFFFF" d="M174.583,152.216c0,2.712,0.195,5.348,0.593,7.893c0.395,2.548,1.044,4.812,1.954,6.786
			c0.903,1.982,2.09,3.567,3.563,4.753c1.467,1.187,3.28,1.781,5.429,1.781c3.961,0,6.845-1.409,8.658-4.24
			c1.807-2.829,3.054-7.125,3.733-12.901h21.046c-0.455,10.638-3.284,18.725-8.486,24.267c-5.207,5.551-13.408,8.321-24.609,8.321
			c-8.487,0-15.106-1.417-19.859-4.246c-4.75-2.826-8.261-6.557-10.52-11.2c-2.266-4.638-3.651-9.844-4.158-15.612
			c-0.51-5.768-0.765-11.544-0.765-17.313c0-6.11,0.423-11.99,1.272-17.653c0.848-5.655,2.546-10.689,5.091-15.102
			c2.547-4.416,6.196-7.919,10.949-10.524c4.75-2.604,11.086-3.903,19.009-3.903c6.789,0,12.36,1.101,16.716,3.31
			c4.355,2.207,7.78,5.32,10.27,9.333c2.486,4.018,4.184,8.885,5.091,14.597c0.905,5.713,1.356,12.079,1.356,19.09v5.262h-46.332
			V152.216z M197.834,121.751c-0.339-2.658-0.933-4.922-1.781-6.787c-0.847-1.872-2.038-3.282-3.565-4.245
			c-1.526-0.961-3.478-1.446-5.854-1.446c-2.376,0-4.33,0.541-5.854,1.616c-1.528,1.078-2.746,2.49-3.649,4.243
			c-0.91,1.754-1.559,3.706-1.954,5.854c-0.398,2.15-0.593,4.303-0.593,6.452V131h23.93
			C198.4,127.493,198.176,124.411,197.834,121.751z"/>
		<path fill="#FFFFFF" d="M253.163,65.827v121.182H229.74V65.827H253.163z"/>
		<path fill="#FFFFFF" d="M311.884,177.334c-2.605,4.301-5.515,7.295-8.74,8.996c-3.226,1.694-7.214,2.545-11.964,2.545
			c-9.619,0-16.695-3.676-21.216-11.034c-4.527-7.352-6.789-19.517-6.789-36.486c0-16.973,2.262-29.22,6.789-36.747
			c4.521-7.522,11.597-11.286,21.216-11.286c4.412,0,8.17,0.906,11.285,2.717c3.112,1.809,5.912,4.523,8.402,8.144h0.338V65.827
			h23.423v121.182h-22.406v-9.675H311.884z M288.886,163.842c1.528,5.035,4.84,7.553,9.931,7.553c5.2,0,8.568-2.518,10.097-7.553
			c1.528-5.034,2.291-12.531,2.291-22.487s-0.763-17.456-2.291-22.489c-1.528-5.033-4.896-7.552-10.097-7.552
			c-5.091,0-8.403,2.519-9.931,7.552c-1.525,5.034-2.291,12.533-2.291,22.489S287.361,158.808,288.886,163.842z"/>
		<path fill="#FFFFFF" d="M369.421,65.827v38.355h0.338c2.49-3.62,5.286-6.334,8.402-8.144c3.109-1.811,6.871-2.717,11.283-2.717
			c9.616,0,16.69,3.763,21.218,11.286c4.523,7.527,6.787,19.773,6.787,36.747c0,16.97-2.264,29.135-6.787,36.486
			c-4.527,7.358-11.602,11.034-21.218,11.034c-4.75,0-8.736-0.851-11.962-2.545c-3.226-1.701-6.139-4.695-8.742-8.996h-0.337v9.675
			h-22.404V65.827H369.421z M371.71,163.842c1.528,5.035,4.894,7.553,10.098,7.553c5.091,0,8.403-2.518,9.931-7.553
			c1.524-5.034,2.291-12.531,2.291-22.487s-0.767-17.456-2.291-22.489c-1.528-5.033-4.84-7.552-9.931-7.552
			c-5.204,0-8.57,2.519-10.098,7.552c-1.528,5.034-2.289,12.533-2.289,22.489S370.182,158.808,371.71,163.842z"/>
		<path fill="#FFFFFF" d="M425.431,120.648c1.241-5.996,3.278-11.001,6.107-15.02c2.83-4.018,6.533-7.07,11.12-9.166
			c4.581-2.092,10.21-3.14,16.883-3.14c7.018-0.11,12.841,0.824,17.484,2.799c4.637,1.982,8.313,5.009,11.029,9.082
			c2.716,4.07,4.637,9.11,5.769,15.104c1.132,5.998,1.697,13.013,1.697,21.047c0,7.806-0.62,14.709-1.865,20.709
			c-1.245,5.994-3.282,11.001-6.108,15.017c-2.832,4.017-6.532,6.986-11.123,8.911c-4.577,1.924-10.21,2.884-16.883,2.884
			c-7.018,0.109-12.841-0.765-17.484-2.631c-4.637-1.869-8.313-4.808-11.03-8.828c-2.716-4.012-4.64-9.047-5.769-15.104
			c-1.131-6.05-1.696-13.035-1.696-20.958C423.562,133.545,424.182,126.645,425.431,120.648z M447.326,154.249
			c0.222,3.966,0.756,7.361,1.607,10.187c0.85,2.83,2.123,5.034,3.816,6.619c1.701,1.585,3.962,2.374,6.791,2.374
			c4.754,0,8.032-2.483,9.843-7.467c1.811-4.977,2.717-13.18,2.717-24.607c0-11.43-0.906-19.629-2.717-24.611
			c-1.811-4.977-5.089-7.47-9.843-7.47c-2.829,0-5.09,0.796-6.791,2.376c-1.693,1.588-2.967,3.794-3.816,6.622
			c-0.852,2.832-1.386,6.225-1.607,10.182c-0.231,3.961-0.345,8.26-0.345,12.901C446.981,145.991,447.095,150.292,447.326,154.249z"
			/>
		<path fill="#FFFFFF" d="M502.651,120.648c1.241-5.996,3.278-11.001,6.107-15.02c2.829-4.018,6.537-7.07,11.119-9.166
			c4.582-2.092,10.21-3.14,16.884-3.14c7.017-0.11,12.845,0.824,17.485,2.799c4.636,1.982,8.312,5.009,11.029,9.082
			c2.716,4.07,4.641,9.11,5.768,15.104c1.132,5.998,1.702,13.013,1.702,21.047c0,7.806-0.625,14.709-1.87,20.709
			c-1.245,5.994-3.282,11.001-6.107,15.017c-2.834,4.017-6.534,6.986-11.119,8.911c-4.578,1.924-10.21,2.884-16.888,2.884
			c-7.018,0.109-12.841-0.765-17.481-2.631c-4.64-1.869-8.312-4.808-11.032-8.828c-2.713-4.012-4.637-9.047-5.769-15.104
			c-1.132-6.05-1.694-13.035-1.694-20.958C500.785,133.545,501.402,126.645,502.651,120.648z M524.546,154.249
			c0.227,3.966,0.762,7.361,1.608,10.187c0.851,2.83,2.123,5.034,3.82,6.619s3.958,2.374,6.787,2.374
			c4.753,0,8.031-2.483,9.848-7.467c1.807-4.977,2.716-13.18,2.716-24.607c0-11.43-0.909-19.629-2.716-24.611
			c-1.816-4.977-5.095-7.47-9.848-7.47c-2.829,0-5.09,0.796-6.787,2.376c-1.697,1.588-2.97,3.794-3.82,6.622
			c-0.847,2.832-1.382,6.225-1.608,10.182c-0.23,3.961-0.344,8.26-0.344,12.901C524.202,145.991,524.315,150.292,524.546,154.249z"
			/>
		<path fill="#FFFFFF" d="M604.479,129.814h0.339l23.589-34.117h25.797l-26.305,35.982l30.208,55.329h-25.793l-19.519-37.51
			l-8.316,10.862v26.647h-23.421V65.827h23.421V129.814z"/>
	</g>
	<g>
		<path fill="#FFFFFF" d="M40.077,205.485c0.507-1.589,1.267-2.997,2.28-4.223c1.012-1.222,2.271-2.202,3.78-2.928
			c1.506-0.733,3.261-1.1,5.263-1.1c2.002,0,3.756,0.366,5.263,1.1c1.506,0.726,2.769,1.706,3.782,2.928
			c1.012,1.226,1.772,2.634,2.277,4.223c0.505,1.593,0.759,3.247,0.759,4.965s-0.254,3.372-0.759,4.964
			c-0.505,1.593-1.265,2.997-2.277,4.224c-1.013,1.225-2.276,2.192-3.782,2.911c-1.507,0.718-3.261,1.076-5.263,1.076
			c-2.002,0-3.756-0.358-5.263-1.076c-1.508-0.719-2.768-1.687-3.78-2.911c-1.013-1.227-1.772-2.631-2.28-4.224
			c-0.507-1.592-0.759-3.246-0.759-4.964S39.569,207.078,40.077,205.485z M43.168,214.212c0.33,1.237,0.849,2.35,1.555,3.341
			c0.705,0.987,1.612,1.779,2.718,2.381c1.108,0.601,2.428,0.901,3.958,0.901c1.53,0,2.849-0.301,3.958-0.901
			c1.104-0.602,2.012-1.394,2.72-2.381c0.706-0.991,1.223-2.104,1.554-3.341c0.33-1.233,0.494-2.49,0.494-3.762
			c0-1.273-0.164-2.525-0.494-3.763c-0.331-1.233-0.848-2.35-1.554-3.337c-0.708-0.987-1.616-1.784-2.72-2.385
			c-1.108-0.602-2.427-0.901-3.958-0.901c-1.529,0-2.849,0.3-3.958,0.901c-1.106,0.601-2.014,1.397-2.718,2.385
			c-0.707,0.987-1.225,2.104-1.555,3.337c-0.33,1.237-0.494,2.489-0.494,3.763C42.674,211.722,42.838,212.979,43.168,214.212z"/>
		<path fill="#FFFFFF" d="M67.084,201.512v-3.672h3.001v3.672H67.084z M70.086,204.799v18.266h-3.001v-18.266H70.086z"/>
		<path fill="#FFFFFF" d="M77.751,197.84v25.225h-3.002V197.84H77.751z"/>
		<path fill="#FFFFFF" d="M80.401,207.444v-2.646h3.073v-2.725c0-1.483,0.429-2.606,1.29-3.372c0.86-0.765,2.113-1.147,3.762-1.147
			c0.283,0,0.607,0.023,0.972,0.071c0.364,0.046,0.688,0.116,0.969,0.214v2.61c-0.257-0.094-0.541-0.155-0.847-0.19
			s-0.589-0.055-0.847-0.055c-0.73,0-1.296,0.145-1.696,0.425c-0.402,0.281-0.601,0.824-0.601,1.624v2.545h3.532v2.646h-3.532v15.62
			h-3.003v-15.62H80.401z"/>
		<path fill="#FFFFFF" d="M92.694,201.512v-3.672h3.001v3.672H92.694z M95.696,204.799v18.266h-3.001v-18.266H95.696z"/>
		<path fill="#FFFFFF" d="M113.112,221.896c-1.366,1.034-3.085,1.554-5.157,1.554c-1.46,0-2.726-0.238-3.797-0.707
			c-1.072-0.468-1.973-1.131-2.703-1.975c-0.729-0.851-1.278-1.865-1.643-3.041c-0.365-1.178-0.57-2.462-0.619-3.851
			c0-1.39,0.212-2.662,0.638-3.817c0.423-1.151,1.017-2.154,1.781-3.001c0.767-0.847,1.672-1.507,2.722-1.979
			c1.048-0.468,2.196-0.702,3.444-0.702c1.624,0,2.972,0.331,4.043,1.003c1.073,0.672,1.932,1.526,2.58,2.564
			c0.648,1.034,1.095,2.162,1.343,3.388c0.248,1.226,0.347,2.392,0.301,3.497h-13.672c-0.023,0.803,0.07,1.561,0.283,2.279
			c0.211,0.718,0.553,1.357,1.024,1.912c0.471,0.551,1.071,0.991,1.802,1.319c0.729,0.332,1.588,0.495,2.577,0.495
			c1.273,0,2.314-0.293,3.126-0.882c0.813-0.589,1.351-1.487,1.607-2.685h2.969C115.362,219.317,114.478,220.862,113.112,221.896z
			 M112.388,210.169c-0.269-0.637-0.637-1.188-1.095-1.646c-0.46-0.457-1.001-0.82-1.625-1.094
			c-0.625-0.269-1.312-0.405-2.066-0.405c-0.777,0-1.478,0.137-2.102,0.405c-0.625,0.273-1.159,0.645-1.608,1.116
			c-0.447,0.469-0.8,1.015-1.058,1.639c-0.262,0.625-0.414,1.289-0.46,1.999h10.493C112.818,211.473,112.66,210.801,112.388,210.169
			z"/>
		<path fill="#FFFFFF" d="M122.155,197.84v25.225h-3.001V197.84H122.155z"/>
		<path fill="#FFFFFF" d="M139.959,223.064v-2.476h-0.07c-0.496,1.015-1.272,1.74-2.334,2.189c-1.058,0.449-2.224,0.672-3.497,0.672
			c-1.411,0-2.643-0.262-3.69-0.776c-1.049-0.52-1.922-1.211-2.614-2.085c-0.695-0.874-1.22-1.885-1.574-3.036
			c-0.353-1.155-0.528-2.381-0.528-3.676c0-1.296,0.169-2.521,0.511-3.673s0.86-2.163,1.555-3.025
			c0.695-0.858,1.565-1.537,2.613-2.044c1.05-0.508,2.268-0.758,3.657-0.758c0.472,0,0.978,0.043,1.52,0.141
			c0.541,0.094,1.082,0.25,1.624,0.477c0.542,0.222,1.054,0.515,1.538,0.882c0.481,0.367,0.888,0.819,1.219,1.357h0.07v-9.394h3.001
			v25.225H139.959z M129.166,216.577c0.225,0.812,0.566,1.538,1.024,2.178c0.459,0.632,1.048,1.14,1.766,1.515
			c0.718,0.378,1.562,0.565,2.527,0.565c1.013,0,1.872-0.199,2.578-0.597c0.707-0.405,1.284-0.929,1.731-1.577
			c0.447-0.645,0.771-1.381,0.972-2.205s0.3-1.662,0.3-2.51c0-0.894-0.105-1.76-0.318-2.595c-0.21-0.84-0.548-1.573-1.007-2.21
			c-0.458-0.635-1.054-1.147-1.783-1.533c-0.732-0.39-1.614-0.585-2.65-0.585c-1.013,0-1.872,0.203-2.58,0.601
			c-0.704,0.402-1.27,0.93-1.695,1.592c-0.423,0.656-0.728,1.409-0.917,2.257c-0.189,0.851-0.281,1.721-0.281,2.614
			C128.833,214.938,128.942,215.765,129.166,216.577z"/>
		<path fill="#FFFFFF" d="M170.181,201.282c-1.118-0.813-2.548-1.218-4.291-1.218c-0.708,0-1.401,0.07-2.084,0.211
			c-0.683,0.145-1.29,0.379-1.82,0.706c-0.529,0.332-0.953,0.772-1.271,1.327c-0.318,0.554-0.478,1.241-0.478,2.068
			c0,0.772,0.23,1.405,0.689,1.889c0.46,0.484,1.071,0.874,1.836,1.179c0.767,0.309,1.631,0.563,2.597,0.762
			c0.966,0.198,1.95,0.417,2.951,0.655c0.999,0.234,1.984,0.511,2.949,0.831c0.965,0.316,1.832,0.745,2.597,1.288
			s1.377,1.226,1.836,2.049c0.458,0.823,0.69,1.862,0.69,3.106c0,1.343-0.3,2.495-0.903,3.446c-0.599,0.952-1.372,1.732-2.313,2.33
			c-0.943,0.604-1.997,1.038-3.161,1.308c-1.167,0.273-2.326,0.405-3.481,0.405c-1.411,0-2.75-0.175-4.008-0.53
			c-1.261-0.352-2.367-0.885-3.319-1.604c-0.956-0.723-1.709-1.636-2.262-2.76c-0.554-1.115-0.829-2.443-0.829-3.974h3.178
			c0,1.062,0.205,1.976,0.617,2.74c0.412,0.765,0.954,1.397,1.625,1.889c0.671,0.496,1.456,0.859,2.35,1.093
			c0.896,0.238,1.813,0.355,2.755,0.355c0.753,0,1.512-0.066,2.279-0.21c0.765-0.146,1.454-0.383,2.066-0.726
			c0.611-0.341,1.106-0.805,1.483-1.395s0.566-1.343,0.566-2.264c0-0.866-0.23-1.577-0.691-2.115
			c-0.458-0.543-1.069-0.983-1.836-1.326c-0.765-0.345-1.631-0.617-2.595-0.832c-0.966-0.211-1.95-0.429-2.951-0.651
			c-1.001-0.227-1.982-0.484-2.95-0.78c-0.966-0.289-1.831-0.679-2.598-1.164c-0.763-0.484-1.375-1.107-1.836-1.872
			c-0.458-0.766-0.687-1.726-0.687-2.881c0-1.269,0.258-2.369,0.775-3.303c0.519-0.928,1.208-1.693,2.068-2.294
			c0.858-0.602,1.836-1.046,2.931-1.343c1.095-0.296,2.221-0.444,3.375-0.444c1.296,0,2.496,0.155,3.604,0.46
			c1.107,0.309,2.079,0.792,2.914,1.452c0.837,0.655,1.496,1.487,1.979,2.49c0.481,0.999,0.747,2.192,0.796,3.582h-3.181
			C171.953,203.409,171.299,202.099,170.181,201.282z"/>
		<path fill="#FFFFFF" d="M192.7,221.896c-1.366,1.034-3.085,1.554-5.158,1.554c-1.46,0-2.727-0.238-3.798-0.707
			c-1.071-0.468-1.973-1.131-2.702-1.975c-0.73-0.851-1.278-1.865-1.644-3.041c-0.365-1.178-0.569-2.462-0.619-3.851
			c0-1.39,0.213-2.662,0.638-3.817c0.423-1.151,1.017-2.154,1.782-3.001c0.767-0.847,1.672-1.507,2.722-1.979
			c1.048-0.468,2.195-0.702,3.444-0.702c1.624,0,2.972,0.331,4.043,1.003c1.073,0.672,1.932,1.526,2.58,2.564
			c0.647,1.034,1.095,2.162,1.342,3.388c0.248,1.226,0.348,2.392,0.301,3.497h-13.671c-0.023,0.803,0.07,1.561,0.283,2.279
			c0.21,0.718,0.552,1.357,1.024,1.912c0.47,0.551,1.071,0.991,1.801,1.319c0.73,0.332,1.589,0.495,2.578,0.495
			c1.272,0,2.314-0.293,3.126-0.882c0.813-0.589,1.35-1.487,1.608-2.685h2.968C194.95,219.317,194.066,220.862,192.7,221.896z
			 M191.976,210.169c-0.27-0.637-0.636-1.188-1.095-1.646c-0.46-0.457-1.001-0.82-1.626-1.094c-0.624-0.269-1.311-0.405-2.066-0.405
			c-0.777,0-1.478,0.137-2.102,0.405c-0.625,0.273-1.159,0.645-1.608,1.116c-0.447,0.469-0.8,1.015-1.057,1.639
			c-0.262,0.625-0.414,1.289-0.461,1.999h10.492C192.405,211.473,192.245,210.801,191.976,210.169z"/>
		<path fill="#FFFFFF" d="M201.285,204.799v3.849h0.072c0.728-1.483,1.624-2.577,2.683-3.283s2.402-1.034,4.028-0.987v3.177
			c-1.2,0-2.225,0.164-3.074,0.496c-0.847,0.331-1.532,0.812-2.049,1.447c-0.519,0.633-0.896,1.405-1.13,2.311
			c-0.236,0.909-0.353,1.952-0.353,3.13v8.127h-3.003v-18.266H201.285z"/>
		<path fill="#FFFFFF" d="M215.168,223.064l-6.783-18.266h3.356l5.122,15.225h0.071l4.981-15.225h3.144l-6.678,18.266H215.168z"/>
		<path fill="#FFFFFF" d="M227.815,201.512v-3.672h3.003v3.672H227.815z M230.818,204.799v18.266h-3.003v-18.266H230.818z"/>
		<path fill="#FFFFFF" d="M246.219,207.975c-0.755-0.632-1.768-0.951-3.038-0.951c-1.086,0-1.991,0.203-2.721,0.601
			c-0.73,0.402-1.313,0.93-1.749,1.592c-0.435,0.656-0.747,1.417-0.937,2.28c-0.189,0.854-0.281,1.748-0.281,2.661
			c0,0.852,0.099,1.675,0.3,2.475c0.197,0.804,0.511,1.515,0.935,2.139c0.423,0.625,0.978,1.124,1.661,1.499
			c0.683,0.378,1.496,0.565,2.437,0.565c1.483,0,2.645-0.387,3.479-1.167c0.837-0.772,1.349-1.869,1.538-3.281h3.074
			c-0.33,2.259-1.173,3.999-2.527,5.226c-1.354,1.225-3.197,1.838-5.528,1.838c-1.39,0-2.621-0.223-3.692-0.672
			s-1.967-1.081-2.686-1.908c-0.716-0.824-1.259-1.807-1.623-2.95c-0.367-1.14-0.548-2.396-0.548-3.763s0.177-2.643,0.531-3.833
			c0.353-1.186,0.888-2.224,1.607-3.105c0.716-0.882,1.618-1.577,2.701-2.084c1.083-0.508,2.344-0.758,3.78-0.758
			c1.036,0,2.008,0.117,2.915,0.366c0.905,0.251,1.706,0.634,2.402,1.147c0.695,0.521,1.265,1.171,1.711,1.96
			c0.449,0.792,0.732,1.729,0.849,2.81h-3.108C247.466,209.51,246.973,208.615,246.219,207.975z"/>
		<path fill="#FFFFFF" d="M267.026,221.896c-1.365,1.034-3.087,1.554-5.159,1.554c-1.459,0-2.726-0.238-3.797-0.707
			c-1.072-0.468-1.971-1.131-2.703-1.975c-0.729-0.851-1.278-1.865-1.641-3.041c-0.365-1.178-0.572-2.462-0.619-3.851
			c0-1.39,0.211-2.662,0.637-3.817c0.423-1.151,1.016-2.154,1.783-3.001c0.765-0.847,1.672-1.507,2.72-1.979
			c1.048-0.468,2.195-0.702,3.444-0.702c1.625,0,2.972,0.331,4.045,1.003c1.071,0.672,1.93,1.526,2.578,2.564
			c0.648,1.034,1.097,2.162,1.342,3.388c0.248,1.226,0.347,2.392,0.3,3.497h-13.669c-0.025,0.803,0.069,1.561,0.281,2.279
			c0.212,0.718,0.554,1.357,1.024,1.912c0.47,0.551,1.071,0.991,1.801,1.319c0.729,0.332,1.59,0.495,2.58,0.495
			c1.271,0,2.313-0.293,3.126-0.882c0.813-0.589,1.349-1.487,1.605-2.685h2.971C269.275,219.317,268.391,220.862,267.026,221.896z
			 M266.301,210.169c-0.269-0.637-0.636-1.188-1.095-1.646c-0.458-0.457-1.001-0.82-1.624-1.094
			c-0.626-0.269-1.313-0.405-2.068-0.405c-0.777,0-1.478,0.137-2.101,0.405c-0.625,0.273-1.16,0.645-1.607,1.116
			c-0.448,0.469-0.801,1.015-1.059,1.639c-0.262,0.625-0.414,1.289-0.459,1.999h10.491
			C266.73,211.473,266.572,210.801,266.301,210.169z"/>
		<path fill="#FFFFFF" d="M275.188,218.981c0.281,0.461,0.652,0.827,1.113,1.093c0.458,0.272,0.975,0.468,1.553,0.586
			c0.577,0.116,1.171,0.175,1.783,0.175c0.47,0,0.966-0.035,1.483-0.105c0.519-0.069,0.995-0.198,1.432-0.39
			c0.436-0.188,0.794-0.462,1.077-0.828c0.283-0.367,0.423-0.831,0.423-1.396c0-0.777-0.292-1.366-0.882-1.765
			c-0.589-0.402-1.325-0.726-2.209-0.976c-0.882-0.242-1.844-0.469-2.878-0.671c-1.036-0.195-1.996-0.479-2.88-0.843
			c-0.882-0.367-1.62-0.883-2.207-1.538c-0.589-0.659-0.884-1.577-0.884-2.755c0-0.921,0.207-1.71,0.619-2.366
			c0.411-0.663,0.94-1.198,1.59-1.607c0.648-0.414,1.378-0.719,2.189-0.921c0.814-0.199,1.619-0.297,2.42-0.297
			c1.036,0,1.99,0.085,2.86,0.262c0.873,0.176,1.644,0.484,2.315,0.917c0.671,0.437,1.206,1.026,1.607,1.768
			c0.402,0.742,0.636,1.666,0.707,2.775h-3.002c-0.049-0.589-0.201-1.077-0.46-1.468c-0.259-0.39-0.589-0.702-0.989-0.937
			c-0.4-0.234-0.841-0.406-1.323-0.516c-0.484-0.101-0.973-0.155-1.467-0.155c-0.447,0-0.899,0.035-1.36,0.104
			c-0.46,0.074-0.878,0.195-1.253,0.372c-0.378,0.179-0.685,0.413-0.918,0.706c-0.236,0.296-0.355,0.679-0.355,1.15
			c0,0.516,0.184,0.945,0.548,1.289c0.365,0.343,0.832,0.624,1.397,0.851c0.564,0.218,1.198,0.405,1.907,0.562
			c0.707,0.152,1.413,0.313,2.119,0.476c0.753,0.165,1.489,0.368,2.209,0.601c0.718,0.236,1.354,0.548,1.906,0.938
			c0.552,0.391,1.001,0.874,1.343,1.467c0.339,0.587,0.513,1.32,0.513,2.189c0,1.105-0.23,2.026-0.689,2.752
			c-0.46,0.733-1.06,1.323-1.803,1.772c-0.742,0.444-1.577,0.758-2.508,0.937c-0.931,0.172-1.854,0.262-2.772,0.262
			c-1.015,0-1.979-0.106-2.896-0.316c-0.918-0.211-1.732-0.563-2.439-1.045c-0.706-0.48-1.271-1.117-1.696-1.905
			c-0.423-0.788-0.659-1.748-0.706-2.881h3.003C274.75,217.963,274.902,218.521,275.188,218.981z"/>
		<path fill="#FFFFFF" d="M305.179,197.84l7.948,21.196l7.985-21.196h4.589v25.225h-3.179v-20.99h-0.068l-7.878,20.99h-2.862
			l-7.878-20.99h-0.072v20.99h-3.179V197.84H305.179z"/>
		<path fill="#FFFFFF" d="M344.638,223.45c-0.776,0-1.395-0.219-1.854-0.652c-0.46-0.437-0.69-1.15-0.69-2.138
			c-0.824,0.987-1.784,1.701-2.878,2.138c-1.095,0.434-2.279,0.652-3.55,0.652c-0.826,0-1.602-0.09-2.333-0.262
			c-0.729-0.179-1.374-0.472-1.923-0.886c-0.554-0.414-0.99-0.941-1.31-1.589c-0.318-0.648-0.476-1.432-0.476-2.35
			c0-1.037,0.178-1.884,0.531-2.545c0.353-0.659,0.817-1.193,1.396-1.607c0.575-0.414,1.235-0.726,1.979-0.936
			c0.741-0.212,1.5-0.388,2.277-0.531c0.823-0.164,1.607-0.29,2.349-0.372c0.742-0.081,1.396-0.198,1.961-0.351
			s1.011-0.378,1.342-0.671c0.328-0.292,0.494-0.727,0.494-1.292c0-0.656-0.125-1.187-0.371-1.589
			c-0.248-0.397-0.566-0.706-0.952-0.917c-0.39-0.211-0.826-0.352-1.31-0.426c-0.481-0.069-0.958-0.104-1.43-0.104
			c-1.271,0-2.332,0.242-3.179,0.726c-0.849,0.484-1.308,1.393-1.378,2.736h-3.003c0.047-1.129,0.284-2.084,0.707-2.861
			c0.425-0.776,0.989-1.405,1.696-1.889c0.706-0.484,1.518-0.832,2.439-1.042c0.917-0.215,1.881-0.316,2.894-0.316
			c0.826,0,1.644,0.055,2.457,0.171c0.812,0.121,1.548,0.36,2.207,0.727c0.659,0.367,1.188,0.878,1.591,1.538
			c0.4,0.655,0.599,1.518,0.599,2.576v9.397c0,0.706,0.043,1.226,0.125,1.554c0.084,0.332,0.359,0.495,0.832,0.495
			c0.257,0,0.564-0.059,0.917-0.175v2.33C346.273,223.297,345.557,223.45,344.638,223.45z M340.433,214.247
			c-0.611,0.129-1.253,0.238-1.924,0.316c-0.67,0.086-1.348,0.18-2.031,0.285c-0.683,0.104-1.294,0.276-1.836,0.511
			c-0.542,0.238-0.986,0.57-1.325,1.007c-0.343,0.438-0.511,1.03-0.511,1.783c0,0.496,0.1,0.914,0.299,1.254
			c0.199,0.343,0.46,0.62,0.778,0.835c0.316,0.21,0.695,0.362,1.13,0.456c0.436,0.099,0.876,0.141,1.325,0.141
			c0.989,0,1.836-0.133,2.543-0.406c0.706-0.27,1.284-0.612,1.73-1.025c0.449-0.406,0.776-0.859,0.989-1.343
			c0.213-0.48,0.318-0.934,0.318-1.358v-3.075C341.541,213.916,341.047,214.118,340.433,214.247z"/>
		<path fill="#FFFFFF" d="M352.233,204.799v2.896h0.069c1.249-2.213,3.226-3.317,5.937-3.317c1.2,0,2.201,0.164,3.001,0.492
			c0.801,0.328,1.449,0.787,1.944,1.377c0.494,0.59,0.841,1.288,1.042,2.104c0.199,0.813,0.301,1.71,0.301,2.701v12.014h-3.003
			v-12.365c0-1.131-0.33-2.029-0.989-2.685c-0.66-0.66-1.565-0.991-2.72-0.991c-0.917,0-1.713,0.141-2.385,0.421
			c-0.671,0.285-1.231,0.688-1.676,1.203c-0.449,0.521-0.784,1.127-1.009,1.822c-0.222,0.694-0.334,1.451-0.334,2.275v10.319h-3.003
			v-18.266H352.233z"/>
		<path fill="#FFFFFF" d="M382.897,223.45c-0.778,0-1.397-0.219-1.855-0.652c-0.459-0.437-0.689-1.15-0.689-2.138
			c-0.823,0.987-1.784,1.701-2.878,2.138c-1.097,0.434-2.279,0.652-3.552,0.652c-0.825,0-1.6-0.09-2.332-0.262
			c-0.728-0.179-1.372-0.472-1.924-0.886c-0.554-0.414-0.989-0.941-1.307-1.589c-0.318-0.648-0.478-1.432-0.478-2.35
			c0-1.037,0.178-1.884,0.531-2.545c0.353-0.659,0.82-1.193,1.395-1.607c0.578-0.414,1.237-0.726,1.979-0.936
			c0.742-0.212,1.501-0.388,2.277-0.531c0.826-0.164,1.608-0.29,2.352-0.372c0.742-0.081,1.396-0.198,1.961-0.351
			c0.564-0.152,1.011-0.378,1.343-0.671c0.328-0.292,0.494-0.727,0.494-1.292c0-0.656-0.125-1.187-0.373-1.589
			c-0.246-0.397-0.564-0.706-0.952-0.917c-0.391-0.211-0.826-0.352-1.308-0.426c-0.482-0.069-0.96-0.104-1.431-0.104
			c-1.272,0-2.332,0.242-3.178,0.726c-0.849,0.484-1.308,1.393-1.38,2.736h-3.001c0.046-1.129,0.281-2.084,0.706-2.861
			c0.424-0.776,0.989-1.405,1.696-1.889c0.707-0.484,1.519-0.832,2.437-1.042c0.919-0.215,1.883-0.316,2.896-0.316
			c0.826,0,1.643,0.055,2.457,0.171c0.812,0.121,1.547,0.36,2.207,0.727c0.658,0.367,1.188,0.878,1.59,1.538
			c0.398,0.655,0.599,1.518,0.599,2.576v9.397c0,0.706,0.041,1.226,0.125,1.554c0.083,0.332,0.358,0.495,0.83,0.495
			c0.26,0,0.566-0.059,0.919-0.175v2.33C384.532,223.297,383.814,223.45,382.897,223.45z M378.692,214.247
			c-0.613,0.129-1.253,0.238-1.924,0.316c-0.671,0.086-1.351,0.18-2.034,0.285c-0.681,0.104-1.293,0.276-1.836,0.511
			c-0.541,0.238-0.983,0.57-1.322,1.007c-0.344,0.438-0.514,1.03-0.514,1.783c0,0.496,0.1,0.914,0.3,1.254
			c0.2,0.343,0.459,0.62,0.776,0.835c0.318,0.21,0.695,0.362,1.132,0.456c0.433,0.099,0.876,0.141,1.323,0.141
			c0.99,0,1.836-0.133,2.545-0.406c0.706-0.27,1.282-0.612,1.73-1.025c0.447-0.406,0.777-0.859,0.99-1.343
			c0.212-0.48,0.318-0.934,0.318-1.358v-3.075C379.798,213.916,379.305,214.118,378.692,214.247z"/>
		<path fill="#FFFFFF" d="M401.371,228.219c-1.364,1.483-3.509,2.229-6.428,2.229c-0.849,0-1.715-0.099-2.597-0.285
			c-0.885-0.191-1.685-0.496-2.403-0.917c-0.72-0.426-1.313-0.98-1.783-1.662c-0.473-0.684-0.73-1.52-0.777-2.507h3.001
			c0.023,0.539,0.195,0.999,0.511,1.374c0.32,0.378,0.708,0.687,1.167,0.921c0.46,0.234,0.96,0.405,1.503,0.512
			c0.541,0.105,1.06,0.16,1.553,0.16c0.99,0,1.824-0.173,2.509-0.516c0.684-0.339,1.248-0.813,1.697-1.413
			c0.446-0.602,0.77-1.323,0.969-2.17c0.2-0.851,0.301-1.779,0.301-2.794v-1.198h-0.072c-0.516,1.127-1.3,1.959-2.348,2.489
			c-1.048,0.531-2.163,0.797-3.339,0.797c-1.364,0-2.554-0.249-3.567-0.745c-1.012-0.492-1.861-1.155-2.542-1.99
			c-0.685-0.836-1.196-1.815-1.538-2.937c-0.341-1.115-0.513-2.302-0.513-3.551c0-1.081,0.143-2.193,0.426-3.337
			c0.283-1.143,0.753-2.178,1.413-3.11c0.657-0.929,1.53-1.693,2.614-2.295c1.081-0.601,2.412-0.897,3.991-0.897
			c1.154,0,2.215,0.25,3.181,0.758c0.964,0.507,1.718,1.265,2.26,2.279h0.035v-2.615h2.824v16.708
			C403.419,224.499,402.738,226.735,401.371,228.219z M397.539,220.004c0.695-0.41,1.254-0.953,1.679-1.624
			c0.425-0.67,0.735-1.428,0.936-2.279c0.2-0.843,0.302-1.693,0.302-2.54c0-0.8-0.097-1.593-0.283-2.369
			c-0.19-0.776-0.491-1.475-0.902-2.1c-0.412-0.624-0.947-1.125-1.606-1.503c-0.662-0.378-1.461-0.565-2.402-0.565
			c-0.966,0-1.79,0.183-2.472,0.546c-0.685,0.367-1.244,0.854-1.681,1.467c-0.435,0.613-0.753,1.32-0.952,2.12
			c-0.201,0.8-0.301,1.635-0.301,2.51c0,0.823,0.082,1.646,0.248,2.47c0.164,0.824,0.447,1.574,0.847,2.244
			c0.4,0.671,0.929,1.214,1.588,1.624c0.66,0.414,1.485,0.621,2.472,0.621C396.001,220.625,396.844,220.418,397.539,220.004z"/>
		<path fill="#FFFFFF" d="M420.692,221.896c-1.366,1.034-3.083,1.554-5.156,1.554c-1.459,0-2.728-0.238-3.797-0.707
			c-1.068-0.468-1.975-1.131-2.7-1.975c-0.734-0.851-1.28-1.865-1.648-3.041c-0.362-1.178-0.568-2.462-0.615-3.851
			c0-1.39,0.21-2.662,0.636-3.817c0.426-1.151,1.019-2.154,1.783-3.001c0.766-0.847,1.67-1.507,2.725-1.979
			c1.046-0.468,2.193-0.702,3.442-0.702c1.624,0,2.974,0.331,4.043,1.003c1.073,0.672,1.933,1.526,2.58,2.564
			c0.647,1.034,1.097,2.162,1.343,3.388c0.245,1.226,0.348,2.392,0.301,3.497h-13.673c-0.027,0.803,0.071,1.561,0.286,2.279
			c0.21,0.718,0.549,1.357,1.022,1.912c0.468,0.551,1.068,0.991,1.802,1.319c0.727,0.332,1.585,0.495,2.577,0.495
			c1.271,0,2.313-0.293,3.125-0.882c0.816-0.589,1.351-1.487,1.609-2.685h2.97C422.944,219.317,422.059,220.862,420.692,221.896z
			 M419.97,210.169c-0.269-0.637-0.635-1.188-1.096-1.646c-0.461-0.457-1-0.82-1.624-1.094c-0.624-0.269-1.312-0.405-2.068-0.405
			c-0.772,0-1.475,0.137-2.1,0.405c-0.624,0.273-1.159,0.645-1.608,1.116c-0.444,0.469-0.8,1.015-1.062,1.639
			c-0.257,0.625-0.41,1.289-0.457,1.999h10.496C420.399,211.473,420.239,210.801,419.97,210.169z"/>
		<path fill="#FFFFFF" d="M429.385,204.799v2.685h0.074c1.365-2.076,3.328-3.106,5.896-3.106c1.128,0,2.155,0.234,3.072,0.702
			c0.921,0.473,1.568,1.272,1.943,2.404c0.612-0.991,1.421-1.756,2.42-2.294c1.003-0.548,2.104-0.813,3.302-0.813
			c0.921,0,1.748,0.098,2.489,0.297c0.747,0.202,1.382,0.516,1.913,0.937c0.53,0.426,0.94,0.972,1.233,1.643
			c0.297,0.672,0.445,1.479,0.445,2.42v13.392h-3.005v-11.979c0-0.565-0.047-1.096-0.141-1.588
			c-0.094-0.495-0.273-0.925-0.531-1.291c-0.258-0.363-0.617-0.652-1.077-0.863c-0.461-0.215-1.055-0.319-1.783-0.319
			c-1.483,0-2.65,0.421-3.498,1.271c-0.847,0.847-1.271,1.976-1.271,3.392v11.378h-3.002v-11.979c0-0.588-0.054-1.131-0.16-1.627
			c-0.104-0.491-0.288-0.921-0.55-1.287c-0.258-0.364-0.605-0.648-1.038-0.848c-0.437-0.198-0.999-0.3-1.678-0.3
			c-0.874,0-1.624,0.179-2.244,0.53c-0.625,0.352-1.128,0.776-1.519,1.272c-0.39,0.491-0.671,1.007-0.852,1.538
			c-0.175,0.527-0.265,0.968-0.265,1.322v11.378h-3.001v-18.266H429.385z"/>
		<path fill="#FFFFFF" d="M469.446,221.896c-1.366,1.034-3.087,1.554-5.16,1.554c-1.459,0-2.724-0.238-3.797-0.707
			c-1.072-0.468-1.971-1.131-2.704-1.975c-0.726-0.851-1.276-1.865-1.641-3.041c-0.366-1.178-0.568-2.462-0.62-3.851
			c0-1.39,0.215-2.662,0.637-3.817c0.425-1.151,1.02-2.154,1.783-3.001c0.77-0.847,1.675-1.507,2.721-1.979
			c1.05-0.468,2.193-0.702,3.445-0.702c1.624,0,2.972,0.331,4.044,1.003c1.073,0.672,1.932,1.526,2.58,2.564
			c0.647,1.034,1.093,2.162,1.342,3.388c0.247,1.226,0.344,2.392,0.301,3.497h-13.671c-0.024,0.803,0.069,1.561,0.281,2.279
			c0.21,0.718,0.554,1.357,1.022,1.912c0.476,0.551,1.076,0.991,1.803,1.319c0.729,0.332,1.592,0.495,2.579,0.495
			c1.273,0,2.315-0.293,3.127-0.882c0.813-0.589,1.351-1.487,1.607-2.685h2.967C471.694,219.317,470.813,220.862,469.446,221.896z
			 M468.721,210.169c-0.273-0.637-0.637-1.188-1.098-1.646c-0.456-0.457-1.002-0.82-1.624-1.094
			c-0.623-0.269-1.313-0.405-2.063-0.405c-0.78,0-1.483,0.137-2.104,0.405c-0.625,0.273-1.16,0.645-1.607,1.116
			c-0.449,0.469-0.801,1.015-1.059,1.639c-0.262,0.625-0.413,1.289-0.46,1.999h10.49
			C469.149,211.473,468.99,210.801,468.721,210.169z"/>
		<path fill="#FFFFFF" d="M478.134,204.799v2.896h0.07c1.249-2.213,3.228-3.317,5.937-3.317c1.197,0,2.201,0.164,3.001,0.492
			c0.805,0.328,1.452,0.787,1.943,1.377c0.496,0.59,0.844,1.288,1.042,2.104c0.199,0.813,0.301,1.71,0.301,2.701v12.014h-3.002
			v-12.365c0-1.131-0.331-2.029-0.987-2.685c-0.662-0.66-1.568-0.991-2.724-0.991c-0.917,0-1.71,0.141-2.381,0.421
			c-0.672,0.285-1.232,0.688-1.679,1.203c-0.448,0.521-0.788,1.127-1.006,1.822c-0.227,0.694-0.336,1.451-0.336,2.275v10.319h-3.006
			v-18.266H478.134z"/>
		<path fill="#FFFFFF" d="M502.581,204.799v2.646h-3.638v11.342c0,0.352,0.027,0.64,0.087,0.852c0.062,0.21,0.171,0.374,0.335,0.491
			s0.398,0.195,0.69,0.23c0.293,0.034,0.676,0.051,1.147,0.051h1.378v2.654h-2.295c-0.781,0-1.443-0.055-1.998-0.16
			c-0.554-0.106-1-0.302-1.343-0.586c-0.344-0.281-0.593-0.684-0.757-1.198c-0.168-0.52-0.251-1.202-0.251-2.049v-11.627h-3.105
			v-2.646h3.105v-5.477h3.006v5.477H502.581z"/>
	</g>
	<g>
		<path fill="#003767" d="M730.087,122.785c-1.873,0-3.087,0.909-3.638,2.722c-0.551,1.811-0.822,4.511-0.822,8.094
			c0,3.586,0.271,6.282,0.822,8.097c0.551,1.811,1.765,2.716,3.638,2.716c1.835,0,3.024-0.905,3.575-2.716
			c0.551-1.814,0.823-4.511,0.823-8.097c0-3.583-0.272-6.284-0.823-8.094C733.111,123.694,731.922,122.785,730.087,122.785z"/>
		<path fill="#003767" d="M684.721,124.102c-0.304-0.673-0.733-1.185-1.284-1.528c-0.546-0.345-1.249-0.521-2.104-0.521
			c-0.858,0-1.557,0.195-2.11,0.58c-0.548,0.388-0.984,0.899-1.313,1.528c-0.327,0.634-0.562,1.336-0.702,2.109
			c-0.145,0.775-0.215,1.548-0.215,2.32v1.282h8.613c-0.039-1.259-0.121-2.369-0.241-3.327
			C685.239,125.587,685.029,124.771,684.721,124.102z"/>
		<path fill="#003767" d="M757.641,126.467c-3.84-19.703-19.83-30.534-29.879-44.818c-7.313-10.386-13.427-21.927-17.979-36.591
			c-0.801-2.796-1.579-5.719-2.345-8.824c-0.023-0.286-0.07-0.548-0.329-0.601c-0.085-0.068-0.201-0.107-0.398-0.063
			c-0.706,2.875-1.379,5.675-2.047,8.415c-4.036,14.538-8.827,26.475-16.341,37.068c-8.449,11.902-20.342,20.127-26.891,34.661
			c-4.8,10.635-4.667,27.703-0.601,37.646c3.473,8.489,10.761,17.269,20.038,23.147c5.927,4.109,12.765,7.056,20,7.927
			C732.344,188.216,764.966,164.065,757.641,126.467z M693.674,134.886h-16.681v2.625c0,0.979,0.07,1.924,0.215,2.845
			c0.141,0.913,0.375,1.729,0.702,2.443c0.328,0.71,0.754,1.279,1.28,1.709c0.531,0.43,1.187,0.64,1.96,0.64
			c1.42,0,2.462-0.507,3.113-1.525c0.652-1.019,1.102-2.568,1.343-4.641h7.576c-0.16,3.825-1.18,6.74-3.052,8.734
			c-1.878,1.998-4.828,2.993-8.859,2.993c-3.057,0-5.438-0.511-7.146-1.525c-1.718-1.019-2.978-2.365-3.79-4.036
			c-0.815-1.67-1.314-3.543-1.498-5.619c-0.185-2.076-0.278-4.157-0.278-6.231c0-2.201,0.157-4.318,0.462-6.353
			c0.304-2.04,0.916-3.853,1.829-5.441c0.918-1.588,2.233-2.851,3.942-3.79c1.713-0.935,3.993-1.401,6.846-1.401
			c2.443,0,4.449,0.395,6.015,1.191c1.568,0.794,2.802,1.916,3.699,3.36c0.897,1.446,1.507,3.199,1.831,5.255
			c0.328,2.056,0.491,4.347,0.491,6.871V134.886z M714.753,124.496c-0.449-0.039-0.886-0.07-1.312-0.09
			c-0.429-0.019-0.866-0.029-1.315-0.029c-0.733,0-1.467,0.099-2.201,0.304c-0.729,0.203-1.404,0.541-2.013,1.007
			c-0.614,0.469-1.101,1.082-1.469,1.834c-0.366,0.753-0.55,1.68-0.55,2.777v19.738h-8.43v-32.871h8.063v4.398h0.124
			c0.854-1.59,1.894-2.86,3.115-3.819c1.222-0.956,2.708-1.434,4.456-1.434c0.246,0,0.504,0.01,0.77,0.029
			c0.265,0.02,0.516,0.051,0.761,0.09V124.496z M740.473,146.741c-1.627,2.645-4.172,3.968-7.638,3.968
			c-1.588,0-2.939-0.3-4.059-0.885c-1.12-0.59-2.131-1.538-3.029-2.843h-0.12v13.629h-8.431v-43.443h8.063v3.481h0.126
			c0.933-1.547,1.985-2.66,3.145-3.329c1.16-0.673,2.597-1.007,4.306-1.007c3.466,0,6.011,1.353,7.638,4.062
			c1.632,2.71,2.446,7.12,2.446,13.228C742.919,139.711,742.104,144.091,740.473,146.741z"/>
	</g>
</g>
</svg>
