<?xml version="1.0" standalone="no"?>
<!DOCTYPE svg PUBLIC "-//W3C//DTD SVG 1.1//EN" "http://www.w3.org/Graphics/SVG/1.1/DTD/svg11.dtd" >
<svg xmlns="http://www.w3.org/2000/svg">
<metadata></metadata>
<defs>
<font id="ArkitechLight" horiz-adv-x="1163" >
<font-face units-per-em="1000" ascent="800" descent="-200" />
<missing-glyph horiz-adv-x="375" />
<glyph unicode=" "  horiz-adv-x="375" />
<glyph unicode="&#x09;" horiz-adv-x="375" />
<glyph unicode="&#xa0;" horiz-adv-x="375" />
<glyph unicode="!" horiz-adv-x="389" d="M236 700v-490h-76v490h76zM236 124v-124h-76v124h76z" />
<glyph unicode="&#x22;" horiz-adv-x="365" d="M91 510v183h78v-183h-78zM231 510v183h78v-183h-78z" />
<glyph unicode="#" horiz-adv-x="755" d="M629 277h-123v-128h-76v128h-137v-128h-76v128h-123v76h123v136h-123v76h123v128h76v-128h137v128h76v-128h123v-76h-123v-136h123v-76zM430 353v136h-137v-136h137z" />
<glyph unicode="$" horiz-adv-x="1030" d="M731 385q40 0 75 -15t61 -41t41 -61t15 -75t-15 -75t-41 -61.5t-61 -41.5t-75 -15h-62v-85h-76v85h-125v-85h-76v85h-292v76h292v233h-98q-39 0 -74 15t-61.5 41t-41.5 61t-15 75t15 75.5t41 61t61 40.5t75 15h98v84h76v-84h125v84h76v-84h246v-76h-246v-232h62zM468 617 v-232h125v232h-125zM392 385v232h-98q-25 0 -45.5 -9t-36 -24.5t-24.5 -36t-10 -44.5q4 -50 36 -84t80 -34h98zM593 76v233h-125v-233h125zM731 76q24 0 45 9t37 25t25 37t9 45t-9 45.5t-24.5 37.5t-37 25t-45.5 9h-62v-233h62z" />
<glyph unicode="%" horiz-adv-x="1134" d="M283 -11l457 719h85l-457 -719h-85zM903 0h-173q-31 0 -58 11.5t-47 31.5t-32 47.5t-12 58.5v15q0 31 11.5 58t32 47.5t47.5 32.5t58 12h173q31 0 58 -12t47 -32t32 -47.5t12 -58.5v-15q0 -30 -11.5 -57.5t-32 -47.5t-47.5 -32t-58 -12zM673 221q-11 -11 -17 -25.5 t-6 -31.5v-15q0 -33 23.5 -56.5t56.5 -23.5h173q33 0 56.5 23.5t23.5 56.5v15q0 34 -23.5 57.5t-56.5 23.5h-173q-33 0 -57 -24zM393 384h-173q-31 0 -58 11.5t-47 31.5t-32 47.5t-12 58.5v15q0 31 11.5 58t32 47.5t47.5 32.5t58 12h173q31 0 58 -12t47 -32t32 -47.5 t12 -58.5v-15q0 -30 -11.5 -57.5t-32 -47.5t-47.5 -32t-58 -12zM163 605q-11 -11 -17 -25.5t-6 -31.5v-15q0 -33 23.5 -56.5t56.5 -23.5h173q33 0 56.5 23.5t23.5 56.5v15q0 34 -23.5 57.5t-56.5 23.5h-173q-33 0 -57 -24z" />
<glyph unicode="&#x26;" horiz-adv-x="1134" d="M1097 398v-76h-101v-322h-696q-47 0 -85.5 15.5t-66.5 42.5t-43 63t-15 78q0 48 23.5 90t61.5 69l-21 15q-31 25 -47.5 61t-16.5 74q0 54 22 90t54 57t69.5 29.5t67.5 8.5h688v-76h-688q-25 0 -49.5 -7.5t-44 -21.5t-31.5 -34.5t-12 -46.5q0 -25 12 -45t31 -34.5t43 -22 t47 -7.5h798zM920 321h-622q-27 0 -51 -10t-42 -27t-28.5 -39t-10.5 -47q0 -9 6 -29t21 -41t40.5 -36.5t64.5 -15.5h622v245z" />
<glyph unicode="'" horiz-adv-x="225" d="M80 477v223h65v-223h-65z" />
<glyph unicode="(" horiz-adv-x="475" d="M240 -62q-39 0 -68.5 22.5t-46.5 54.5q-21 39 -21 89v486q0 33 9.5 62t26.5 52q18 23 44 37.5t56 14.5h108v-76h-108q-30 -3 -47 -36q-13 -24 -13 -54v-486q0 -20 6 -38t15 -29q17 -22 39 -23h108v-76h-108v0z" />
<glyph unicode=")" horiz-adv-x="479" d="M212 -62h-108v76h108q22 1 39 23q9 11 15 29t6 38v486q0 30 -13 54q-17 33 -47 36h-108v76h108q30 0 56 -14.5t44 -37.5q17 -23 26.5 -52t9.5 -62v-486q0 -50 -21 -89q-17 -32 -46.5 -54.5t-68.5 -22.5z" />
<glyph unicode="*" horiz-adv-x="479" d="M420 521h-112l78 -79l-40 -41l-79 80v-111h-58v112l-79 -78l-41 40l79 79h-110v58h112l-79 79l41 41l80 -79v110h57v-112l79 79l41 -41l-80 -80h111v-57z" />
<glyph unicode="+" horiz-adv-x="685" d="M580 316h-217v-217h-64v217h-218v64h218v218h64v-218h217v-64z" />
<glyph unicode="," horiz-adv-x="280" d="M81 -85l29 175h86l-29 -175h-86z" />
<glyph unicode="-" horiz-adv-x="675" d="M80 386h515v-60h-515v60z" />
<glyph unicode="." horiz-adv-x="272" d="M100 0v90h86v-90h-86z" />
<glyph unicode="/" horiz-adv-x="594" d="M73 -51l407 799h76l-407 -799h-76z" />
<glyph unicode="0" horiz-adv-x="1202" d="M384 0q-59 0 -110.5 22.5t-90 61t-61 90t-22.5 110.5v127q0 58 22.5 110t61 90.5t90 61t110.5 22.5h447q59 0 111 -22.5t90.5 -61t61 -90.5t22.5 -110v-127q0 -59 -22.5 -110.5t-61 -90t-90.5 -61t-111 -22.5h-447zM176 411v-127q0 -43 16.5 -80.5t45 -66t66 -45 t80.5 -16.5h447q43 0 81 16.5t66.5 45t45 66t16.5 80.5v127q0 43 -16.5 80.5t-45 66t-66.5 45t-81 16.5h-447q-43 0 -80.5 -16.5t-66 -45t-45 -66t-16.5 -80.5z" />
<glyph unicode="1" horiz-adv-x="422" d="M225 0v564q-3 24 -20 37.5t-41 15.5h-100v76h104q25 0 48.5 -11t41.5 -28t29.5 -39.5t12.5 -44.5v-570h-75z" />
<glyph unicode="2" horiz-adv-x="1134" d="M99 0v165q0 31 12 57.5t33 47t48.5 34.5t57.5 19q81 13 179.5 28.5t196 30t183 27t140.5 20.5q11 2 21.5 6t18.5 13q5 5 8 16v99q-8 31 -30 42t-58 12h-648q-12 0 -30 -4t-29 -12q-14 -11 -19 -23t-6 -35v-89h-76v99q0 31 13 56.5t34.5 44t48.5 29t55 10.5h657 q29 0 58 -8.5t52 -24.5t38 -40t16 -54v-109q0 -27 -12 -46t-31 -31.5t-42.5 -20t-47.5 -10.5q-75 -11 -164.5 -23.5t-180.5 -26t-177 -27t-153 -25.5q-17 -3 -33 -10.5t-28.5 -18t-20.5 -24t-8 -27.5v-91h902v-76h-978z" />
<glyph unicode="3" horiz-adv-x="1142" d="M1039 346q22 -14 27.5 -32t5.5 -39v-148q-2 -19 -10 -38.5t-25 -39.5q-25 -27 -56.5 -38t-72.5 -11h-641q-10 0 -24 1.5t-29 5t-30 9t-27 14.5q-57 42 -57 120v38h76v-38q1 -21 5 -33.5t18 -23.5q12 -10 27 -13t29 -4h653q20 0 33.5 3t22.5 8q12 7 22 17t10 27v143 q0 20 -15 27t-31 7h-715v77h716q13 0 29 8.5t16 25.5v140q-6 27 -30 42.5t-51 15.5h-659q-13 0 -28.5 -4t-26.5 -12q-15 -11 -20 -25.5t-5 -32.5v-38h-76v42q0 35 13.5 65t39.5 50q23 17 54 24t60 7h642q31 -1 59.5 -11t50.5 -27t36 -39.5t17 -48.5v-157q-1 -14 -3.5 -22.5 t-6.5 -15t-10 -12.5t-13 -14z" />
<glyph unicode="4" horiz-adv-x="1106" d="M1024 693v-692h-76v257h-811q-26 0 -36 23q-2 4 -2 13q0 17 11 28l377 371h106l-365 -359h720v359h76z" />
<glyph unicode="5" horiz-adv-x="1150" d="M1072 129q-3 -37 -21 -65q-16 -24 -49 -44t-94 -20h-641l-12.5 1t-31 5.5t-40 14t-40 26.5t-31 43t-12.5 64v74h76v-74q0 -27 13.5 -42.5t30.5 -23.5q19 -10 45 -12h643q14 0 29.5 3t28.5 10t21.5 17.5t8.5 25.5v172q0 5 -1 14t-5.5 18t-13.5 15.5t-24 6.5h-723 q-37 4 -65 23q-24 16 -44 49t-20 92v171h971v-76h-895v-95q0 -30 8 -47.5t18 -26.5t19 -11.5t11 -2.5h721q33 -2 59 -16q23 -12 41.5 -38.5t18.5 -75.5v-175z" />
<glyph unicode="6" horiz-adv-x="1167" d="M100 566q2 19 10 38.5t25 39.5q25 27 56.5 38t72.5 11h654q23 0 48.5 -7t48.5 -22q57 -44 57 -121v-38h-76v38q0 16 -4.5 31t-18.5 26q-12 10 -28 13.5t-32 3.5h-649q-20 0 -33.5 -3t-21.5 -8q-30 -15 -33 -44v-176l12 4l12 4q5 1 9.5 1.5t9.5 0.5h735q3 0 21.5 -3.5 t40 -15.5t39 -36.5t17.5 -66.5v-128q0 -35 -14 -65t-40 -50q-23 -17 -50 -24t-56 -7h-648q-51 0 -83 15.5t-50 37.5t-24.5 44t-6.5 36v433zM176 136q7 -28 32 -44t57 -16h665q18 2 33.5 8t23.5 21q6 11 7.5 18.5t1.5 15.5v135q0 16 -5.5 25.5t-13 13.5t-14 5t-9.5 1h-740 q-3 0 -9 -0.5t-12.5 -5t-11.5 -13.5t-5 -26v-138z" />
<glyph unicode="7" horiz-adv-x="1054" d="M99 0l790 509q10 8 14.5 20.5t4.5 25.5q0 24 -15 41.5t-40 20.5h-753v76h760q56 -7 90 -46.5t34 -92.5q0 -31 -12.5 -59t-37.5 -48l-684 -447h-151z" />
<glyph unicode="8" horiz-adv-x="1142" d="M1072 410q-1 -14 -3.5 -22.5t-6.5 -15t-10 -12.5t-13 -14q22 -14 27.5 -32t5.5 -39v-148q-2 -19 -10 -38.5t-25 -39.5q-25 -27 -56.5 -38t-72.5 -11h-644q-41 0 -72.5 11t-56.5 38q-17 20 -25 39.5t-10 38.5v148q0 21 5.5 39t27.5 32q-7 8 -13 14t-10 12.5t-6.5 15 t-3.5 22.5v157q3 26 17 49t36 40t50 27t60 10h646q31 -1 59.5 -11t50.5 -27t36 -39.5t17 -48.5v-157zM996 274q0 20 -15 27t-31 7h-728q-16 0 -31 -7t-15 -27v-143q0 -17 10 -27t22 -17q9 -5 22.5 -8t33.5 -3h644q20 0 33.5 3t22.5 8q12 7 21.5 17t10.5 27v143zM996 559 q-6 27 -30 42.5t-51 15.5h-658q-27 0 -51 -15.5t-30 -42.5v-140q0 -17 15.5 -25.5t29.5 -8.5h732q13 0 27.5 8.5t15.5 25.5v140z" />
<glyph unicode="9" d="M1072 127q-2 -19 -10 -38.5t-25 -39.5q-25 -27 -56.5 -38t-72.5 -11h-654q-23 0 -48.5 7t-48.5 22q-57 43 -57 121v38h76v-38q0 -16 4.5 -31t18.5 -26q12 -10 28 -13.5t32 -3.5h649q20 0 33.5 3t21.5 8q30 15 33 44v176l-12 -4l-12 -4q-5 -1 -9.5 -1.5t-9.5 -0.5h-735 q-3 0 -21.5 3.5t-40 15.5t-39 36.5t-17.5 66.5v128q0 35 14 65t40 50q23 17 50 24t56 7h648q51 0 83 -15.5t50 -37.5t24.5 -44.5t6.5 -35.5v-433zM996 557q-7 28 -32 44t-57 16h-665q-28 0 -47 -19t-19 -44v-135q0 -17 5.5 -26t13 -13t14 -5t9.5 -1h740q3 0 9 0.5t12.5 5 t11.5 13.5t5 26v138z" />
<glyph unicode=":" horiz-adv-x="272" d="M180 124v-124h-80v124h80zM180 414v-124h-80v124h80z" />
<glyph unicode=";" horiz-adv-x="305" d="M123 291v89h92v-89h-92zM80 -114l55 203h65l-55 -203h-65z" />
<glyph unicode="&#x37e;" horiz-adv-x="305" d="M123 291v89h92v-89h-92zM80 -114l55 203h65l-55 -203h-65z" />
<glyph unicode="&#x3c;" horiz-adv-x="625" d="M71 329v68l500 252v-86l-398 -200l401 -201l-3 -84z" />
<glyph unicode="=" horiz-adv-x="675" d="M80 276h505v-70h-505v70zM80 476h505v-70h-505v70z" />
<glyph unicode="&#x3e;" horiz-adv-x="617" d="M74 78l-3 84l401 201l-398 200v86l500 -252v-68z" />
<glyph unicode="?" horiz-adv-x="1035" d="M886 545q0 4 -2 16t-10.5 24.5t-26.5 22t-49 9.5h-534q-32 0 -49.5 -9.5t-26 -22t-10.5 -25t-2 -17.5v-89h-76v89q0 53 20 83t46.5 45t52.5 18.5t39 3.5h540q6 0 20.5 -1t32.5 -6t37.5 -14t36 -26t27 -42t10.5 -61v-79q0 -42 -18.5 -64.5t-40.5 -33.5q-26 -13 -58 -15 h-289q-30 0 -46.5 -10.5t-24.5 -24.5t-9.5 -27t-1.5 -18v-98h-76v98q0 37 10 63.5t25.5 43.5t34.5 27t36.5 15t32 6t20.5 1h283q12 2 23 7q8 5 15.5 13t7.5 24v74zM399 0v113h76v-113h-76z" />
<glyph unicode="@" horiz-adv-x="1102" d="M249 67q-31 0 -58 12t-47 32t-32 47t-12 59v326q0 32 12 59t32 47t47 32t58 12h593q30 0 57.5 -12t47.5 -32t32 -47t12 -59v-188q0 -45 -18 -79q-14 -28 -38.5 -49t-58.5 -21q-28 0 -51 12.5t-38 34.5q-30 44 -30 102v44q0 33 -24 57q-11 11 -25.5 17t-31.5 6h-285 q-34 0 -57 -23q-24 -24 -24 -57v-39q0 -33 24 -57q11 -11 25.5 -17t31.5 -6h326v-70h-326q-32 0 -59.5 12t-47.5 32t-31.5 47.5t-11.5 58.5v39q0 31 11.5 58.5t31.5 47.5t47.5 32t59.5 12h285q31 0 58.5 -12t47.5 -32t31.5 -47.5t11.5 -58.5v-44q1 -23 9 -44t26 -32 q5 -4 14 -4q7 0 14 4q18 13 25 31.5t9 44.5v188q0 35 -24 57q-11 11 -25.5 17t-30.5 6h-593q-33 0 -56 -23q-24 -22 -24 -57v-326q0 -35 24 -57q22 -24 56 -24h734v-69h-734z" />
<glyph unicode="A" horiz-adv-x="1071" d="M923 610q38 -39 60.5 -90.5t22.5 -110.5v-409h-76v318h-754v-318h-76v409q0 59 22.5 110.5t61.5 90t90.5 61t109.5 22.5h338q59 0 110.5 -22.5t90.5 -60.5zM930 394v17q0 42 -16.5 79.5t-45 65.5t-66.5 44.5t-80 16.5h-340q-42 0 -79.5 -16.5t-65.5 -45t-44.5 -66 t-16.5 -80.5v-15h754z" />
<glyph unicode="B" horiz-adv-x="1105" d="M924 358q38 -27 61.5 -69t23.5 -90q0 -42 -17 -78t-46 -63t-67 -42.5t-80 -15.5h-699v693h696q30 0 59.5 -7t55 -21.5t46.5 -35t34 -47.5q18 -36 18 -74t-16.5 -74t-47.5 -61zM176 398h624q23 0 47 7.5t43 22t31 34.5t12 45q0 26 -12 46.5t-31.5 34.5t-44 21.5t-49.5 7.5 h-620v-219zM923 152q10 21 10 46t-10.5 47t-28.5 39t-42 27t-51 10h-625v-245h625q38 0 72.5 21t49.5 55z" />
<glyph unicode="C" horiz-adv-x="1034" d="M184 83q-39 39 -61.5 90.5t-22.5 110.5v125q0 58 22.5 110t61 90.5t90.5 61t111 22.5h584v-76h-584q-43 0 -81 -16.5t-66.5 -45t-45 -66t-16.5 -80.5v-125q0 -42 16.5 -80t44.5 -66.5t65.5 -45t80.5 -16.5h586v-76h-584q-59 0 -111 22.5t-90 60.5z" />
<glyph unicode="D" horiz-adv-x="1068" d="M100 693h619q59 0 110.5 -22.5t90 -61.5t61 -90.5t22.5 -109.5v-125q0 -59 -22.5 -110.5t-61.5 -90t-90.5 -61t-109.5 -22.5h-619v693zM927 411q0 42 -16.5 79.5t-45 65.5t-66.5 44.5t-80 16.5h-543v-541h545q42 0 79.5 16.5t65.5 45t44.5 66t16.5 80.5v127z" />
<glyph unicode="E" horiz-adv-x="1062" d="M237 556q-29 -29 -45 -66.5t-16 -80.5v-25h793v-76h-793v-26q0 -42 16.5 -79.5t45 -65.5t66.5 -44.5t80 -16.5h585v-76h-585q-59 0 -110.5 22.5t-90 61.5t-61 90.5t-22.5 109.5v125q0 59 22.5 110.5t61.5 90t90.5 61t109.5 22.5h585v-76h-585q-43 0 -80.5 -16t-66.5 -45z " />
<glyph unicode="F" horiz-adv-x="1033" d="M237 555q-29 -28 -45 -65.5t-16 -81.5v-27h747v-76h-747v-305h-76v408q0 60 22.5 111.5t60.5 89.5q39 39 90.5 61.5t110.5 22.5h584v-76h-584q-43 0 -80.5 -16.5t-66.5 -45.5z" />
<glyph unicode="G" horiz-adv-x="1071" d="M722 0h-338q-58 0 -109.5 22.5t-90.5 61t-61.5 90t-22.5 110.5v125q0 58 22.5 109.5t61 90.5t90 61.5t110.5 22.5h420v-76h-420q-42 0 -80 -16.5t-66.5 -44.5t-45 -65.5t-16.5 -79.5v-127q0 -42 16.5 -80t44.5 -66.5t65.5 -45t79.5 -16.5h340q42 0 80 16.5t66.5 44.5 t45 65.5t16.5 79.5v29h-316v76h392v-103q0 -58 -22.5 -109.5t-61 -90.5t-90 -61.5t-110.5 -22.5z" />
<glyph unicode="H" horiz-adv-x="1015" d="M950 693v-693h-77v335h-697v-335h-76v693h76v-282h697v282h77z" />
<glyph unicode="I" horiz-adv-x="241" d="M100 0v693h76v-693h-76z" />
<glyph unicode="J" horiz-adv-x="1017" d="M184 83q-39 39 -61.5 90.5t-22.5 110.5v59h76v-59q0 -42 16.5 -80t44.5 -66.5t65.5 -45t80.5 -16.5h285q42 0 80 16.5t66.5 44.5t45 65.5t16.5 79.5v411h76v-409q0 -59 -22.5 -110.5t-61.5 -90.5q-38 -38 -89.5 -60.5t-110.5 -22.5h-283q-60 0 -111.5 22.5t-89.5 60.5z " />
<glyph unicode="K" horiz-adv-x="1078" d="M970 599q0 -79 -39.5 -144t-103.5 -102q64 -38 103.5 -103t39.5 -144v-106h-76v106q0 43 -16.5 81t-45 66t-66.5 44.5t-81 16.5h-509v-314h-76v701h76v-310h509q43 0 81 16.5t66.5 45t45 66t16.5 80.5v102h76v-102v0z" />
<glyph unicode="L" horiz-adv-x="1033" d="M176 693v-408q0 -44 16 -81.5t45 -65.5q29 -29 66.5 -45.5t80.5 -16.5h584v-76h-584q-59 0 -110.5 22.5t-90.5 61.5q-38 38 -60.5 89.5t-22.5 111.5v408h76z" />
<glyph unicode="M" horiz-adv-x="1242" d="M1082 1v563q0 12 -6 22t-15 17t-19 10.5t-18 3.5h-9q-15 0 -31.5 -8t-25.5 -31q-4 -9 -30 -64q-11 -24 -28.5 -60.5t-43 -90t-60 -125.5t-79.5 -167q-13 -27 -33.5 -49t-46.5 -22h-16q-32 1 -50 18t-35 52l-241 506q-8 16 -13 22t-16 14q-10 5 -26 5h-12q-11 0 -20.5 -5 t-17.5 -13t-13.5 -17.5t-6.5 -17.5v-563h-76v567q0 24 10.5 45.5t28.5 39t41.5 28t49.5 12.5l16 1q14 0 25.5 -2.5t22.5 -6.5q11 -3 22.5 -11t21.5 -18t17.5 -20.5t10.5 -18.5q4 -6 6 -13l240 -504q2 -5 7 -13t11 -8h6q5 2 9.5 9t5.5 9l1 3l241 504q10 20 25.5 41.5 t38.5 33.5q13 7 28.5 11t32.5 4l16 -1q24 0 47 -11.5t41 -29t29.5 -39.5t12.5 -43v-569h-76z" />
<glyph unicode="N" horiz-adv-x="1110" d="M811 6q-14 6 -23.5 13t-23.5 24l-477 562q-9 11 -21 15.5t-26 4.5q-23 0 -43 -14t-21 -40v-571h-76v578l1 3q2 28 15 50.5t32.5 38.5t44 24t49.5 8q29 0 56.5 -11.5t47.5 -37.5l477 -562q9 -11 21.5 -16t25.5 -5q23 0 42 14.5t21 40.5v570h77v-577q-3 -28 -16 -51 t-32.5 -39.5t-43.5 -25.5t-49 -9q-31 0 -58 13z" />
<glyph unicode="O" horiz-adv-x="1248" d="M384 0q-59 0 -110.5 22.5t-90 61t-61 90t-22.5 110.5v125q0 58 22.5 110t61 90.5t90 61t110.5 22.5h514q59 0 111 -22.5t90.5 -61t61 -90.5t22.5 -110v-125q0 -59 -22.5 -110.5t-61 -90t-90.5 -61t-111 -22.5h-514zM176 409v-125q0 -43 16.5 -80.5t45 -66t66 -45 t80.5 -16.5h514q43 0 81 16.5t66.5 45t45 66t16.5 80.5v125q0 43 -16.5 80.5t-45 66t-66.5 45t-81 16.5h-514q-43 0 -80.5 -16.5t-66 -45t-45 -66t-16.5 -80.5z" />
<glyph unicode="P" horiz-adv-x="1111" d="M177 0h-77v693h728q43 0 82.5 -17t69.5 -46t48 -67.5t18 -81.5q0 -44 -18.5 -83t-49 -67.5t-71 -45t-84.5 -16.5h-646v-269zM825 345q29 0 55 10.5t45.5 29t31.5 43.5t13 53q-1 28 -13 53t-32 43.5t-46.5 29t-55.5 10.5h-646v-272h648z" />
<glyph unicode="Q" horiz-adv-x="1248" d="M384 0q-59 0 -110.5 22.5t-90 61t-61 90t-22.5 110.5v127q0 58 22.5 110t61 90.5t90 61t110.5 22.5h514q59 0 111 -22.5t90.5 -61t61 -90.5t22.5 -110v-127q0 -62 -24.5 -115.5t-66.5 -92.5h154v-76h-862zM384 76h522q42 0 78.5 17t63.5 45.5t43 66t16 79.5v127 q0 43 -16.5 80.5t-45 66t-66.5 45t-81 16.5h-514q-43 0 -80.5 -16.5t-66 -45t-45 -66t-16.5 -80.5v-127q0 -43 16.5 -80.5t45 -66t66 -45t80.5 -16.5z" />
<glyph unicode="R" horiz-adv-x="1124" d="M978 331q-50 -48 -122 -59l203 -272h-95l-201 269h-587v-269h-76v693h722q34 0 65.5 -9t57.5 -26q45 -29 72.5 -75.5t27.5 -101.5q0 -44 -17.5 -82.5t-49.5 -67.5zM176 345h650q28 0 54 10.5t45.5 29t31.5 43t12 53.5t-12 54t-32.5 43t-47 28.5t-55.5 10.5h-646v-272z " />
<glyph unicode="S" horiz-adv-x="1018" d="M761 0h-661v76h661q24 0 45 9t37 25t25 37t9 45t-9 45.5t-24.5 37.5t-37 25t-45.5 9h-507q-39 0 -74 15t-61.5 41t-41.5 61t-15 75t15 75.5t41 61.5t61 41.5t75 15.5h661v-76h-661q-25 0 -45.5 -9.5t-36 -25t-24.5 -36.5t-10 -45q4 -50 36 -84t80 -34h507q40 0 75 -15 t61 -41t41 -61t15 -75t-15 -75t-41 -61.5t-61 -41.5t-75 -15z" />
<glyph unicode="T" horiz-adv-x="1031" d="M966 617h-395v-617h-76v617h-395v76h866v-76z" />
<glyph unicode="U" horiz-adv-x="1042" d="M184 83q-39 39 -61.5 90.5t-22.5 110.5v409h76v-409q0 -42 16.5 -80t44.5 -66.5t65.5 -45t80.5 -16.5h285q42 0 80 16.5t66.5 44.5t45 65.5t16.5 79.5v411h76v-409q0 -59 -22.5 -110.5t-61.5 -90.5q-38 -38 -89.5 -60.5t-110.5 -22.5h-283q-60 0 -111.5 22.5t-89.5 60.5z " />
<glyph unicode="V" horiz-adv-x="1172" d="M561 0h-23l-524 693h95l450 -596l455 596h96l-530 -693h-19z" />
<glyph unicode="W" horiz-adv-x="1658" d="M1588 693v-412q0 -59 -22.5 -110.5t-61 -90t-90.5 -61t-111 -22.5h-213q-59 0 -110.5 22.5t-89.5 60.5q-14 14 -25.5 28.5t-20.5 30.5q-10 -16 -21 -30.5t-25 -28.5q-38 -38 -89.5 -60.5t-110.5 -22.5h-214q-59 0 -110.5 22.5t-90 61.5t-61 90.5t-22.5 109.5v412h76v-414 q0 -42 16.5 -79.5t45 -65.5t66.5 -44.5t80 -16.5h213q44 0 81.5 16t66.5 45t45 66.5t16 80.5v412h76v-412q0 -43 16 -80.5t45 -66.5t66.5 -45t80.5 -16h215q43 0 80.5 16.5t65.5 45t44.5 66t16.5 80.5v412h76z" />
<glyph unicode="X" horiz-adv-x="1017" d="M868 304q39 -39 61.5 -90.5t22.5 -110.5v-103h-76v103q0 42 -16.5 80t-44.5 66.5t-65.5 45t-80.5 16.5h-285q-42 0 -80 -16.5t-66.5 -44.5t-45 -65.5t-16.5 -79.5v-105h-76v103q0 59 22.5 110.5t61.5 90.5q13 13 27.5 24t30.5 21q-34 19 -58 45q-39 39 -61.5 90.5 t-22.5 110.5v98h76v-98q0 -42 16.5 -80t44.5 -66.5t65.5 -45t80.5 -16.5h293q41 0 77.5 16.5t63.5 45t43 66t16 78.5v100h76v-98q0 -59 -22.5 -110.5t-61.5 -90.5q-28 -28 -59 -45q17 -10 31 -21t28 -24z" />
<glyph unicode="Y" horiz-adv-x="1017" d="M491 0v220h-106q-60 0 -111.5 22.5t-89.5 60.5q-39 39 -61.5 90.5t-22.5 110.5v189h76v-189q0 -42 16.5 -80t44.5 -66.5t65.5 -45t80.5 -16.5h285q42 0 80 16.5t66.5 44.5t45 65.5t16.5 79.5v191h76v-189q0 -59 -22.5 -110.5t-61.5 -90.5q-38 -38 -89.5 -60.5 t-110.5 -22.5h-101v-220h-76z" />
<glyph unicode="Z" horiz-adv-x="1049" d="M218 0q-32 0 -56 13t-40.5 33.5t-24.5 46t-8 50.5q0 36 12.5 58.5t28.5 36.5q18 15 41 23l686 239q1 1 9 4t16 9t15 16.5t7 26.5q0 4 -1.5 14t-6.5 20.5t-16.5 18.5t-30.5 8h-753v76h760q42 0 66.5 -19.5t37 -44t16.5 -46.5t4 -27q0 -35 -10.5 -57t-22.5 -35 q-14 -15 -32 -23l-717 -251q-20 -9 -27 -23t-7 -28q0 -23 14.5 -42t40.5 -21h754v-76h-755z" />
<glyph unicode="[" horiz-adv-x="411" d="M101 -75v843h196v-76h-120v-691h130v-76h-206z" />
<glyph unicode="\" horiz-adv-x="578" d="M528 -50h-66l-412 800h66z" />
<glyph unicode="]" horiz-adv-x="442" d="M101 -75v76h130v691h-131v76h207v-843h-206z" />
<glyph unicode="^" horiz-adv-x="652" d="M364 700l248 -461h-68l-218 411l-218 -411h-68l248 461h76z" />
<glyph unicode="_" horiz-adv-x="1000" d="M0 -70h1000v-60h-1000v60z" />
<glyph unicode="`" horiz-adv-x="521" d="M214 958l190 -189l-54 -54l-190 189z" />
<glyph unicode="a" horiz-adv-x="1083" d="M322 0q-68 0 -123 34.5t-81 93.5q-18 39 -18 83q0 45 17.5 83.5t47.5 67t69.5 45t83.5 16.5h596v47q0 30 -12 57t-32.5 46.5t-47 31.5t-56.5 12h-503v76h503q46 0 87 -17.5t71 -48t48 -71t18 -86.5v-471zM240 323q-30 -19 -47 -48t-17 -64q0 -29 11.5 -53.5t31 -42.5 t45 -28.5t54.5 -10.5h596v271h-592q-23 0 -44 -6.5t-38 -17.5z" />
<glyph unicode="b" horiz-adv-x="1105" d="M924 358q38 -27 61.5 -69t23.5 -90q0 -42 -17 -78t-46 -63t-67 -42.5t-80 -15.5h-699v693h696q30 0 59.5 -7t55 -21.5t46.5 -35t34 -47.5q18 -36 18 -74t-16.5 -74t-47.5 -61zM176 398h624q23 0 47 7.5t43 22t31 34.5t12 45q0 26 -12 46.5t-31.5 34.5t-44 21.5t-49.5 7.5 h-620v-219zM923 152q10 21 10 46t-10.5 47t-28.5 39t-42 27t-51 10h-625v-245h625q38 0 72.5 21t49.5 55z" />
<glyph unicode="c" horiz-adv-x="1034" d="M184 83q-39 39 -61.5 90.5t-22.5 110.5v125q0 58 22.5 110t61 90.5t90.5 61t111 22.5h584v-76h-584q-43 0 -81 -16.5t-66.5 -45t-45 -66t-16.5 -80.5v-125q0 -42 16.5 -80t44.5 -66.5t65.5 -45t80.5 -16.5h586v-76h-584q-59 0 -111 22.5t-90 60.5z" />
<glyph unicode="d" horiz-adv-x="1047" d="M100 693h619q59 0 110.5 -22.5t90 -61.5t61 -90.5t22.5 -109.5v-125q0 -59 -22.5 -110.5t-61.5 -90t-90.5 -61t-109.5 -22.5h-619v693zM927 411q0 42 -16.5 79.5t-45 65.5t-66.5 44.5t-80 16.5h-543v-541h545q42 0 79.5 16.5t65.5 45t44.5 66t16.5 80.5v127z" />
<glyph unicode="e" horiz-adv-x="1088" d="M101 483q0 44 18.5 82.5t49 66.5t70.5 44t85 16h468q44 0 83.5 -16.5t69.5 -45.5t48 -67.5t18 -82.5q0 -45 -18 -83.5t-49 -67t-71 -45t-85 -16.5h-611v-95q4 -26 17.5 -44t33.5 -30t45 -17.5t51 -5.5h634v-76h-639q-38 0 -76.5 12t-69.5 34t-51 54t-21 73v310zM324 616 q-22 0 -48 -10t-48 -27.5t-36.5 -42t-14.5 -53.5v-139h615q28 0 54 10.5t46 29t31.5 43t11.5 53.5t-12 54t-32.5 43t-47 28.5t-55.5 10.5h-464z" />
<glyph unicode="f" horiz-adv-x="1033" d="M237 555q-29 -28 -45 -65.5t-16 -81.5v-27h747v-76h-747v-305h-76v408q0 60 22.5 111.5t60.5 89.5q39 39 90.5 61.5t110.5 22.5h584v-76h-584q-43 0 -80.5 -16.5t-66.5 -45.5z" />
<glyph unicode="g" horiz-adv-x="1062" d="M184 83q-39 39 -61.5 90.5t-22.5 110.5v125q0 58 22.5 110t61 90.5t90.5 61t111 22.5h584v-76h-584q-43 0 -81 -16.5t-66.5 -44.5t-45 -65.5t-16.5 -80.5v-126q0 -42 16.5 -80t44.5 -66.5t65.5 -45t80.5 -16.5h510v221h-447v76h523v-373h-584q-59 0 -111 22.5t-90 60.5z " />
<glyph unicode="h" horiz-adv-x="1017" d="M868 609q39 -38 61.5 -90t22.5 -111v-408h-76v408q0 43 -16.5 81t-45 66.5t-66.5 45t-81 16.5h-283q-43 0 -80.5 -16.5t-66 -45t-45 -66.5t-16.5 -81v-408h-76v859h76v-258q2 2 3.5 4t3.5 4q39 39 90.5 61.5t110.5 22.5h283q59 0 111 -22.5t90 -61.5z" />
<glyph unicode="i" horiz-adv-x="265" d="M100 0v693h76v-693h-76z" />
<glyph unicode="j" horiz-adv-x="1060" d="M224 693h728v-409q0 -59 -22.5 -110.5t-61.5 -90.5q-38 -38 -89.5 -60.5t-110.5 -22.5h-283q-60 0 -111.5 22.5t-89.5 60.5q-39 39 -61.5 90.5t-22.5 110.5v59h76v-59q0 -42 16.5 -80t44.5 -66.5t65.5 -45t80.5 -16.5h285q42 0 80 16.5t66.5 44.5t45 65.5t16.5 79.5v335 h-652v76z" />
<glyph unicode="k" horiz-adv-x="1087" d="M739 384q52 -8 96 -33t76 -62.5t50.5 -85t18.5 -100.5v-103h-76v105q0 42 -16.5 79.5t-45 65.5t-66.5 44.5t-80 16.5h-520v-311h-76v701h76v-313h465l266 314h105l-273 -318v0z" />
<glyph unicode="l" horiz-adv-x="969" d="M176 693v-408q0 -44 16 -81.5t45 -65.5q29 -29 66.5 -45.5t80.5 -16.5h584v-76h-584q-59 0 -110.5 22.5t-90.5 61.5q-38 38 -60.5 89.5t-22.5 111.5v408h76z" />
<glyph unicode="m" horiz-adv-x="1508" d="M1159 693q58 0 110 -22.5t90.5 -61t61 -90.5t22.5 -111v-408h-76v408q0 42 -16.5 80t-44.5 66.5t-65.5 45.5t-79.5 17h-384v-617h-76v617h-525v-617h-76v693h1059v0z" />
<glyph unicode="n" horiz-adv-x="1017" d="M668 693q58 0 110 -22.5t90.5 -61t61 -90.5t22.5 -111v-408h-76v408q0 42 -16.5 80t-44.5 66.5t-65.5 45.5t-79.5 17h-494v-617h-76v693h568z" />
<glyph unicode="o" horiz-adv-x="1248" d="M384 0q-59 0 -110.5 22.5t-90 61t-61 90t-22.5 110.5v125q0 58 22.5 110t61 90.5t90 61t110.5 22.5h514q59 0 111 -22.5t90.5 -61t61 -90.5t22.5 -110v-125q0 -59 -22.5 -110.5t-61 -90t-90.5 -61t-111 -22.5h-514zM176 409v-125q0 -43 16.5 -80.5t45 -66t66 -45 t80.5 -16.5h514q43 0 81 16.5t66.5 45t45 66t16.5 80.5v125q0 43 -16.5 80.5t-45 66t-66.5 45t-81 16.5h-514q-43 0 -80.5 -16.5t-66 -45t-45 -66t-16.5 -80.5z" />
<glyph unicode="p" horiz-adv-x="1111" d="M177 0h-77v693h728q43 0 82.5 -17t69.5 -46t48 -67.5t18 -81.5q0 -44 -18.5 -83t-49 -67.5t-71 -45t-84.5 -16.5h-646v-269zM825 345q29 0 55 10.5t45.5 29t31.5 43.5t13 53q-1 28 -13 53t-32 43.5t-46.5 29t-55.5 10.5h-646v-272h648z" />
<glyph unicode="q" horiz-adv-x="1248" d="M600 -150v150h-216q-59 0 -110.5 22.5t-90 61t-61 90t-22.5 110.5v127q0 58 22.5 110t61 90.5t90 61t110.5 22.5h514q59 0 111 -22.5t90.5 -61t61 -90.5t22.5 -110v-127q0 -59 -22.5 -110.5t-61 -90t-90.5 -61t-111 -22.5h-222v-150h-76zM176 411v-127q0 -43 16.5 -80.5 t45 -66t66 -45t80.5 -16.5h216v137h76v-137h222q43 0 81 16.5t66.5 45t45 66t16.5 80.5v127q0 43 -16.5 80.5t-45 66t-66.5 45t-81 16.5h-514q-43 0 -80.5 -16.5t-66 -45t-45 -66t-16.5 -80.5z" />
<glyph unicode="r" horiz-adv-x="890" d="M100 0v409q0 58 22.5 110t61 90.5t90 61t110.5 22.5h514v-76h-514q-43 0 -80.5 -16.5t-66 -45t-45 -66t-16.5 -80.5v-409h-76z" />
<glyph unicode="s" horiz-adv-x="1018" d="M761 0h-661v76h661q24 0 45 9t37 25t25 37t9 45t-9 45.5t-24.5 37.5t-37 25t-45.5 9h-507q-39 0 -74 15t-61.5 41t-41.5 61t-15 75t15 75.5t41 61.5t61 41.5t75 15.5h661v-76h-661q-25 0 -45.5 -9.5t-36 -25t-24.5 -36.5t-10 -45q4 -50 36 -84t80 -34h507q40 0 75 -15 t61 -41t41 -61t15 -75t-15 -75t-41 -61.5t-61 -41.5t-75 -15z" />
<glyph unicode="t" horiz-adv-x="1043" d="M838 520h-662v-235q0 -44 16 -81.5t45 -65.5q29 -29 66.5 -45.5t80.5 -16.5h584v-76h-584q-59 0 -110.5 22.5t-90.5 61.5q-38 38 -60.5 89.5t-22.5 111.5v408h76v-97h662v-76z" />
<glyph unicode="u" horiz-adv-x="1031" d="M384 0q-59 0 -110.5 22.5t-90 61t-61 90.5t-22.5 111v408h76v-408q0 -42 16.5 -80t44.5 -66.5t65.5 -45.5t79.5 -17h494v617h76v-693h-568z" />
<glyph unicode="v" horiz-adv-x="1172" d="M561 0h-23l-524 693h95l450 -596l455 596h96l-530 -693h-19z" />
<glyph unicode="w" horiz-adv-x="1508" d="M384 0q-59 0 -110.5 22.5t-90 61t-61 90.5t-22.5 111v408h76v-408q0 -42 16.5 -80t44.5 -66.5t65.5 -45.5t79.5 -17h384v617h76v-617h525v617h76v-693h-1059v0z" />
<glyph unicode="x" horiz-adv-x="1017" d="M868 304q39 -39 61.5 -90.5t22.5 -110.5v-103h-76v103q0 42 -16.5 80t-44.5 66.5t-65.5 45t-80.5 16.5h-285q-42 0 -80 -16.5t-66.5 -44.5t-45 -65.5t-16.5 -79.5v-105h-76v103q0 59 22.5 110.5t61.5 90.5q13 13 27.5 24t30.5 21q-34 19 -58 45q-39 39 -61.5 90.5 t-22.5 110.5v98h76v-98q0 -42 16.5 -80t44.5 -66.5t65.5 -45t80.5 -16.5h293q41 0 77.5 16.5t63.5 45t43 66t16 78.5v100h76v-98q0 -59 -22.5 -110.5t-61.5 -90.5q-28 -28 -59 -45q17 -10 31 -21t28 -24z" />
<glyph unicode="y" horiz-adv-x="1017" d="M952 693v-409q0 -59 -22.5 -110.5t-61 -90t-90 -61t-110.5 -22.5h-514v76h514q43 0 80.5 16.5t66 45t45 66t16.5 80.5v16h-492q-59 0 -110.5 22.5t-90 61t-61 90.5t-22.5 111v108h76v-108q0 -42 16.5 -80t44.5 -66.5t65.5 -45.5t79.5 -17h494v317h76z" />
<glyph unicode="z" horiz-adv-x="1131" d="M101 0v77l821 540h-819v76h966v-71l-831 -546h817v-76h-954z" />
<glyph unicode="{" horiz-adv-x="626" d="M306 153q0 -42 4 -69t17.5 -43t39 -22.5t67.5 -6.5h92v-62h-108q-53 0 -87.5 11.5t-54.5 35t-27.5 59.5t-7.5 86v103q0 42 -20 64.5t-77 22.5h-99v58h99q57 0 77 22.5t20 64.5v81q0 50 7.5 86t27.5 59.5t54.5 35t87.5 11.5h108v-62h-92q-42 0 -67.5 -6.5t-39 -22.5 t-17.5 -43t-4 -69v-76q0 -57 -24.5 -81t-76.5 -28v-2q52 -4 76.5 -28t24.5 -81v-98z" />
<glyph unicode="|" horiz-adv-x="425" d="M180 750h65v-800h-65v800z" />
<glyph unicode="}" horiz-adv-x="626" d="M320 251q0 57 24.5 81t76.5 28v2q-52 4 -76.5 28t-24.5 81v76q0 42 -4 69t-17.5 43t-39 22.5t-67.5 6.5h-92v62h108q53 0 87.5 -11.5t54.5 -35t27.5 -59.5t7.5 -86v-81q0 -40 18 -62.5t68 -24.5h110v-58h-99q-57 0 -77 -22.5t-20 -64.5v-103q0 -50 -7.5 -86t-27.5 -59.5 t-54.5 -35t-87.5 -11.5h-108v62h92q42 0 67.5 6.5t39 22.5t17.5 43t4 69v98z" />
<glyph unicode="~" horiz-adv-x="705" d="M581 467q-46 0 -93 25l-234 119q-27 14 -48 14q-9 0 -19 -7t-10 -36v-98h-77v91q0 59 29 90q28 28 72 28q43 0 93 -25l234 -119q30 -15 48 -15q4 0 9.5 1.5t9.5 6t7 13t3 22.5v99h77v-92q0 -58 -29 -89q-27 -28 -72 -28z" />
<glyph unicode="&#xa1;" horiz-adv-x="389" d="M160 0v490h69v-490h-69zM160 576v124h69v-124h-69z" />
<glyph unicode="&#xa3;" horiz-adv-x="1126" d="M1023 76v-76h-900v76q37 0 59.5 6t34.5 22t16.5 42t4.5 67h-97v76h97v44h-97v76h97v5q0 58 22.5 110t61 90.5t90 61t110.5 22.5h476v-76h-476q-43 0 -80.5 -16.5t-66 -45t-45 -66t-16.5 -80.5v-5h537v-76h-537v-44h537v-76h-537q-1 -45 -6 -79t-16 -58h731z" />
<glyph unicode="&#xa8;" horiz-adv-x="593" d="M101 790v90h86v-90h-86zM391 790v90h86v-90h-86z" />
<glyph unicode="&#xa9;" horiz-adv-x="1220" />
<glyph unicode="&#xab;" horiz-adv-x="0" />
<glyph unicode="&#xad;" horiz-adv-x="675" d="M80 386h515v-60h-515v60z" />
<glyph unicode="&#xae;" horiz-adv-x="0" />
<glyph unicode="&#xaf;" horiz-adv-x="658" d="M100 837h463v-76h-463v76z" />
<glyph unicode="&#x2c9;" horiz-adv-x="658" d="M100 837h463v-76h-463v76z" />
<glyph unicode="&#xb2;" horiz-adv-x="591" />
<glyph unicode="&#xb3;" horiz-adv-x="591" />
<glyph unicode="&#xb4;" horiz-adv-x="521" d="M411 904l-190 -189l-54 54l190 189z" />
<glyph unicode="&#xb7;" horiz-adv-x="292" d="M100 291v89h92v-89h-92z" />
<glyph unicode="&#x2219;" horiz-adv-x="292" d="M100 291v89h92v-89h-92z" />
<glyph unicode="&#xb8;" horiz-adv-x="477" d="M214 -240h-98v71h102q26 0 43 20t17 45v104h72v-104q0 -26 -10.5 -50.5t-29 -43.5t-43.5 -30.5t-53 -11.5z" />
<glyph unicode="&#xbb;" horiz-adv-x="0" />
<glyph unicode="&#xbc;" horiz-adv-x="1108" />
<glyph unicode="&#xbd;" horiz-adv-x="1120" />
<glyph unicode="&#xbe;" horiz-adv-x="1268" />
<glyph unicode="&#xbf;" horiz-adv-x="1035" d="M886 222q0 15 -7.5 23.5t-15.5 13.5q-11 5 -23 7h-283q-6 0 -20.5 1t-32 6t-36.5 15t-34.5 27t-25.5 43.5t-10 63.5v98h76v-98q0 -5 1.5 -18t9.5 -27t24.5 -24.5t46.5 -10.5h289q32 -3 58 -15q22 -11 40.5 -34t18.5 -64v-79q0 -36 -10.5 -61t-27 -42t-36 -26t-37.5 -14 t-32.5 -6t-20.5 -1h-540q-13 0 -39 3.5t-52.5 18.5t-46.5 45t-20 83v89h76v-89q0 -5 2 -17.5t10.5 -25t26 -22t49.5 -9.5h534q31 0 49 9.5t26.5 22t10.5 24t2 16.5v74zM475 693v-113h-76v113h76z" />
<glyph unicode="&#xc0;" horiz-adv-x="1072" d="M923 610q38 -39 60.5 -90.5t22.5 -110.5v-409h-76v318h-754v-318h-76v409q0 59 22.5 110.5t61.5 90t90.5 61t109.5 22.5h338q59 0 110.5 -22.5t90.5 -60.5zM930 394v17q0 42 -16.5 79.5t-45 65.5t-66.5 44.5t-80 16.5h-340q-42 0 -79.5 -16.5t-65.5 -45t-44.5 -66 t-16.5 -80.5v-15h754zM460 960l190 -189l-54 -54l-190 189z" />
<glyph unicode="&#xc1;" horiz-adv-x="1072" d="M923 610q38 -39 60.5 -90.5t22.5 -110.5v-409h-76v318h-754v-318h-76v409q0 59 22.5 110.5t61.5 90t90.5 61t109.5 22.5h338q59 0 110.5 -22.5t90.5 -60.5zM930 394v17q0 42 -16.5 79.5t-45 65.5t-66.5 44.5t-80 16.5h-340q-42 0 -79.5 -16.5t-65.5 -45t-44.5 -66 t-16.5 -80.5v-15h754zM677 906l-190 -189l-54 54l190 189z" />
<glyph unicode="&#xc2;" horiz-adv-x="1072" d="M923 610q38 -39 60.5 -90.5t22.5 -110.5v-409h-76v318h-754v-318h-76v409q0 59 22.5 110.5t61.5 90t90.5 61t109.5 22.5h338q59 0 110.5 -22.5t90.5 -60.5zM930 394v17q0 42 -16.5 79.5t-45 65.5t-66.5 44.5t-80 16.5h-340q-42 0 -79.5 -16.5t-65.5 -45t-44.5 -66 t-16.5 -80.5v-15h754zM548 853l-284 -135l-33 69l317 150l317 -150l-33 -69z" />
<glyph unicode="&#xc3;" horiz-adv-x="1072" d="M923 610q38 -39 60.5 -90.5t22.5 -110.5v-409h-76v318h-754v-318h-76v409q0 59 22.5 110.5t61.5 90t90.5 61t109.5 22.5h338q59 0 110.5 -22.5t90.5 -60.5zM930 394v17q0 42 -16.5 79.5t-45 65.5t-66.5 44.5t-80 16.5h-340q-42 0 -79.5 -16.5t-65.5 -45t-44.5 -66 t-16.5 -80.5v-15h754zM703 736q-20 0 -41 5.5t-43 17.5l-211 107q-13 7 -23.5 9.5t-19.5 2.5q-8 0 -17 -6t-9 -32v-89h-69v90q0 53 26 81q25 25 65 25t83 -23l211 -107q26 -13 43 -13q8 0 17 6t9 32v89h70v-90q0 -53 -27 -80q-24 -25 -64 -25z" />
<glyph unicode="&#xc4;" horiz-adv-x="1076" d="M370 790v90h86v-90h-86zM660 790v90h86v-90h-86zM923 610q38 -39 60.5 -90.5t22.5 -110.5v-409h-76v318h-754v-318h-76v409q0 59 22.5 110.5t61.5 90t90.5 61t109.5 22.5h338q59 0 110.5 -22.5t90.5 -60.5zM930 394v17q0 42 -16.5 79.5t-45 65.5t-66.5 44.5t-80 16.5 h-340q-42 0 -79.5 -16.5t-65.5 -45t-44.5 -66t-16.5 -80.5v-15h754z" />
<glyph unicode="&#xc5;" horiz-adv-x="1071" d="M576 711h-131q-47 0 -79 33q-15 15 -24 36t-9 44v11q0 24 9 44.5t24 36t35.5 24.5t43.5 9h131q23 0 43.5 -8.5t36 -24t24.5 -36.5t9 -45v-11q0 -23 -9 -43.5t-24.5 -36t-35.5 -24.5t-44 -9zM403 879q-18 -18 -18 -44v-11q0 -26 17.5 -43t42.5 -17h131q25 0 43 17t18 43 v11q0 26 -18 43.5t-43 17.5h-131q-25 0 -42 -17zM923 610q38 -39 60.5 -90.5t22.5 -110.5v-409h-76v318h-754v-318h-76v409q0 59 22.5 110.5t61.5 90t90.5 61t109.5 22.5h338q59 0 110.5 -22.5t90.5 -60.5zM930 394v17q0 42 -16.5 79.5t-45 65.5t-66.5 44.5t-80 16.5h-340 q-42 0 -79.5 -16.5t-65.5 -45t-44.5 -66t-16.5 -80.5v-15h754z" />
<glyph unicode="&#xc6;" horiz-adv-x="2133" d="M923 610q38 -39 60.5 -90.5t22.5 -110.5v-409h-76v318h-754v-318h-76v409q0 59 22.5 110.5t61.5 90t90.5 61t109.5 22.5h338q59 0 110.5 -22.5t90.5 -60.5zM930 394v17q0 42 -16.5 79.5t-45 65.5t-66.5 44.5t-80 16.5h-340q-42 0 -79.5 -16.5t-65.5 -45t-44.5 -66 t-16.5 -80.5v-15h754zM1308 556q-29 -29 -45 -66.5t-16 -80.5v-25h793v-76h-793v-26q0 -42 16.5 -79.5t45 -65.5t66.5 -44.5t80 -16.5h585v-76h-585q-59 0 -110.5 22.5t-90 61.5t-61 90.5t-22.5 109.5v125q0 59 22.5 110.5t61.5 90t90.5 61t109.5 22.5h585v-76h-585 q-43 0 -80.5 -16t-66.5 -45z" />
<glyph unicode="&#xc7;" horiz-adv-x="1143" d="M184 83q-39 39 -61.5 90.5t-22.5 110.5v125q0 58 22.5 110t61 90.5t90.5 61t111 22.5h584v-76h-584q-43 0 -81 -16.5t-66.5 -45t-45 -66t-16.5 -80.5v-125q0 -42 16.5 -80t44.5 -66.5t65.5 -45t80.5 -16.5h586v-76h-584q-59 0 -111 22.5t-90 60.5zM519 -238h-98v71h102 q26 0 43 20t17 45v104h72v-104q0 -26 -10.5 -50.5t-29 -43.5t-43.5 -30.5t-53 -11.5z" />
<glyph unicode="&#xc8;" horiz-adv-x="1057" d="M237 556q-29 -29 -45 -66.5t-16 -80.5v-25h793v-76h-793v-26q0 -42 16.5 -79.5t45 -65.5t66.5 -44.5t80 -16.5h585v-76h-585q-59 0 -110.5 22.5t-90 61.5t-61 90.5t-22.5 109.5v125q0 59 22.5 110.5t61.5 90t90.5 61t109.5 22.5h585v-76h-585q-43 0 -80.5 -16t-66.5 -45z M478 960l190 -189l-54 -54l-190 189z" />
<glyph unicode="&#xc9;" horiz-adv-x="1057" d="M237 556q-29 -29 -45 -66.5t-16 -80.5v-25h793v-76h-793v-26q0 -42 16.5 -79.5t45 -65.5t66.5 -44.5t80 -16.5h585v-76h-585q-59 0 -110.5 22.5t-90 61.5t-61 90.5t-22.5 109.5v125q0 59 22.5 110.5t61.5 90t90.5 61t109.5 22.5h585v-76h-585q-43 0 -80.5 -16t-66.5 -45z M729 906l-190 -189l-54 54l190 189z" />
<glyph unicode="&#xca;" horiz-adv-x="1057" d="M237 556q-29 -29 -45 -66.5t-16 -80.5v-25h793v-76h-793v-26q0 -42 16.5 -79.5t45 -65.5t66.5 -44.5t80 -16.5h585v-76h-585q-59 0 -110.5 22.5t-90 61.5t-61 90.5t-22.5 109.5v125q0 59 22.5 110.5t61.5 90t90.5 61t109.5 22.5h585v-76h-585q-43 0 -80.5 -16t-66.5 -45z M589 882l-284 -135l-33 69l317 150l317 -150l-33 -69z" />
<glyph unicode="&#xcb;" horiz-adv-x="1057" d="M237 556q-29 -29 -45 -66.5t-16 -80.5v-25h793v-76h-793v-26q0 -42 16.5 -79.5t45 -65.5t66.5 -44.5t80 -16.5h585v-76h-585q-59 0 -110.5 22.5t-90 61.5t-61 90.5t-22.5 109.5v125q0 59 22.5 110.5t61.5 90t90.5 61t109.5 22.5h585v-76h-585q-43 0 -80.5 -16t-66.5 -45z M417 809v90h86v-90h-86zM707 809v90h86v-90h-86z" />
<glyph unicode="&#xcc;" horiz-adv-x="241" d="M55 958l190 -189l-54 -54l-190 189zM100 0v693h76v-693h-76z" />
<glyph unicode="&#xcd;" horiz-adv-x="241" d="M242 904l-190 -189l-54 54l190 189zM100 0v693h76v-693h-76z" />
<glyph unicode="&#xce;" horiz-adv-x="241" d="M143 860l-284 -135l-33 69l317 150l317 -150l-33 -69zM100 0v693h76v-693h-76z" />
<glyph unicode="&#xcf;" horiz-adv-x="463" d="M199 0v700h65v-700h-65zM35 899h97v-89h-97v89zM331 899h97v-89h-97v89z" />
<glyph unicode="&#xd0;" horiz-adv-x="1233" d="M863 693q59 0 110.5 -22.5t90 -61.5t61 -90.5t22.5 -109.5v-125q0 -59 -22.5 -110.5t-61.5 -90t-90.5 -61t-109.5 -22.5h-619v309h-193v76h193v308h619zM1071 411q0 42 -16.5 79.5t-45 65.5t-66.5 44.5t-80 16.5h-543v-232h245v-76h-245v-233h545q42 0 79.5 16.5t65.5 45 t44.5 66t16.5 80.5v127z" />
<glyph unicode="&#xd1;" d="M811 6q-14 6 -23.5 13t-23.5 24l-477 562q-9 11 -21 15.5t-26 4.5q-23 0 -43 -14t-21 -40v-571h-76v578l1 3q2 28 15 50.5t32.5 38.5t44 24t49.5 8q29 0 56.5 -11.5t47.5 -37.5l477 -562q9 -11 21.5 -16t25.5 -5q23 0 42 14.5t21 40.5v570h77v-577q-3 -28 -16 -51 t-32.5 -39.5t-43.5 -25.5t-49 -9q-31 0 -58 13zM738 736q-20 0 -41 5.5t-43 17.5l-211 107q-13 7 -23.5 9.5t-19.5 2.5q-8 0 -17 -6t-9 -32v-89h-69v90q0 53 26 81q25 25 65 25t83 -23l211 -107q26 -13 43 -13q8 0 17 6t9 32v89h70v-90q0 -53 -27 -80q-24 -25 -64 -25z" />
<glyph unicode="&#xd2;" horiz-adv-x="1224" d="M384 0q-59 0 -110.5 22.5t-90 61t-61 90t-22.5 110.5v125q0 58 22.5 110t61 90.5t90 61t110.5 22.5h514q59 0 111 -22.5t90.5 -61t61 -90.5t22.5 -110v-125q0 -59 -22.5 -110.5t-61 -90t-90.5 -61t-111 -22.5h-514zM176 409v-125q0 -43 16.5 -80.5t45 -66t66 -45 t80.5 -16.5h514q43 0 81 16.5t66.5 45t45 66t16.5 80.5v125q0 43 -16.5 80.5t-45 66t-66.5 45t-81 16.5h-514q-43 0 -80.5 -16.5t-66 -45t-45 -66t-16.5 -80.5zM516 960l190 -189l-54 -54l-190 189z" />
<glyph unicode="&#xd3;" horiz-adv-x="1224" d="M384 0q-59 0 -110.5 22.5t-90 61t-61 90t-22.5 110.5v125q0 58 22.5 110t61 90.5t90 61t110.5 22.5h514q59 0 111 -22.5t90.5 -61t61 -90.5t22.5 -110v-125q0 -59 -22.5 -110.5t-61 -90t-90.5 -61t-111 -22.5h-514zM176 409v-125q0 -43 16.5 -80.5t45 -66t66 -45 t80.5 -16.5h514q43 0 81 16.5t66.5 45t45 66t16.5 80.5v125q0 43 -16.5 80.5t-45 66t-66.5 45t-81 16.5h-514q-43 0 -80.5 -16.5t-66 -45t-45 -66t-16.5 -80.5zM813 906l-190 -189l-54 54l190 189z" />
<glyph unicode="&#xd4;" horiz-adv-x="1224" d="M384 0q-59 0 -110.5 22.5t-90 61t-61 90t-22.5 110.5v125q0 58 22.5 110t61 90.5t90 61t110.5 22.5h514q59 0 111 -22.5t90.5 -61t61 -90.5t22.5 -110v-125q0 -59 -22.5 -110.5t-61 -90t-90.5 -61t-111 -22.5h-514zM176 409v-125q0 -43 16.5 -80.5t45 -66t66 -45 t80.5 -16.5h514q43 0 81 16.5t66.5 45t45 66t16.5 80.5v125q0 43 -16.5 80.5t-45 66t-66.5 45t-81 16.5h-514q-43 0 -80.5 -16.5t-66 -45t-45 -66t-16.5 -80.5zM624 882l-284 -135l-33 69l317 150l317 -150l-33 -69z" />
<glyph unicode="&#xd5;" horiz-adv-x="1224" d="M384 0q-59 0 -110.5 22.5t-90 61t-61 90t-22.5 110.5v125q0 58 22.5 110t61 90.5t90 61t110.5 22.5h514q59 0 111 -22.5t90.5 -61t61 -90.5t22.5 -110v-125q0 -59 -22.5 -110.5t-61 -90t-90.5 -61t-111 -22.5h-514zM176 409v-125q0 -43 16.5 -80.5t45 -66t66 -45 t80.5 -16.5h514q43 0 81 16.5t66.5 45t45 66t16.5 80.5v125q0 43 -16.5 80.5t-45 66t-66.5 45t-81 16.5h-514q-43 0 -80.5 -16.5t-66 -45t-45 -66t-16.5 -80.5zM779 736q-20 0 -41 5.5t-43 17.5l-211 107q-13 7 -23.5 9.5t-19.5 2.5q-8 0 -17 -6t-9 -32v-89h-69v90 q0 53 26 81q25 25 65 25t83 -23l211 -107q26 -13 43 -13q8 0 17 6t9 32v89h70v-90q0 -53 -27 -80q-24 -25 -64 -25z" />
<glyph unicode="&#xd6;" horiz-adv-x="1224" d="M384 0q-59 0 -110.5 22.5t-90 61t-61 90t-22.5 110.5v125q0 58 22.5 110t61 90.5t90 61t110.5 22.5h514q59 0 111 -22.5t90.5 -61t61 -90.5t22.5 -110v-125q0 -59 -22.5 -110.5t-61 -90t-90.5 -61t-111 -22.5h-514zM176 409v-125q0 -43 16.5 -80.5t45 -66t66 -45 t80.5 -16.5h514q43 0 81 16.5t66.5 45t45 66t16.5 80.5v125q0 43 -16.5 80.5t-45 66t-66.5 45t-81 16.5h-514q-43 0 -80.5 -16.5t-66 -45t-45 -66t-16.5 -80.5zM447 809v90h86v-90h-86zM737 809v90h86v-90h-86z" />
<glyph unicode="&#xd8;" horiz-adv-x="1264" d="M897 696q59 0 111 -22.5t90.5 -61t61 -90.5t22.5 -110v-127q0 -59 -22.5 -110.5t-61 -90t-90.5 -61t-111 -22.5h-514q-59 0 -110.5 22.5t-90 61t-61 90t-22.5 110.5v127q0 58 22.5 110t61 90.5t90 61t110.5 22.5h514zM175 285q0 -35 11.5 -67.5t31.5 -58.5l784 433 q-48 28 -105 28h-514q-43 0 -80.5 -16.5t-66 -45t-45 -66t-16.5 -80.5v-127zM1106 412q0 38 -13 72t-36 61l-787 -435q25 -16 53.5 -24.5t59.5 -8.5h514q43 0 81 16.5t66.5 45t45 66t16.5 80.5v127z" />
<glyph unicode="&#xd9;" horiz-adv-x="1029" d="M184 83q-39 39 -61.5 90.5t-22.5 110.5v409h76v-409q0 -42 16.5 -80t44.5 -66.5t65.5 -45t80.5 -16.5h285q42 0 80 16.5t66.5 44.5t45 65.5t16.5 79.5v411h76v-409q0 -59 -22.5 -110.5t-61.5 -90.5q-38 -38 -89.5 -60.5t-110.5 -22.5h-283q-60 0 -111.5 22.5t-89.5 60.5z M429 960l190 -189l-54 -54l-190 189z" />
<glyph unicode="&#xda;" horiz-adv-x="1062" d="M184 83q-39 39 -61.5 90.5t-22.5 110.5v409h76v-409q0 -42 16.5 -80t44.5 -66.5t65.5 -45t80.5 -16.5h285q42 0 80 16.5t66.5 44.5t45 65.5t16.5 79.5v411h76v-409q0 -59 -22.5 -110.5t-61.5 -90.5q-38 -38 -89.5 -60.5t-110.5 -22.5h-283q-60 0 -111.5 22.5t-89.5 60.5z M655 882l-190 -189l-54 54l190 189z" />
<glyph unicode="&#xdb;" horiz-adv-x="1084" d="M184 83q-39 39 -61.5 90.5t-22.5 110.5v409h76v-409q0 -42 16.5 -80t44.5 -66.5t65.5 -45t80.5 -16.5h285q42 0 80 16.5t66.5 44.5t45 65.5t16.5 79.5v411h76v-409q0 -59 -22.5 -110.5t-61.5 -90.5q-38 -38 -89.5 -60.5t-110.5 -22.5h-283q-60 0 -111.5 22.5t-89.5 60.5z M532 882l-284 -135l-33 69l317 150l317 -150l-33 -69z" />
<glyph unicode="&#xdc;" horiz-adv-x="1101" d="M184 83q-39 39 -61.5 90.5t-22.5 110.5v409h76v-409q0 -42 16.5 -80t44.5 -66.5t65.5 -45t80.5 -16.5h285q42 0 80 16.5t66.5 44.5t45 65.5t16.5 79.5v411h76v-409q0 -59 -22.5 -110.5t-61.5 -90.5q-38 -38 -89.5 -60.5t-110.5 -22.5h-283q-60 0 -111.5 22.5t-89.5 60.5z M338 611v90h86v-90h-86zM628 611v90h86v-90h-86z" />
<glyph unicode="&#xdd;" horiz-adv-x="1086" d="M491 0v220h-106q-60 0 -111.5 22.5t-89.5 60.5q-39 39 -61.5 90.5t-22.5 110.5v189h76v-189q0 -42 16.5 -80t44.5 -66.5t65.5 -45t80.5 -16.5h285q42 0 80 16.5t66.5 44.5t45 65.5t16.5 79.5v191h76v-189q0 -59 -22.5 -110.5t-61.5 -90.5q-38 -38 -89.5 -60.5 t-110.5 -22.5h-101v-220h-76zM653 881l-190 -189l-54 54l190 189z" />
<glyph unicode="&#xde;" horiz-adv-x="1135" />
<glyph unicode="&#xdf;" horiz-adv-x="2188" />
<glyph unicode="&#xe0;" horiz-adv-x="1160" d="M474 960l190 -189l-54 -54l-190 189zM322 0q-68 0 -123 34.5t-81 93.5q-18 39 -18 83q0 45 17.5 83.5t47.5 67t69.5 45t83.5 16.5h596v47q0 30 -12 57t-32.5 46.5t-47 31.5t-56.5 12h-503v76h503q46 0 87 -17.5t71 -48t48 -71t18 -86.5v-471zM240 323q-30 -19 -47 -48 t-17 -64q0 -29 11.5 -53.5t31 -42.5t45 -28.5t54.5 -10.5h596v271h-592q-23 0 -44 -6.5t-38 -17.5z" />
<glyph unicode="&#xe1;" horiz-adv-x="1160" d="M771 906l-190 -189l-54 54l190 189zM322 0q-68 0 -123 34.5t-81 93.5q-18 39 -18 83q0 45 17.5 83.5t47.5 67t69.5 45t83.5 16.5h596v47q0 30 -12 57t-32.5 46.5t-47 31.5t-56.5 12h-503v76h503q46 0 87 -17.5t71 -48t48 -71t18 -86.5v-471zM240 323q-30 -19 -47 -48 t-17 -64q0 -29 11.5 -53.5t31 -42.5t45 -28.5t54.5 -10.5h596v271h-592q-23 0 -44 -6.5t-38 -17.5z" />
<glyph unicode="&#xe2;" horiz-adv-x="1160" d="M582 882l-284 -135l-33 69l317 150l317 -150l-33 -69zM322 0q-68 0 -123 34.5t-81 93.5q-18 39 -18 83q0 45 17.5 83.5t47.5 67t69.5 45t83.5 16.5h596v47q0 30 -12 57t-32.5 46.5t-47 31.5t-56.5 12h-503v76h503q46 0 87 -17.5t71 -48t48 -71t18 -86.5v-471zM240 323 q-30 -19 -47 -48t-17 -64q0 -29 11.5 -53.5t31 -42.5t45 -28.5t54.5 -10.5h596v271h-592q-23 0 -44 -6.5t-38 -17.5z" />
<glyph unicode="&#xe3;" horiz-adv-x="1160" d="M737 736q-20 0 -41 5.5t-43 17.5l-211 107q-13 7 -23.5 9.5t-19.5 2.5q-8 0 -17 -6t-9 -32v-89h-69v90q0 53 26 81q25 25 65 25t83 -23l211 -107q26 -13 43 -13q8 0 17 6t9 32v89h70v-90q0 -53 -27 -80q-24 -25 -64 -25zM322 0q-68 0 -123 34.5t-81 93.5q-18 39 -18 83 q0 45 17.5 83.5t47.5 67t69.5 45t83.5 16.5h596v47q0 30 -12 57t-32.5 46.5t-47 31.5t-56.5 12h-503v76h503q46 0 87 -17.5t71 -48t48 -71t18 -86.5v-471zM240 323q-30 -19 -47 -48t-17 -64q0 -29 11.5 -53.5t31 -42.5t45 -28.5t54.5 -10.5h596v271h-592q-23 0 -44 -6.5 t-38 -17.5z" />
<glyph unicode="&#xe4;" horiz-adv-x="1160" d="M385 777v90h86v-90h-86zM675 777v90h86v-90h-86zM322 0q-68 0 -123 34.5t-81 93.5q-18 39 -18 83q0 45 17.5 83.5t47.5 67t69.5 45t83.5 16.5h596v47q0 30 -12 57t-32.5 46.5t-47 31.5t-56.5 12h-503v76h503q46 0 87 -17.5t71 -48t48 -71t18 -86.5v-471zM240 323 q-30 -19 -47 -48t-17 -64q0 -29 11.5 -53.5t31 -42.5t45 -28.5t54.5 -10.5h596v271h-592q-23 0 -44 -6.5t-38 -17.5z" />
<glyph unicode="&#xe5;" horiz-adv-x="1160" d="M656 755h-148q-53 0 -90 37q-17 17 -27 40.5t-10 49.5v13q0 27 10 50t27 40.5t40.5 28t49.5 10.5h148q26 0 49.5 -10t41 -27.5t27.5 -41t10 -50.5v-13q0 -26 -10 -49t-27.5 -40.5t-40.5 -27.5t-50 -10zM460 944q-20 -20 -20 -49v-13q0 -29 19.5 -48.5t48.5 -19.5h148 q28 0 48.5 19.5t20.5 48.5v13q0 29 -20.5 49t-48.5 20h-148q-28 0 -48 -20zM322 0q-68 0 -123 34.5t-81 93.5q-18 39 -18 83q0 45 17.5 83.5t47.5 67t69.5 45t83.5 16.5h596v47q0 30 -12 57t-32.5 46.5t-47 31.5t-56.5 12h-503v76h503q46 0 87 -17.5t71 -48t48 -71t18 -86.5 v-471zM240 323q-30 -19 -47 -48t-17 -64q0 -29 11.5 -53.5t31 -42.5t45 -28.5t54.5 -10.5h596v271h-592q-23 0 -44 -6.5t-38 -17.5z" />
<glyph unicode="&#xe6;" horiz-adv-x="1886" d="M980 172q4 -26 17.5 -44t33.5 -30t45 -17.5t51 -5.5h634v-76h-639q-38 0 -74.5 11t-67.5 32v-42h-668q-68 0 -123 34.5t-81 93.5q-18 39 -18 83q0 45 17.5 83.5t47.5 67t69.5 45t83.5 16.5h596v47q0 30 -12 57t-32.5 47t-47 31.5t-56.5 11.5h-503v76h503q58 0 106 -26.5 t78 -70.5q31 44 80.5 69.5t106.5 25.5h468q44 0 83.5 -16.5t69.5 -45.5t48 -67.5t18 -82.5q0 -45 -18 -83.5t-49 -67t-71 -45t-85 -16.5h-611v-95zM980 343h615q28 0 54 10.5t46 29t31.5 43t11.5 53.5t-12 54t-32.5 43t-47 28.5t-55.5 10.5h-464q-22 0 -48 -10t-48 -27.5 t-36.5 -42t-14.5 -53.5v-139zM904 347h-592q-23 0 -44 -6.5t-38 -17.5q-30 -19 -47 -48t-17 -64q0 -29 11.5 -53.5t31 -42.5t45 -28.5t54.5 -10.5h596v271z" />
<glyph unicode="&#xe7;" horiz-adv-x="1143" d="M184 83q-39 39 -61.5 90.5t-22.5 110.5v125q0 58 22.5 110t61 90.5t90.5 61t111 22.5h584v-76h-584q-43 0 -81 -16.5t-66.5 -45t-45 -66t-16.5 -80.5v-125q0 -42 16.5 -80t44.5 -66.5t65.5 -45t80.5 -16.5h586v-76h-584q-59 0 -111 22.5t-90 60.5zM519 -240h-98v71h102 q26 0 43 20t17 45v104h72v-104q0 -26 -10.5 -50.5t-29 -43.5t-43.5 -30.5t-53 -11.5z" />
<glyph unicode="&#xe8;" horiz-adv-x="1152" d="M101 483q0 44 18.5 82.5t49 66.5t70.5 44t85 16h468q44 0 83.5 -16.5t69.5 -45.5t48 -67.5t18 -82.5q0 -45 -18 -83.5t-49 -67t-71 -45t-85 -16.5h-611v-95q4 -26 17.5 -44t33.5 -30t45 -17.5t51 -5.5h634v-76h-639q-38 0 -76.5 12t-69.5 34t-51 54t-21 73v310zM324 616 q-22 0 -48 -10t-48 -27.5t-36.5 -42t-14.5 -53.5v-139h615q28 0 54 10.5t46 29t31.5 43t11.5 53.5t-12 54t-32.5 43t-47 28.5t-55.5 10.5h-464zM485 960l190 -189l-54 -54l-190 189z" />
<glyph unicode="&#xe9;" horiz-adv-x="1064" d="M661 904l-190 -189l-54 54l190 189zM101 483q0 44 18.5 82.5t49 66.5t70.5 44t85 16h468q44 0 83.5 -16.5t69.5 -45.5t48 -67.5t18 -82.5q0 -45 -18 -83.5t-49 -67t-71 -45t-85 -16.5h-611v-95q4 -26 17.5 -44t33.5 -30t45 -17.5t51 -5.5h634v-76h-639q-38 0 -76.5 12 t-69.5 34t-51 54t-21 73v310zM324 616q-22 0 -48 -10t-48 -27.5t-36.5 -42t-14.5 -53.5v-139h615q28 0 54 10.5t46 29t31.5 43t11.5 53.5t-12 54t-32.5 43t-47 28.5t-55.5 10.5h-464z" />
<glyph unicode="&#xea;" horiz-adv-x="1061" d="M593 882l-284 -135l-33 69l317 150l317 -150l-33 -69zM102 483q0 44 18.5 82.5t49 66.5t70.5 44t85 16h468q44 0 83.5 -16.5t69.5 -45.5t48 -67.5t18 -82.5q0 -45 -18 -83.5t-49 -67t-71 -45t-85 -16.5h-611v-95q4 -26 17.5 -44t33.5 -30t45 -17.5t51 -5.5h634v-76h-639 q-38 0 -76.5 12t-69.5 34t-51 54t-21 73v310zM325 616q-22 0 -48 -10t-48 -27.5t-36.5 -42t-14.5 -53.5v-139h615q28 0 54 10.5t46 29t31.5 43t11.5 53.5t-12 54t-32.5 43t-47 28.5t-55.5 10.5h-464z" />
<glyph unicode="&#xeb;" horiz-adv-x="1061" d="M348 807v90h86v-90h-86zM638 807v90h86v-90h-86zM102 483q0 44 18.5 82.5t49 66.5t70.5 44t85 16h468q44 0 83.5 -16.5t69.5 -45.5t48 -67.5t18 -82.5q0 -45 -18 -83.5t-49 -67t-71 -45t-85 -16.5h-611v-95q4 -26 17.5 -44t33.5 -30t45 -17.5t51 -5.5h634v-76h-639 q-38 0 -76.5 12t-69.5 34t-51 54t-21 73v310zM325 616q-22 0 -48 -10t-48 -27.5t-36.5 -42t-14.5 -53.5v-139h615q28 0 54 10.5t46 29t31.5 43t11.5 53.5t-12 54t-32.5 43t-47 28.5t-55.5 10.5h-464z" />
<glyph unicode="&#xec;" horiz-adv-x="265" d="M73 958l190 -189l-54 -54l-190 189zM100 0v693h76v-693h-76z" />
<glyph unicode="&#xed;" horiz-adv-x="265" d="M262 904l-190 -189l-54 54l190 189zM100 0v693h76v-693h-76z" />
<glyph unicode="&#xee;" horiz-adv-x="265" d="M137 880l-284 -135l-33 69l317 150l317 -150l-33 -69zM100 0v693h76v-693h-76z" />
<glyph unicode="&#xef;" horiz-adv-x="265" d="M-48 790v90h86v-90h-86zM242 790v90h86v-90h-86zM100 0v693h76v-693h-76z" />
<glyph unicode="&#xf0;" horiz-adv-x="1233" d="M863 693q59 0 110.5 -22.5t90 -61.5t61 -90.5t22.5 -109.5v-125q0 -59 -22.5 -110.5t-61.5 -90t-90.5 -61t-109.5 -22.5h-619v309h-193v76h193v308h619zM1071 411q0 42 -16.5 79.5t-45 65.5t-66.5 44.5t-80 16.5h-543v-232h245v-76h-245v-233h545q42 0 79.5 16.5t65.5 45 t44.5 66t16.5 80.5v127z" />
<glyph unicode="&#xf1;" d="M656 736q-20 0 -41 5.5t-43 17.5l-211 107q-13 7 -23.5 9.5t-19.5 2.5q-8 0 -17 -6t-9 -32v-89h-69v90q0 53 26 81q25 25 65 25t83 -23l211 -107q26 -13 43 -13q8 0 17 6t9 32v89h70v-90q0 -53 -27 -80q-24 -25 -64 -25zM668 693q58 0 110 -22.5t90.5 -61t61 -90.5 t22.5 -111v-408h-76v408q0 42 -16.5 80t-44.5 66.5t-65.5 45.5t-79.5 17h-494v-617h-76v693h568z" />
<glyph unicode="&#xf2;" horiz-adv-x="1224" d="M384 0q-59 0 -110.5 22.5t-90 61t-61 90t-22.5 110.5v125q0 58 22.5 110t61 90.5t90 61t110.5 22.5h514q59 0 111 -22.5t90.5 -61t61 -90.5t22.5 -110v-125q0 -59 -22.5 -110.5t-61 -90t-90.5 -61t-111 -22.5h-514zM176 409v-125q0 -43 16.5 -80.5t45 -66t66 -45 t80.5 -16.5h514q43 0 81 16.5t66.5 45t45 66t16.5 80.5v125q0 43 -16.5 80.5t-45 66t-66.5 45t-81 16.5h-514q-43 0 -80.5 -16.5t-66 -45t-45 -66t-16.5 -80.5zM516 960l190 -189l-54 -54l-190 189z" />
<glyph unicode="&#xf3;" horiz-adv-x="1224" d="M384 0q-59 0 -110.5 22.5t-90 61t-61 90t-22.5 110.5v125q0 58 22.5 110t61 90.5t90 61t110.5 22.5h514q59 0 111 -22.5t90.5 -61t61 -90.5t22.5 -110v-125q0 -59 -22.5 -110.5t-61 -90t-90.5 -61t-111 -22.5h-514zM176 409v-125q0 -43 16.5 -80.5t45 -66t66 -45 t80.5 -16.5h514q43 0 81 16.5t66.5 45t45 66t16.5 80.5v125q0 43 -16.5 80.5t-45 66t-66.5 45t-81 16.5h-514q-43 0 -80.5 -16.5t-66 -45t-45 -66t-16.5 -80.5zM813 906l-190 -189l-54 54l190 189z" />
<glyph unicode="&#xf4;" horiz-adv-x="1224" d="M384 0q-59 0 -110.5 22.5t-90 61t-61 90t-22.5 110.5v125q0 58 22.5 110t61 90.5t90 61t110.5 22.5h514q59 0 111 -22.5t90.5 -61t61 -90.5t22.5 -110v-125q0 -59 -22.5 -110.5t-61 -90t-90.5 -61t-111 -22.5h-514zM176 409v-125q0 -43 16.5 -80.5t45 -66t66 -45 t80.5 -16.5h514q43 0 81 16.5t66.5 45t45 66t16.5 80.5v125q0 43 -16.5 80.5t-45 66t-66.5 45t-81 16.5h-514q-43 0 -80.5 -16.5t-66 -45t-45 -66t-16.5 -80.5zM624 882l-284 -135l-33 69l317 150l317 -150l-33 -69z" />
<glyph unicode="&#xf5;" horiz-adv-x="1224" d="M384 0q-59 0 -110.5 22.5t-90 61t-61 90t-22.5 110.5v125q0 58 22.5 110t61 90.5t90 61t110.5 22.5h514q59 0 111 -22.5t90.5 -61t61 -90.5t22.5 -110v-125q0 -59 -22.5 -110.5t-61 -90t-90.5 -61t-111 -22.5h-514zM176 409v-125q0 -43 16.5 -80.5t45 -66t66 -45 t80.5 -16.5h514q43 0 81 16.5t66.5 45t45 66t16.5 80.5v125q0 43 -16.5 80.5t-45 66t-66.5 45t-81 16.5h-514q-43 0 -80.5 -16.5t-66 -45t-45 -66t-16.5 -80.5zM779 736q-20 0 -41 5.5t-43 17.5l-211 107q-13 7 -23.5 9.5t-19.5 2.5q-8 0 -17 -6t-9 -32v-89h-69v90 q0 53 26 81q25 25 65 25t83 -23l211 -107q26 -13 43 -13q8 0 17 6t9 32v89h70v-90q0 -53 -27 -80q-24 -25 -64 -25z" />
<glyph unicode="&#xf6;" horiz-adv-x="1287" d="M462 807v90h86v-90h-86zM752 807v90h86v-90h-86zM384 0q-59 0 -110.5 22.5t-90 61t-61 90t-22.5 110.5v125q0 58 22.5 110t61 90.5t90 61t110.5 22.5h514q59 0 111 -22.5t90.5 -61t61 -90.5t22.5 -110v-125q0 -59 -22.5 -110.5t-61 -90t-90.5 -61t-111 -22.5h-514z M176 409v-125q0 -43 16.5 -80.5t45 -66t66 -45t80.5 -16.5h514q43 0 81 16.5t66.5 45t45 66t16.5 80.5v125q0 43 -16.5 80.5t-45 66t-66.5 45t-81 16.5h-514q-43 0 -80.5 -16.5t-66 -45t-45 -66t-16.5 -80.5z" />
<glyph unicode="&#xf8;" horiz-adv-x="1264" d="M897 696q59 0 111 -22.5t90.5 -61t61 -90.5t22.5 -110v-127q0 -59 -22.5 -110.5t-61 -90t-90.5 -61t-111 -22.5h-514q-59 0 -110.5 22.5t-90 61t-61 90t-22.5 110.5v127q0 58 22.5 110t61 90.5t90 61t110.5 22.5h514zM175 285q0 -35 11.5 -67.5t31.5 -58.5l784 433 q-48 28 -105 28h-514q-43 0 -80.5 -16.5t-66 -45t-45 -66t-16.5 -80.5v-127zM1106 412q0 38 -13 72t-36 61l-787 -435q25 -16 53.5 -24.5t59.5 -8.5h514q43 0 81 16.5t66.5 45t45 66t16.5 80.5v127z" />
<glyph unicode="&#xf9;" d="M384 0q-59 0 -110.5 22.5t-90 61t-61 90.5t-22.5 111v408h76v-408q0 -42 16.5 -80t44.5 -66.5t65.5 -45.5t79.5 -17h494v617h76v-693h-568zM485 941l190 -189l-54 -54l-190 189z" />
<glyph unicode="&#xfa;" d="M782 887l-190 -189l-54 54l190 189zM384 0q-59 0 -110.5 22.5t-90 61t-61 90.5t-22.5 111v408h76v-408q0 -42 16.5 -80t44.5 -66.5t65.5 -45.5t79.5 -17h494v617h76v-693h-568z" />
<glyph unicode="&#xfb;" d="M593 863l-284 -135l-33 69l317 150l317 -150l-33 -69zM384 0q-59 0 -110.5 22.5t-90 61t-61 90.5t-22.5 111v408h76v-408q0 -42 16.5 -80t44.5 -66.5t65.5 -45.5t79.5 -17h494v617h76v-693h-568z" />
<glyph unicode="&#xfc;" d="M354 611v90h86v-90h-86zM644 611v90h86v-90h-86zM384 0q-59 0 -110.5 22.5t-90 61t-61 90.5t-22.5 111v408h76v-408q0 -42 16.5 -80t44.5 -66.5t65.5 -45.5t79.5 -17h494v617h76v-693h-568z" />
<glyph unicode="&#xfd;" horiz-adv-x="1182" d="M782 906l-190 -189l-54 54l190 189zM952 693v-409q0 -59 -22.5 -110.5t-61 -90t-90 -61t-110.5 -22.5h-514v76h514q43 0 80.5 16.5t66 45t45 66t16.5 80.5v16h-492q-59 0 -110.5 22.5t-90 61t-61 90.5t-22.5 111v108h76v-108q0 -42 16.5 -80t44.5 -66.5t65.5 -45.5 t79.5 -17h494v317h76z" />
<glyph unicode="&#xff;" horiz-adv-x="1182" d="M347 611v90h86v-90h-86zM637 611v90h86v-90h-86zM952 693v-409q0 -59 -22.5 -110.5t-61 -90t-90 -61t-110.5 -22.5h-514v76h514q43 0 80.5 16.5t66 45t45 66t16.5 80.5v16h-492q-59 0 -110.5 22.5t-90 61t-61 90.5t-22.5 111v108h76v-108q0 -42 16.5 -80t44.5 -66.5 t65.5 -45.5t79.5 -17h494v317h76z" />
<glyph unicode="&#x100;" horiz-adv-x="1072" d="M923 610q38 -39 60.5 -90.5t22.5 -110.5v-409h-76v318h-754v-318h-76v409q0 59 22.5 110.5t61.5 90t90.5 61t109.5 22.5h338q59 0 110.5 -22.5t90.5 -60.5zM930 394v17q0 42 -16.5 79.5t-45 65.5t-66.5 44.5t-80 16.5h-340q-42 0 -79.5 -16.5t-65.5 -45t-44.5 -66 t-16.5 -80.5v-15h754zM316 824h463v-76h-463v76z" />
<glyph unicode="&#x101;" horiz-adv-x="1160" d="M341 824h463v-76h-463v76zM322 0q-68 0 -123 34.5t-81 93.5q-18 39 -18 83q0 45 17.5 83.5t47.5 67t69.5 45t83.5 16.5h596v47q0 30 -12 57t-32.5 46.5t-47 31.5t-56.5 12h-503v76h503q46 0 87 -17.5t71 -48t48 -71t18 -86.5v-471zM240 323q-30 -19 -47 -48t-17 -64 q0 -29 11.5 -53.5t31 -42.5t45 -28.5t54.5 -10.5h596v271h-592q-23 0 -44 -6.5t-38 -17.5z" />
<glyph unicode="&#x102;" horiz-adv-x="1072" d="M923 610q38 -39 60.5 -90.5t22.5 -110.5v-409h-76v318h-754v-318h-76v409q0 59 22.5 110.5t61.5 90t90.5 61t109.5 22.5h338q59 0 110.5 -22.5t90.5 -60.5zM930 394v17q0 42 -16.5 79.5t-45 65.5t-66.5 44.5t-80 16.5h-340q-42 0 -79.5 -16.5t-65.5 -45t-44.5 -66 t-16.5 -80.5v-15h754zM412 863v-13q0 -29 19.5 -48.5t48.5 -19.5h168q28 0 48.5 19.5t20.5 48.5v13h59v-13q0 -26 -10 -49t-27.5 -40.5t-40.5 -27.5t-50 -10h-168q-53 0 -90 37q-17 17 -27 40.5t-10 49.5v13h59z" />
<glyph unicode="&#x103;" horiz-adv-x="1160" d="M436 863v-13q0 -29 19.5 -48.5t48.5 -19.5h168q28 0 48.5 19.5t20.5 48.5v13h59v-13q0 -26 -10 -49t-27.5 -40.5t-40.5 -27.5t-50 -10h-168q-53 0 -90 37q-17 17 -27 40.5t-10 49.5v13h59zM322 0q-68 0 -123 34.5t-81 93.5q-18 39 -18 83q0 45 17.5 83.5t47.5 67t69.5 45 t83.5 16.5h596v47q0 30 -12 57t-32.5 46.5t-47 31.5t-56.5 12h-503v76h503q46 0 87 -17.5t71 -48t48 -71t18 -86.5v-471zM240 323q-30 -19 -47 -48t-17 -64q0 -29 11.5 -53.5t31 -42.5t45 -28.5t54.5 -10.5h596v271h-592q-23 0 -44 -6.5t-38 -17.5z" />
<glyph unicode="&#x104;" horiz-adv-x="1071" d="M780 -177q-17 0 -32.5 6t-28 16t-20 24.5t-7.5 31.5v2q0 27 12.5 50t32.5 38l17 16h87l-65 -62q-9 -8 -16.5 -18t-7.5 -20q0 -5 2 -10q5 -8 11.5 -10t16.5 -4h151v-60h-153zM923 610q38 -39 60.5 -90.5t22.5 -110.5v-409h-76v318h-754v-318h-76v409q0 59 22.5 110.5 t61.5 90t90.5 61t109.5 22.5h338q59 0 110.5 -22.5t90.5 -60.5zM930 394v17q0 42 -16.5 79.5t-45 65.5t-66.5 44.5t-80 16.5h-340q-42 0 -79.5 -16.5t-65.5 -45t-44.5 -66t-16.5 -80.5v-15h754z" />
<glyph unicode="&#x105;" horiz-adv-x="1083" d="M824 -195q-19 0 -36.5 6.5t-31.5 17.5t-22 27.5t-8 35.5v2q0 30 14 55.5t36 43.5l20 18h96l-73 -70q-9 -9 -17.5 -20t-8.5 -23q0 -5 3 -10q5 -10 12 -12t18 -4h169v-67h-171zM322 0q-68 0 -123 34.5t-81 93.5q-18 39 -18 83q0 45 17.5 83.5t47.5 67t69.5 45t83.5 16.5 h596v47q0 30 -12 57t-32.5 46.5t-47 31.5t-56.5 12h-503v76h503q46 0 87 -17.5t71 -48t48 -71t18 -86.5v-471zM240 323q-30 -19 -47 -48t-17 -64q0 -29 11.5 -53.5t31 -42.5t45 -28.5t54.5 -10.5h596v271h-592q-23 0 -44 -6.5t-38 -17.5z" />
<glyph unicode="&#x106;" horiz-adv-x="1143" d="M184 83q-39 39 -61.5 90.5t-22.5 110.5v125q0 58 22.5 110t61 90.5t90.5 61t111 22.5h584v-76h-584q-43 0 -81 -16.5t-66.5 -45t-45 -66t-16.5 -80.5v-125q0 -42 16.5 -80t44.5 -66.5t65.5 -45t80.5 -16.5h586v-76h-584q-59 0 -111 22.5t-90 60.5zM775 906l-190 -189 l-54 54l190 189z" />
<glyph unicode="&#x107;" horiz-adv-x="1143" d="M184 83q-39 39 -61.5 90.5t-22.5 110.5v125q0 58 22.5 110t61 90.5t90.5 61t111 22.5h584v-76h-584q-43 0 -81 -16.5t-66.5 -45t-45 -66t-16.5 -80.5v-125q0 -42 16.5 -80t44.5 -66.5t65.5 -45t80.5 -16.5h586v-76h-584q-59 0 -111 22.5t-90 60.5zM775 906l-190 -189 l-54 54l190 189z" />
<glyph unicode="&#x108;" horiz-adv-x="1143" d="M184 83q-39 39 -61.5 90.5t-22.5 110.5v125q0 58 22.5 110t61 90.5t90.5 61t111 22.5h584v-76h-584q-43 0 -81 -16.5t-66.5 -45t-45 -66t-16.5 -80.5v-125q0 -42 16.5 -80t44.5 -66.5t65.5 -45t80.5 -16.5h586v-76h-584q-59 0 -111 22.5t-90 60.5zM586 882l-284 -135 l-33 69l317 150l317 -150l-33 -69z" />
<glyph unicode="&#x109;" horiz-adv-x="1143" d="M184 83q-39 39 -61.5 90.5t-22.5 110.5v125q0 58 22.5 110t61 90.5t90.5 61t111 22.5h584v-76h-584q-43 0 -81 -16.5t-66.5 -45t-45 -66t-16.5 -80.5v-125q0 -42 16.5 -80t44.5 -66.5t65.5 -45t80.5 -16.5h586v-76h-584q-59 0 -111 22.5t-90 60.5zM586 882l-284 -135 l-33 69l317 150l317 -150l-33 -69z" />
<glyph unicode="&#x10c;" horiz-adv-x="1143" d="M184 83q-39 39 -61.5 90.5t-22.5 110.5v125q0 58 22.5 110t61 90.5t90.5 61t111 22.5h584v-76h-584q-43 0 -81 -16.5t-66.5 -45t-45 -66t-16.5 -80.5v-125q0 -42 16.5 -80t44.5 -66.5t65.5 -45t80.5 -16.5h586v-76h-584q-59 0 -111 22.5t-90 60.5zM870 966l33 -69 l-317 -150l-317 150l33 69l284 -135z" />
<glyph unicode="&#x10d;" horiz-adv-x="1143" d="M184 83q-39 39 -61.5 90.5t-22.5 110.5v125q0 58 22.5 110t61 90.5t90.5 61t111 22.5h584v-76h-584q-43 0 -81 -16.5t-66.5 -45t-45 -66t-16.5 -80.5v-125q0 -42 16.5 -80t44.5 -66.5t65.5 -45t80.5 -16.5h586v-76h-584q-59 0 -111 22.5t-90 60.5zM870 966l33 -69 l-317 -150l-317 150l33 69l284 -135z" />
<glyph unicode="&#x10e;" horiz-adv-x="1127" d="M100 693h619q59 0 110.5 -22.5t90 -61.5t61 -90.5t22.5 -109.5v-125q0 -59 -22.5 -110.5t-61.5 -90t-90.5 -61t-109.5 -22.5h-619v693zM927 411q0 42 -16.5 79.5t-45 65.5t-66.5 44.5t-80 16.5h-543v-541h545q42 0 79.5 16.5t65.5 45t44.5 66t16.5 80.5v127zM785 966 l33 -69l-317 -150l-317 150l33 69l284 -135z" />
<glyph unicode="&#x10f;" horiz-adv-x="1110" d="M100 693h619q59 0 110.5 -22.5t90 -61.5t61 -90.5t22.5 -109.5v-125q0 -59 -22.5 -110.5t-61.5 -90t-90.5 -61t-109.5 -22.5h-619v693zM927 411q0 42 -16.5 79.5t-45 65.5t-66.5 44.5t-80 16.5h-543v-541h545q42 0 79.5 16.5t65.5 45t44.5 66t16.5 80.5v127zM798 966 l33 -69l-317 -150l-317 150l33 69l284 -135z" />
<glyph unicode="&#x110;" horiz-adv-x="1088" d="M100 693h619q59 0 110.5 -22.5t90 -61.5t61 -90.5t22.5 -109.5v-125q0 -59 -22.5 -110.5t-61.5 -90t-90.5 -61t-109.5 -22.5h-619v693zM927 411q0 42 -16.5 79.5t-45 65.5t-66.5 44.5t-80 16.5h-543v-541h545q42 0 79.5 16.5t65.5 45t44.5 66t16.5 80.5v127z" />
<glyph unicode="&#x111;" horiz-adv-x="1087" d="M100 693h619q59 0 110.5 -22.5t90 -61.5t61 -90.5t22.5 -109.5v-125q0 -59 -22.5 -110.5t-61.5 -90t-90.5 -61t-109.5 -22.5h-619v693zM927 411q0 42 -16.5 79.5t-45 65.5t-66.5 44.5t-80 16.5h-543v-541h545q42 0 79.5 16.5t65.5 45t44.5 66t16.5 80.5v127z" />
<glyph unicode="&#x112;" horiz-adv-x="1057" d="M237 556q-29 -29 -45 -66.5t-16 -80.5v-25h793v-76h-793v-26q0 -42 16.5 -79.5t45 -65.5t66.5 -44.5t80 -16.5h585v-76h-585q-59 0 -110.5 22.5t-90 61.5t-61 90.5t-22.5 109.5v125q0 59 22.5 110.5t61.5 90t90.5 61t109.5 22.5h585v-76h-585q-43 0 -80.5 -16t-66.5 -45z M359 824h463v-76h-463v76z" />
<glyph unicode="&#x113;" horiz-adv-x="1152" d="M302 824h463v-76h-463v76zM81 483q0 44 18.5 82.5t49 66.5t70.5 44t85 16h468q44 0 83.5 -16.5t69.5 -45.5t48 -67.5t18 -82.5q0 -45 -18 -83.5t-49 -67t-71 -45t-85 -16.5h-611v-95q4 -26 17.5 -44t33.5 -30t45 -17.5t51 -5.5h634v-76h-639q-38 0 -76.5 12t-69.5 34 t-51 54t-21 73v310zM304 616q-22 0 -48 -10t-48 -27.5t-36.5 -42t-14.5 -53.5v-139h615q28 0 54 10.5t46 29t31.5 43t11.5 53.5t-12 54t-32.5 43t-47 28.5t-55.5 10.5h-464z" />
<glyph unicode="&#x116;" horiz-adv-x="1057" d="M237 556q-29 -29 -45 -66.5t-16 -80.5v-25h793v-76h-793v-26q0 -42 16.5 -79.5t45 -65.5t66.5 -44.5t80 -16.5h585v-76h-585q-59 0 -110.5 22.5t-90 61.5t-61 90.5t-22.5 109.5v125q0 59 22.5 110.5t61.5 90t90.5 61t109.5 22.5h585v-76h-585q-43 0 -80.5 -16t-66.5 -45z M532 860h132v-109h-132v109z" />
<glyph unicode="&#x117;" horiz-adv-x="1127" d="M465 860h132v-109h-132v109zM81 483q0 44 18.5 82.5t49 66.5t70.5 44t85 16h468q44 0 83.5 -16.5t69.5 -45.5t48 -67.5t18 -82.5q0 -45 -18 -83.5t-49 -67t-71 -45t-85 -16.5h-611v-95q4 -26 17.5 -44t33.5 -30t45 -17.5t51 -5.5h634v-76h-639q-38 0 -76.5 12t-69.5 34 t-51 54t-21 73v310zM304 616q-22 0 -48 -10t-48 -27.5t-36.5 -42t-14.5 -53.5v-139h615q28 0 54 10.5t46 29t31.5 43t11.5 53.5t-12 54t-32.5 43t-47 28.5t-55.5 10.5h-464z" />
<glyph unicode="&#x118;" horiz-adv-x="1075" d="M1041 -134v-77h-195q-21 0 -41 7.5t-36 21t-25.5 32t-9.5 41.5q0 32 15 60.5t38 48.5h-411q-59 0 -110.5 22.5t-90 61.5t-61 90.5t-22.5 109.5v125q0 59 22.5 110.5t61.5 90t90.5 61t109.5 22.5h585v-76h-585q-43 0 -80.5 -16t-66.5 -45t-45 -66.5t-16 -80.5v-25h793v-76 h-793v-26q0 -42 16.5 -79.5t45 -65.5t66.5 -44.5t80 -16.5h585v-76h-62l-58 -55q-11 -11 -20.5 -23.5t-9.5 -25.5q0 -6 3 -12q6 -11 14 -13.5t21 -4.5h192z" />
<glyph unicode="&#x119;" horiz-adv-x="1122" d="M523 -234q-21 0 -41 7.5t-36 20.5t-25.5 31.5t-9.5 40.5v2q0 34 16 63.5t42 49.5l22 20h110l-83 -79q-11 -11 -20.5 -23.5t-9.5 -25.5q0 -6 3 -12q6 -11 14 -13.5t21 -4.5h192v-77h-195zM101 483q0 44 18.5 82.5t49 66.5t70.5 44t85 16h468q44 0 83.5 -16.5t69.5 -45.5 t48 -67.5t18 -82.5q0 -45 -18 -83.5t-49 -67t-71 -45t-85 -16.5h-611v-95q4 -26 17.5 -44t33.5 -30t45 -17.5t51 -5.5h634v-76h-639q-38 0 -76.5 12t-69.5 34t-51 54t-21 73v310zM324 616q-22 0 -48 -10t-48 -27.5t-36.5 -42t-14.5 -53.5v-139h615q28 0 54 10.5t46 29 t31.5 43t11.5 53.5t-12 54t-32.5 43t-47 28.5t-55.5 10.5h-464z" />
<glyph unicode="&#x11a;" horiz-adv-x="1057" d="M237 556q-29 -29 -45 -66.5t-16 -80.5v-25h793v-76h-793v-26q0 -42 16.5 -79.5t45 -65.5t66.5 -44.5t80 -16.5h585v-76h-585q-59 0 -110.5 22.5t-90 61.5t-61 90.5t-22.5 109.5v125q0 59 22.5 110.5t61.5 90t90.5 61t109.5 22.5h585v-76h-585q-43 0 -80.5 -16t-66.5 -45z M854 966l33 -69l-317 -150l-317 150l33 69l284 -135z" />
<glyph unicode="&#x11b;" horiz-adv-x="1152" d="M796 966l33 -69l-317 -150l-317 150l33 69l284 -135zM81 483q0 44 18.5 82.5t49 66.5t70.5 44t85 16h468q44 0 83.5 -16.5t69.5 -45.5t48 -67.5t18 -82.5q0 -45 -18 -83.5t-49 -67t-71 -45t-85 -16.5h-611v-95q4 -26 17.5 -44t33.5 -30t45 -17.5t51 -5.5h634v-76h-639 q-38 0 -76.5 12t-69.5 34t-51 54t-21 73v310zM304 616q-22 0 -48 -10t-48 -27.5t-36.5 -42t-14.5 -53.5v-139h615q28 0 54 10.5t46 29t31.5 43t11.5 53.5t-12 54t-32.5 43t-47 28.5t-55.5 10.5h-464z" />
<glyph unicode="&#x11c;" horiz-adv-x="1155" d="M1025 0v367h-464v-62h399v-243h-472q-97 0 -158 17.5t-95.5 53t-47 89.5t-12.5 128q0 75 13 129.5t47.5 90t95.5 52t157 16.5h517v62h-527q-116 0 -188 -26t-112 -72.5t-54 -110.5t-14 -141q0 -76 13.5 -140t53.5 -110.5t112 -73t189 -26.5h547zM584 882l-284 -135 l-33 69l317 150l317 -150l-33 -69z" />
<glyph unicode="&#x11d;" horiz-adv-x="1155" d="M584 882l-284 -135l-33 69l317 150l317 -150l-33 -69z" />
<glyph unicode="&#x11e;" horiz-adv-x="1118" d="M722 0h-338q-58 0 -109.5 22.5t-90.5 61t-61.5 90t-22.5 110.5v125q0 58 22.5 109.5t61 90.5t90 61.5t110.5 22.5h420v-76h-420q-42 0 -80 -16.5t-66.5 -44.5t-45 -65.5t-16.5 -79.5v-127q0 -42 16.5 -80t44.5 -66.5t65.5 -45t79.5 -16.5h340q42 0 80 16.5t66.5 44.5 t45 65.5t16.5 79.5v29h-316v76h392v-103q0 -58 -22.5 -109.5t-61 -90.5t-90 -61.5t-110.5 -22.5zM384 863v-13q0 -29 19.5 -48.5t48.5 -19.5h168q28 0 48.5 19.5t20.5 48.5v13h59v-13q0 -26 -10 -49t-27.5 -40.5t-40.5 -27.5t-50 -10h-168q-53 0 -90 37q-17 17 -27 40.5 t-10 49.5v13h59z" />
<glyph unicode="&#x11f;" horiz-adv-x="1155" d="M448 843v-13q0 -29 19.5 -48.5t48.5 -19.5h168q28 0 48.5 19.5t20.5 48.5v13h59v-13q0 -26 -10 -49t-27.5 -40.5t-40.5 -27.5t-50 -10h-168q-53 0 -90 37q-17 17 -27 40.5t-10 49.5v13h59z" />
<glyph unicode="&#x122;" horiz-adv-x="1071" d="M445 -211l87 186l69 -32l-87 -186zM722 0h-338q-58 0 -109.5 22.5t-90.5 61t-61.5 90t-22.5 110.5v125q0 58 22.5 109.5t61 90.5t90 61.5t110.5 22.5h420v-76h-420q-42 0 -80 -16.5t-66.5 -44.5t-45 -65.5t-16.5 -79.5v-127q0 -42 16.5 -80t44.5 -66.5t65.5 -45 t79.5 -16.5h340q42 0 80 16.5t66.5 44.5t45 65.5t16.5 79.5v29h-316v76h392v-103q0 -58 -22.5 -109.5t-61 -90.5t-90 -61.5t-110.5 -22.5z" />
<glyph unicode="&#x123;" horiz-adv-x="1062" d="M496 -217l87 186l69 -32l-87 -186zM184 83q-39 39 -61.5 90.5t-22.5 110.5v125q0 58 22.5 110t61 90.5t90.5 61t111 22.5h584v-76h-584q-43 0 -81 -16.5t-66.5 -44.5t-45 -65.5t-16.5 -80.5v-126q0 -42 16.5 -80t44.5 -66.5t65.5 -45t80.5 -16.5h510v221h-447v76h523 v-373h-584q-59 0 -111 22.5t-90 60.5z" />
<glyph unicode="&#x124;" horiz-adv-x="1125" d="M950 693v-693h-77v335h-697v-335h-76v693h76v-282h697v282h77zM525 882l-284 -135l-33 69l317 150l317 -150l-33 -69z" />
<glyph unicode="&#x125;" d="M563 882l-284 -135l-33 69l317 150l317 -150l-33 -69zM868 609q39 -38 61.5 -90t22.5 -111v-408h-76v408q0 43 -16.5 81t-45 66.5t-66.5 45t-81 16.5h-283q-43 0 -80.5 -16.5t-66 -45t-45 -66.5t-16.5 -81v-408h-76v859h76v-258q2 2 3.5 4t3.5 4q39 39 90.5 61.5 t110.5 22.5h283q59 0 111 -22.5t90 -61.5z" />
<glyph unicode="&#x12a;" horiz-adv-x="451" d="M100 0v693h76v-693h-76zM-87 824h463v-76h-463v76z" />
<glyph unicode="&#x12b;" horiz-adv-x="465" d="M100 0v693h76v-693h-76zM-90 814h463v-76h-463v76z" />
<glyph unicode="&#x12e;" horiz-adv-x="241" d="M133 -181q-17 0 -33 6t-28.5 16.5t-20 25t-7.5 32.5v2q0 27 12.5 50.5t33.5 38.5l17 16h88l-66 -62q-9 -9 -16.5 -19t-7.5 -20q0 -5 2 -10q5 -9 11.5 -11t16.5 -3h153v-62h-155zM100 0v693h76v-693h-76z" />
<glyph unicode="&#x12f;" horiz-adv-x="241" d="M131 -168q-16 0 -30.5 5.5t-26.5 15t-19 23.5t-7 30v1q0 26 12 47.5t31 36.5l16 15h82l-62 -59q-8 -8 -15 -17t-7 -19q0 -4 2 -9q5 -8 10.5 -10t15.5 -3h142v-57h-144zM100 0v693h76v-693h-76z" />
<glyph unicode="&#x130;" horiz-adv-x="271" d="M100 0v693h76v-693h-76zM77 890h132v-109h-132v109z" />
<glyph unicode="&#x131;" horiz-adv-x="241" d="M100 0v693h76v-693h-76z" />
<glyph unicode="&#x134;" horiz-adv-x="1017" d="M913 880l-284 -135l-33 69l317 150l317 -150l-33 -69zM184 83q-39 39 -61.5 90.5t-22.5 110.5v59h76v-59q0 -42 16.5 -80t44.5 -66.5t65.5 -45t80.5 -16.5h285q42 0 80 16.5t66.5 44.5t45 65.5t16.5 79.5v411h76v-409q0 -59 -22.5 -110.5t-61.5 -90.5 q-38 -38 -89.5 -60.5t-110.5 -22.5h-283q-60 0 -111.5 22.5t-89.5 60.5z" />
<glyph unicode="&#x135;" horiz-adv-x="1060" d="M579 880l-284 -135l-33 69l317 150l317 -150l-33 -69zM224 693h728v-409q0 -59 -22.5 -110.5t-61.5 -90.5q-38 -38 -89.5 -60.5t-110.5 -22.5h-283q-60 0 -111.5 22.5t-89.5 60.5q-39 39 -61.5 90.5t-22.5 110.5v59h76v-59q0 -42 16.5 -80t44.5 -66.5t65.5 -45 t80.5 -16.5h285q42 0 80 16.5t66.5 44.5t45 65.5t16.5 79.5v335h-652v76z" />
<glyph unicode="&#x136;" horiz-adv-x="1040" d="M431 -151l87 186l69 -32l-87 -186zM970 599q0 -79 -39.5 -144t-103.5 -102q64 -38 103.5 -103t39.5 -144v-106h-76v106q0 43 -16.5 81t-45 66t-66.5 44.5t-81 16.5h-509v-314h-76v701h76v-310h509q43 0 81 16.5t66.5 45t45 66t16.5 80.5v102h76v-102v0z" />
<glyph unicode="&#x137;" horiz-adv-x="1087" d="M412 -151l87 186l69 -32l-87 -186zM739 384q52 -8 96 -33t76 -62.5t50.5 -85t18.5 -100.5v-103h-76v105q0 42 -16.5 79.5t-45 65.5t-66.5 44.5t-80 16.5h-520v-311h-76v701h76v-313h465l266 314h105l-273 -318v0z" />
<glyph unicode="&#x139;" horiz-adv-x="1033" d="M638 905l-190 -189l-54 54l190 189zM176 693v-408q0 -44 16 -81.5t45 -65.5q29 -29 66.5 -45.5t80.5 -16.5h584v-76h-584q-59 0 -110.5 22.5t-90.5 61.5q-38 38 -60.5 89.5t-22.5 111.5v408h76z" />
<glyph unicode="&#x13a;" horiz-adv-x="969" d="M606 904l-190 -189l-54 54l190 189zM176 693v-408q0 -44 16 -81.5t45 -65.5q29 -29 66.5 -45.5t80.5 -16.5h584v-76h-584q-59 0 -110.5 22.5t-90.5 61.5q-38 38 -60.5 89.5t-22.5 111.5v408h76z" />
<glyph unicode="&#x13b;" horiz-adv-x="1033" d="M438 -151l87 186l69 -32l-87 -186zM176 693v-408q0 -44 16 -81.5t45 -65.5q29 -29 66.5 -45.5t80.5 -16.5h584v-76h-584q-59 0 -110.5 22.5t-90.5 61.5q-38 38 -60.5 89.5t-22.5 111.5v408h76z" />
<glyph unicode="&#x13c;" horiz-adv-x="969" d="M406 -151l87 186l69 -32l-87 -186zM176 693v-408q0 -44 16 -81.5t45 -65.5q29 -29 66.5 -45.5t80.5 -16.5h584v-76h-584q-59 0 -110.5 22.5t-90.5 61.5q-38 38 -60.5 89.5t-22.5 111.5v408h76z" />
<glyph unicode="&#x13d;" horiz-adv-x="1010" d="M480 497l55 203h65l-55 -203h-65zM176 693v-408q0 -44 16 -81.5t45 -65.5q29 -29 66.5 -45.5t80.5 -16.5h584v-76h-584q-59 0 -110.5 22.5t-90.5 61.5q-38 38 -60.5 89.5t-22.5 111.5v408h76z" />
<glyph unicode="&#x13e;" horiz-adv-x="993" d="M422 954l33 -69l-317 -150l-317 150l33 69l284 -135zM176 693v-408q0 -44 16 -81.5t45 -65.5q29 -29 66.5 -45.5t80.5 -16.5h584v-76h-584q-59 0 -110.5 22.5t-90.5 61.5q-38 38 -60.5 89.5t-22.5 111.5v408h76z" />
<glyph unicode="&#x141;" horiz-adv-x="1033" d="M1053 76v-76h-584q-59 0 -110.5 22.5t-90.5 61.5q-34 34 -55.5 78t-26.5 95l-186 -107l-38 66l223 127v350h76v-306l258 148l38 -66l-296 -169v-15q0 -44 16 -81.5t45 -65.5q29 -29 66.5 -45.5t80.5 -16.5h584z" />
<glyph unicode="&#x142;" horiz-adv-x="1069" d="M1053 76v-76h-584q-59 0 -110.5 22.5t-90.5 61.5q-34 34 -55.5 78t-26.5 95l-186 -107l-38 66l223 127v350h76v-306l258 148l38 -66l-296 -169v-15q0 -44 16 -81.5t45 -65.5q29 -29 66.5 -45.5t80.5 -16.5h584z" />
<glyph unicode="&#x143;" d="M811 6q-14 6 -23.5 13t-23.5 24l-477 562q-9 11 -21 15.5t-26 4.5q-23 0 -43 -14t-21 -40v-571h-76v578l1 3q2 28 15 50.5t32.5 38.5t44 24t49.5 8q29 0 56.5 -11.5t47.5 -37.5l477 -562q9 -11 21.5 -16t25.5 -5q23 0 42 14.5t21 40.5v570h77v-577q-3 -28 -16 -51 t-32.5 -39.5t-43.5 -25.5t-49 -9q-31 0 -58 13zM782 906l-190 -189l-54 54l190 189z" />
<glyph unicode="&#x144;" horiz-adv-x="1027" d="M637 906l-190 -189l-54 54l190 189zM668 693q58 0 110 -22.5t90.5 -61t61 -90.5t22.5 -111v-408h-76v408q0 42 -16.5 80t-44.5 66.5t-65.5 45.5t-79.5 17h-494v-617h-76v693h568z" />
<glyph unicode="&#x145;" d="M458 -151l87 186l69 -32l-87 -186zM811 6q-14 6 -23.5 13t-23.5 24l-477 562q-9 11 -21 15.5t-26 4.5q-23 0 -43 -14t-21 -40v-571h-76v578l1 3q2 28 15 50.5t32.5 38.5t44 24t49.5 8q29 0 56.5 -11.5t47.5 -37.5l477 -562q9 -11 21.5 -16t25.5 -5q23 0 42 14.5t21 40.5 v570h77v-577q-3 -28 -16 -51t-32.5 -39.5t-43.5 -25.5t-49 -9q-31 0 -58 13z" />
<glyph unicode="&#x146;" horiz-adv-x="1041" d="M425 -151l87 186l69 -32l-87 -186zM668 693q58 0 110 -22.5t90.5 -61t61 -90.5t22.5 -111v-408h-76v408q0 42 -16.5 80t-44.5 66.5t-65.5 45.5t-79.5 17h-494v-617h-76v693h568z" />
<glyph unicode="&#x147;" d="M811 6q-14 6 -23.5 13t-23.5 24l-477 562q-9 11 -21 15.5t-26 4.5q-23 0 -43 -14t-21 -40v-571h-76v578l1 3q2 28 15 50.5t32.5 38.5t44 24t49.5 8q29 0 56.5 -11.5t47.5 -37.5l477 -562q9 -11 21.5 -16t25.5 -5q23 0 42 14.5t21 40.5v570h77v-577q-3 -28 -16 -51 t-32.5 -39.5t-43.5 -25.5t-49 -9q-31 0 -58 13zM877 966l33 -69l-317 -150l-317 150l33 69l284 -135z" />
<glyph unicode="&#x148;" horiz-adv-x="1031" d="M774 966l33 -69l-317 -150l-317 150l33 69l284 -135zM668 693q58 0 110 -22.5t90.5 -61t61 -90.5t22.5 -111v-408h-76v408q0 42 -16.5 80t-44.5 66.5t-65.5 45.5t-79.5 17h-494v-617h-76v693h568z" />
<glyph unicode="&#x14c;" horiz-adv-x="1224" d="M384 0q-59 0 -110.5 22.5t-90 61t-61 90t-22.5 110.5v125q0 58 22.5 110t61 90.5t90 61t110.5 22.5h514q59 0 111 -22.5t90.5 -61t61 -90.5t22.5 -110v-125q0 -59 -22.5 -110.5t-61 -90t-90.5 -61t-111 -22.5h-514zM176 409v-125q0 -43 16.5 -80.5t45 -66t66 -45 t80.5 -16.5h514q43 0 81 16.5t66.5 45t45 66t16.5 80.5v125q0 43 -16.5 80.5t-45 66t-66.5 45t-81 16.5h-514q-43 0 -80.5 -16.5t-66 -45t-45 -66t-16.5 -80.5zM422 824h463v-76h-463v76z" />
<glyph unicode="&#x14d;" horiz-adv-x="1224" d="M384 0q-59 0 -110.5 22.5t-90 61t-61 90t-22.5 110.5v125q0 58 22.5 110t61 90.5t90 61t110.5 22.5h514q59 0 111 -22.5t90.5 -61t61 -90.5t22.5 -110v-125q0 -59 -22.5 -110.5t-61 -90t-90.5 -61t-111 -22.5h-514zM176 409v-125q0 -43 16.5 -80.5t45 -66t66 -45 t80.5 -16.5h514q43 0 81 16.5t66.5 45t45 66t16.5 80.5v125q0 43 -16.5 80.5t-45 66t-66.5 45t-81 16.5h-514q-43 0 -80.5 -16.5t-66 -45t-45 -66t-16.5 -80.5zM411 824h463v-76h-463v76z" />
<glyph unicode="&#x150;" horiz-adv-x="1224" d="M384 0q-59 0 -110.5 22.5t-90 61t-61 90t-22.5 110.5v125q0 58 22.5 110t61 90.5t90 61t110.5 22.5h514q59 0 111 -22.5t90.5 -61t61 -90.5t22.5 -110v-125q0 -59 -22.5 -110.5t-61 -90t-90.5 -61t-111 -22.5h-514zM176 409v-125q0 -43 16.5 -80.5t45 -66t66 -45 t80.5 -16.5h514q43 0 81 16.5t66.5 45t45 66t16.5 80.5v125q0 43 -16.5 80.5t-45 66t-66.5 45t-81 16.5h-514q-43 0 -80.5 -16.5t-66 -45t-45 -66t-16.5 -80.5zM660 906l-190 -189l-54 54l190 189zM880 906l-190 -189l-54 54l190 189z" />
<glyph unicode="&#x151;" horiz-adv-x="1224" d="M384 0q-59 0 -110.5 22.5t-90 61t-61 90t-22.5 110.5v125q0 58 22.5 110t61 90.5t90 61t110.5 22.5h514q59 0 111 -22.5t90.5 -61t61 -90.5t22.5 -110v-125q0 -59 -22.5 -110.5t-61 -90t-90.5 -61t-111 -22.5h-514zM176 409v-125q0 -43 16.5 -80.5t45 -66t66 -45 t80.5 -16.5h514q43 0 81 16.5t66.5 45t45 66t16.5 80.5v125q0 43 -16.5 80.5t-45 66t-66.5 45t-81 16.5h-514q-43 0 -80.5 -16.5t-66 -45t-45 -66t-16.5 -80.5zM657 906l-190 -189l-54 54l190 189zM877 906l-190 -189l-54 54l190 189z" />
<glyph unicode="&#x152;" horiz-adv-x="1907" d="M1084 382h723v-76h-723v-28q0 -42 17 -79t45 -65t66 -44t80 -16h515v-76h-515q-79 0 -144 39.5t-102 103.5q-37 -64 -102 -103.5t-145 -39.5h-414q-59 0 -110.5 22.5t-90 61t-61 90t-22.5 110.5v127q0 59 22.5 110.5t61 90t90 61t110.5 22.5h414q80 0 145 -39.5 t102 -103.5q19 31 45 57t57.5 45t68 29t75.5 10h515v-76h-515q-43 0 -80.5 -16t-66.5 -45q-28 -28 -44 -64.5t-17 -78.5v-29zM1008 409q0 43 -16.5 80.5t-45 66t-66.5 45t-81 16.5h-414q-43 0 -80.5 -16.5t-66 -45t-45 -66t-16.5 -80.5v-127q0 -43 16.5 -80.5t45 -66t66 -45 t80.5 -16.5h414q43 0 81 16.5t66.5 45t45 66t16.5 80.5v127z" />
<glyph unicode="&#x153;" horiz-adv-x="2017" d="M1063 173q4 -26 17.5 -44t33.5 -30t45 -17.5t51 -5.5h634v-76h-639q-30 0 -60.5 7.5t-57.5 21.5t-49 34.5t-35 46.5q-39 -51 -97.5 -80.5t-127.5 -29.5h-394q-59 0 -110.5 22.5t-90 61t-61 90t-22.5 110.5v125q0 59 22.5 110.5t61 90t90 61t110.5 22.5h394 q72 0 133 -32.5t99 -87.5q29 53 82.5 85t117.5 32h468q44 0 83.5 -16.5t69.5 -45.5t48 -67.5t18 -82.5q0 -45 -18 -83t-49 -66.5t-71 -44.5t-85 -16h-611v-95zM1063 344h615q28 0 54 10t46 28t31.5 42.5t11.5 53.5t-12 54t-32.5 43t-47 28.5t-55.5 10.5h-464q-22 0 -48 -10 t-48 -27.5t-36.5 -42t-14.5 -53.5v-137zM987 409q0 43 -16.5 80.5t-45 66t-66.5 45t-81 16.5h-394q-43 0 -80.5 -16.5t-66 -45t-45 -66t-16.5 -80.5v-125q0 -43 16.5 -80.5t45 -66t66 -45t80.5 -16.5h394q43 0 81 16.5t66.5 45t45 66t16.5 80.5v125z" />
<glyph unicode="&#x154;" horiz-adv-x="1169" d="M978 331q-50 -48 -122 -59l203 -272h-95l-201 269h-587v-269h-76v693h722q34 0 65.5 -9t57.5 -26q45 -29 72.5 -75.5t27.5 -101.5q0 -44 -17.5 -82.5t-49.5 -67.5zM176 345h650q28 0 54 10.5t45.5 29t31.5 43t12 53.5t-12 54t-32.5 43t-47 28.5t-55.5 10.5h-646v-272z M670 906l-190 -189l-54 54l190 189z" />
<glyph unicode="&#x155;" horiz-adv-x="953" d="M675 906l-190 -189l-54 54l190 189zM100 0v409q0 58 22.5 110t61 90.5t90 61t110.5 22.5h514v-76h-514q-43 0 -80.5 -16.5t-66 -45t-45 -66t-16.5 -80.5v-409h-76z" />
<glyph unicode="&#x156;" horiz-adv-x="1124" d="M978 331q-50 -48 -122 -59l203 -272h-95l-201 269h-587v-269h-76v693h722q34 0 65.5 -9t57.5 -26q45 -29 72.5 -75.5t27.5 -101.5q0 -44 -17.5 -82.5t-49.5 -67.5zM176 345h650q28 0 54 10.5t45.5 29t31.5 43t12 53.5t-12 54t-32.5 43t-47 28.5t-55.5 10.5h-646v-272z " />
<glyph unicode="&#x157;" horiz-adv-x="890" d="M48 -206l87 186l69 -32l-87 -186zM100 0v409q0 58 22.5 110t61 90.5t90 61t110.5 22.5h514v-76h-514q-43 0 -80.5 -16.5t-66 -45t-45 -66t-16.5 -80.5v-409h-76z" />
<glyph unicode="&#x158;" horiz-adv-x="1169" d="M978 331q-50 -48 -122 -59l203 -272h-95l-201 269h-587v-269h-76v693h722q34 0 65.5 -9t57.5 -26q45 -29 72.5 -75.5t27.5 -101.5q0 -44 -17.5 -82.5t-49.5 -67.5zM176 345h650q28 0 54 10.5t45.5 29t31.5 43t12 53.5t-12 54t-32.5 43t-47 28.5t-55.5 10.5h-646v-272z M814 966l33 -69l-317 -150l-317 150l33 69l284 -135z" />
<glyph unicode="&#x159;" horiz-adv-x="953" d="M811 966l33 -69l-317 -150l-317 150l33 69l284 -135zM100 0v409q0 58 22.5 110t61 90.5t90 61t110.5 22.5h514v-76h-514q-43 0 -80.5 -16.5t-66 -45t-45 -66t-16.5 -80.5v-409h-76z" />
<glyph unicode="&#x15a;" horiz-adv-x="1094" d="M761 0h-661v76h661q24 0 45 9t37 25t25 37t9 45t-9 45.5t-24.5 37.5t-37 25t-45.5 9h-507q-39 0 -74 15t-61.5 41t-41.5 61t-15 75t15 75.5t41 61.5t61 41.5t75 15.5h661v-76h-661q-25 0 -45.5 -9.5t-36 -25t-24.5 -36.5t-10 -45q4 -50 36 -84t80 -34h507q40 0 75 -15 t61 -41t41 -61t15 -75t-15 -75t-41 -61.5t-61 -41.5t-75 -15zM648 906l-190 -189l-54 54l190 189z" />
<glyph unicode="&#x15b;" horiz-adv-x="1018" d="M761 0h-661v76h661q24 0 45 9t37 25t25 37t9 45t-9 45.5t-24.5 37.5t-37 25t-45.5 9h-507q-39 0 -74 15t-61.5 41t-41.5 61t-15 75t15 75.5t41 61.5t61 41.5t75 15.5h661v-76h-661q-25 0 -45.5 -9.5t-36 -25t-24.5 -36.5t-10 -45q4 -50 36 -84t80 -34h507q40 0 75 -15 t61 -41t41 -61t15 -75t-15 -75t-41 -61.5t-61 -41.5t-75 -15zM648 906l-190 -189l-54 54l190 189z" />
<glyph unicode="&#x15c;" horiz-adv-x="1094" d="M761 0h-661v76h661q24 0 45 9t37 25t25 37t9 45t-9 45.5t-24.5 37.5t-37 25t-45.5 9h-507q-39 0 -74 15t-61.5 41t-41.5 61t-15 75t15 75.5t41 61.5t61 41.5t75 15.5h661v-76h-661q-25 0 -45.5 -9.5t-36 -25t-24.5 -36.5t-10 -45q4 -50 36 -84t80 -34h507q40 0 75 -15 t61 -41t41 -61t15 -75t-15 -75t-41 -61.5t-61 -41.5t-75 -15zM509 882l-284 -135l-33 69l317 150l317 -150l-33 -69z" />
<glyph unicode="&#x15d;" horiz-adv-x="1074" d="M761 0h-661v76h661q24 0 45 9t37 25t25 37t9 45t-9 45.5t-24.5 37.5t-37 25t-45.5 9h-507q-39 0 -74 15t-61.5 41t-41.5 61t-15 75t15 75.5t41 61.5t61 41.5t75 15.5h661v-76h-661q-25 0 -45.5 -9.5t-36 -25t-24.5 -36.5t-10 -45q4 -50 36 -84t80 -34h507q40 0 75 -15 t61 -41t41 -61t15 -75t-15 -75t-41 -61.5t-61 -41.5t-75 -15zM525 882l-284 -135l-33 69l317 150l317 -150l-33 -69z" />
<glyph unicode="&#x15e;" horiz-adv-x="1094" d="M761 0h-661v76h661q24 0 45 9t37 25t25 37t9 45t-9 45.5t-24.5 37.5t-37 25t-45.5 9h-507q-39 0 -74 15t-61.5 41t-41.5 61t-15 75t15 75.5t41 61.5t61 41.5t75 15.5h661v-76h-661q-25 0 -45.5 -9.5t-36 -25t-24.5 -36.5t-10 -45q4 -50 36 -84t80 -34h507q40 0 75 -15 t61 -41t41 -61t15 -75t-15 -75t-41 -61.5t-61 -41.5t-75 -15zM439 -238h-98v71h102q26 0 43 20t17 45v104h72v-104q0 -26 -10.5 -50.5t-29 -43.5t-43.5 -30.5t-53 -11.5z" />
<glyph unicode="&#xf6c1;" horiz-adv-x="1094" d="M761 0h-661v76h661q24 0 45 9t37 25t25 37t9 45t-9 45.5t-24.5 37.5t-37 25t-45.5 9h-507q-39 0 -74 15t-61.5 41t-41.5 61t-15 75t15 75.5t41 61.5t61 41.5t75 15.5h661v-76h-661q-25 0 -45.5 -9.5t-36 -25t-24.5 -36.5t-10 -45q4 -50 36 -84t80 -34h507q40 0 75 -15 t61 -41t41 -61t15 -75t-15 -75t-41 -61.5t-61 -41.5t-75 -15zM439 -238h-98v71h102q26 0 43 20t17 45v104h72v-104q0 -26 -10.5 -50.5t-29 -43.5t-43.5 -30.5t-53 -11.5z" />
<glyph unicode="&#x15f;" horiz-adv-x="1094" d="M439 -240h-98v71h102q26 0 43 20t17 45v104h72v-104q0 -26 -10.5 -50.5t-29 -43.5t-43.5 -30.5t-53 -11.5z" />
<glyph unicode="&#xf6c2;" horiz-adv-x="1094" d="M439 -240h-98v71h102q26 0 43 20t17 45v104h72v-104q0 -26 -10.5 -50.5t-29 -43.5t-43.5 -30.5t-53 -11.5z" />
<glyph unicode="&#x160;" horiz-adv-x="1070" d="M761 0h-661v76h661q24 0 45 9t37 25t25 37t9 45t-9 45.5t-24.5 37.5t-37 25t-45.5 9h-507q-39 0 -74 15t-61.5 41t-41.5 61t-15 75t15 75.5t41 61.5t61 41.5t75 15.5h661v-76h-661q-25 0 -45.5 -9.5t-36 -25t-24.5 -36.5t-10 -45q4 -50 36 -84t80 -34h507q40 0 75 -15 t61 -41t41 -61t15 -75t-15 -75t-41 -61.5t-61 -41.5t-75 -15zM789 966l33 -69l-317 -150l-317 150l33 69l284 -135z" />
<glyph unicode="&#x161;" horiz-adv-x="1070" d="M761 0h-661v76h661q24 0 45 9t37 25t25 37t9 45t-9 45.5t-24.5 37.5t-37 25t-45.5 9h-507q-39 0 -74 15t-61.5 41t-41.5 61t-15 75t15 75.5t41 61.5t61 41.5t75 15.5h661v-76h-661q-25 0 -45.5 -9.5t-36 -25t-24.5 -36.5t-10 -45q4 -50 36 -84t80 -34h507q40 0 75 -15 t61 -41t41 -61t15 -75t-15 -75t-41 -61.5t-61 -41.5t-75 -15zM796 966l33 -69l-317 -150l-317 150l33 69l284 -135z" />
<glyph unicode="&#x164;" horiz-adv-x="1031" d="M799 965l33 -69l-317 -150l-317 150l33 69l284 -135zM966 617h-395v-617h-76v617h-395v76h866v-76z" />
<glyph unicode="&#x165;" horiz-adv-x="1329" d="M838 520h-662v-235q0 -44 16 -81.5t45 -65.5q29 -29 66.5 -45.5t80.5 -16.5h584v-76h-584q-59 0 -110.5 22.5t-90.5 61.5q-38 38 -60.5 89.5t-22.5 111.5v408h76v-97h662v-76zM1123 477l61 223h85l-61 -223h-85z" />
<glyph unicode="&#x16a;" horiz-adv-x="1017" d="M184 83q-39 39 -61.5 90.5t-22.5 110.5v409h76v-409q0 -42 16.5 -80t44.5 -66.5t65.5 -45t80.5 -16.5h285q42 0 80 16.5t66.5 44.5t45 65.5t16.5 79.5v411h76v-409q0 -59 -22.5 -110.5t-61.5 -90.5q-38 -38 -89.5 -60.5t-110.5 -22.5h-283q-60 0 -111.5 22.5t-89.5 60.5z M296 824h463v-76h-463v76z" />
<glyph unicode="&#x16b;" horiz-adv-x="1036" d="M302 814h463v-76h-463v76zM384 0q-59 0 -110.5 22.5t-90 61t-61 90.5t-22.5 111v408h76v-408q0 -42 16.5 -80t44.5 -66.5t65.5 -45.5t79.5 -17h494v617h76v-693h-568z" />
<glyph unicode="&#x16c;" horiz-adv-x="1017" d="M184 83q-39 39 -61.5 90.5t-22.5 110.5v409h76v-409q0 -42 16.5 -80t44.5 -66.5t65.5 -45t80.5 -16.5h285q42 0 80 16.5t66.5 44.5t45 65.5t16.5 79.5v411h76v-409q0 -59 -22.5 -110.5t-61.5 -90.5q-38 -38 -89.5 -60.5t-110.5 -22.5h-283q-60 0 -111.5 22.5t-89.5 60.5z M372 843v-13q0 -29 19.5 -48.5t48.5 -19.5h168q28 0 48.5 19.5t20.5 48.5v13h59v-13q0 -26 -10 -49t-27.5 -40.5t-40.5 -27.5t-50 -10h-168q-53 0 -90 37q-17 17 -27 40.5t-10 49.5v13h59z" />
<glyph unicode="&#x16d;" d="M382 833v-13q0 -29 19.5 -48.5t48.5 -19.5h168q28 0 48.5 19.5t20.5 48.5v13h59v-13q0 -26 -10 -49t-27.5 -40.5t-40.5 -27.5t-50 -10h-168q-53 0 -90 37q-17 17 -27 40.5t-10 49.5v13h59zM384 0q-59 0 -110.5 22.5t-90 61t-61 90.5t-22.5 111v408h76v-408 q0 -42 16.5 -80t44.5 -66.5t65.5 -45.5t79.5 -17h494v617h76v-693h-568z" />
<glyph unicode="&#x16e;" horiz-adv-x="1190" d="M184 83q-39 39 -61.5 90.5t-22.5 110.5v409h76v-409q0 -42 16.5 -80t44.5 -66.5t65.5 -45t80.5 -16.5h285q42 0 80 16.5t66.5 44.5t45 65.5t16.5 79.5v411h76v-409q0 -59 -22.5 -110.5t-61.5 -90.5q-38 -38 -89.5 -60.5t-110.5 -22.5h-283q-60 0 -111.5 22.5t-89.5 60.5z M603 709h-148q-53 0 -90 37q-17 17 -27 40.5t-10 49.5v13q0 27 10 50t27 40.5t40.5 28t49.5 10.5h148q26 0 49.5 -10t41 -27.5t27.5 -41t10 -50.5v-13q0 -26 -10 -49t-27.5 -40.5t-40.5 -27.5t-50 -10zM407 898q-20 -20 -20 -49v-13q0 -29 19.5 -48.5t48.5 -19.5h148 q28 0 48.5 19.5t20.5 48.5v13q0 29 -20.5 49t-48.5 20h-148q-28 0 -48 -20z" />
<glyph unicode="&#x16f;" d="M609 712h-148q-53 0 -90 37q-17 17 -27 40.5t-10 49.5v13q0 27 10 50t27 40.5t40.5 28t49.5 10.5h148q26 0 49.5 -10t41 -27.5t27.5 -41t10 -50.5v-13q0 -26 -10 -49t-27.5 -40.5t-40.5 -27.5t-50 -10zM413 901q-20 -20 -20 -49v-13q0 -29 19.5 -48.5t48.5 -19.5h148 q28 0 48.5 19.5t20.5 48.5v13q0 29 -20.5 49t-48.5 20h-148q-28 0 -48 -20zM384 0q-59 0 -110.5 22.5t-90 61t-61 90.5t-22.5 111v408h76v-408q0 -42 16.5 -80t44.5 -66.5t65.5 -45.5t79.5 -17h494v617h76v-693h-568z" />
<glyph unicode="&#x170;" horiz-adv-x="1190" d="M184 83q-39 39 -61.5 90.5t-22.5 110.5v409h76v-409q0 -42 16.5 -80t44.5 -66.5t65.5 -45t80.5 -16.5h285q42 0 80 16.5t66.5 44.5t45 65.5t16.5 79.5v411h76v-409q0 -59 -22.5 -110.5t-61.5 -90.5q-38 -38 -89.5 -60.5t-110.5 -22.5h-283q-60 0 -111.5 22.5t-89.5 60.5z M550 906l-190 -189l-54 54l190 189zM770 906l-190 -189l-54 54l190 189z" />
<glyph unicode="&#x171;" horiz-adv-x="1107" d="M579 887l-190 -189l-54 54l190 189zM799 887l-190 -189l-54 54l190 189zM384 0q-59 0 -110.5 22.5t-90 61t-61 90.5t-22.5 111v408h76v-408q0 -42 16.5 -80t44.5 -66.5t65.5 -45.5t79.5 -17h494v617h76v-693h-568z" />
<glyph unicode="&#x172;" horiz-adv-x="1058" d="M184 83q-39 39 -61.5 90.5t-22.5 110.5v409h76v-409q0 -42 16.5 -80t44.5 -66.5t65.5 -45t80.5 -16.5h285q42 0 80 16.5t66.5 44.5t45 65.5t16.5 79.5v411h76v-409q0 -59 -22.5 -110.5t-61.5 -90.5q-38 -38 -89.5 -60.5t-110.5 -22.5h-283q-60 0 -111.5 22.5t-89.5 60.5z M503 -234q-21 0 -41 7.5t-36 20.5t-25.5 31.5t-9.5 40.5v2q0 34 16 63.5t42 49.5l22 20h110l-83 -79q-11 -11 -20.5 -23.5t-9.5 -25.5q0 -6 3 -12q6 -11 14 -13.5t21 -4.5h192v-77h-195z" />
<glyph unicode="&#x173;" d="M539 -219q-21 0 -41 7.5t-36 20.5t-25.5 31.5t-9.5 40.5v2q0 34 16 63.5t42 49.5l22 20h110l-83 -79q-11 -11 -20.5 -23.5t-9.5 -25.5q0 -6 3 -12q6 -11 14 -13.5t21 -4.5h192v-77h-195zM384 0q-59 0 -110.5 22.5t-90 61t-61 90.5t-22.5 111v408h76v-408q0 -42 16.5 -80 t44.5 -66.5t65.5 -45.5t79.5 -17h494v617h76v-693h-568z" />
<glyph unicode="&#x178;" horiz-adv-x="1086" d="M491 0v220h-106q-60 0 -111.5 22.5t-89.5 60.5q-39 39 -61.5 90.5t-22.5 110.5v189h76v-189q0 -42 16.5 -80t44.5 -66.5t65.5 -45t80.5 -16.5h285q42 0 80 16.5t66.5 44.5t45 65.5t16.5 79.5v191h76v-189q0 -59 -22.5 -110.5t-61.5 -90.5q-38 -38 -89.5 -60.5 t-110.5 -22.5h-101v-220h-76zM343 611v90h86v-90h-86zM633 611v90h86v-90h-86z" />
<glyph unicode="&#x179;" horiz-adv-x="1090" d="M218 0q-32 0 -56 13t-40.5 33.5t-24.5 46t-8 50.5q0 36 12.5 58.5t28.5 36.5q18 15 41 23l686 239q1 1 9 4t16 9t15 16.5t7 26.5q0 4 -1.5 14t-6.5 20.5t-16.5 18.5t-30.5 8h-753v76h760q42 0 66.5 -19.5t37 -44t16.5 -46.5t4 -27q0 -35 -10.5 -57t-22.5 -35 q-14 -15 -32 -23l-717 -251q-20 -9 -27 -23t-7 -28q0 -23 14.5 -42t40.5 -21h754v-76h-755zM706 906l-190 -189l-54 54l190 189z" />
<glyph unicode="&#x17a;" horiz-adv-x="1090" d="M697 904l-190 -189l-54 54l190 189zM101 0v77l821 540h-819v76h966v-71l-831 -546h817v-76h-954z" />
<glyph unicode="&#x17b;" horiz-adv-x="1090" d="M218 0q-32 0 -56 13t-40.5 33.5t-24.5 46t-8 50.5q0 36 12.5 58.5t28.5 36.5q18 15 41 23l686 239q1 1 9 4t16 9t15 16.5t7 26.5q0 4 -1.5 14t-6.5 20.5t-16.5 18.5t-30.5 8h-753v76h760q42 0 66.5 -19.5t37 -44t16.5 -46.5t4 -27q0 -35 -10.5 -57t-22.5 -35 q-14 -15 -32 -23l-717 -251q-20 -9 -27 -23t-7 -28q0 -23 14.5 -42t40.5 -21h754v-76h-755zM457 878h132v-109h-132v109z" />
<glyph unicode="&#x17c;" horiz-adv-x="1090" d="M101 0v77l821 540h-819v76h966v-71l-831 -546h817v-76h-954zM484 900h132v-109h-132v109z" />
<glyph unicode="&#x17d;" horiz-adv-x="1090" d="M218 0q-32 0 -56 13t-40.5 33.5t-24.5 46t-8 50.5q0 36 12.5 58.5t28.5 36.5q18 15 41 23l686 239q1 1 9 4t16 9t15 16.5t7 26.5q0 4 -1.5 14t-6.5 20.5t-16.5 18.5t-30.5 8h-753v76h760q42 0 66.5 -19.5t37 -44t16.5 -46.5t4 -27q0 -35 -10.5 -57t-22.5 -35 q-14 -15 -32 -23l-717 -251q-20 -9 -27 -23t-7 -28q0 -23 14.5 -42t40.5 -21h754v-76h-755zM806 966l33 -69l-317 -150l-317 150l33 69l284 -135z" />
<glyph unicode="&#x17e;" horiz-adv-x="1090" d="M846 966l33 -69l-317 -150l-317 150l33 69l284 -135zM101 0v77l821 540h-819v76h966v-71l-831 -546h817v-76h-954z" />
<glyph unicode="&#x218;" horiz-adv-x="1072" d="M421 -223l87 186l69 -32l-87 -186zM761 0h-661v76h661q24 0 45 9t37 25t25 37t9 45t-9 45.5t-24.5 37.5t-37 25t-45.5 9h-507q-39 0 -74 15t-61.5 41t-41.5 61t-15 75t15 75.5t41 61.5t61 41.5t75 15.5h661v-76h-661q-25 0 -45.5 -9.5t-36 -25t-24.5 -36.5t-10 -45 q4 -50 36 -84t80 -34h507q40 0 75 -15t61 -41t41 -61t15 -75t-15 -75t-41 -61.5t-61 -41.5t-75 -15z" />
<glyph unicode="&#x219;" horiz-adv-x="1075" d="M415 -223l87 186l69 -32l-87 -186zM761 0h-661v76h661q24 0 45 9t37 25t25 37t9 45t-9 45.5t-24.5 37.5t-37 25t-45.5 9h-507q-39 0 -74 15t-61.5 41t-41.5 61t-15 75t15 75.5t41 61.5t61 41.5t75 15.5h661v-76h-661q-25 0 -45.5 -9.5t-36 -25t-24.5 -36.5t-10 -45 q4 -50 36 -84t80 -34h507q40 0 75 -15t61 -41t41 -61t15 -75t-15 -75t-41 -61.5t-61 -41.5t-75 -15z" />
<glyph unicode="&#x21a;" horiz-adv-x="1043" d="M441 -197l87 186l69 -32l-87 -186zM966 617h-395v-617h-76v617h-395v76h866v-76z" />
<glyph unicode="&#x21b;" horiz-adv-x="1043" d="M459 -217l87 186l69 -32l-87 -186zM838 520h-662v-235q0 -44 16 -81.5t45 -65.5q29 -29 66.5 -45.5t80.5 -16.5h584v-76h-584q-59 0 -110.5 22.5t-90.5 61.5q-38 38 -60.5 89.5t-22.5 111.5v408h76v-97h662v-76z" />
<glyph unicode="&#x2c6;" horiz-adv-x="784" d="M404 880l-284 -135l-33 69l317 150l317 -150l-33 -69z" />
<glyph unicode="&#x2c7;" horiz-adv-x="784" d="M688 964l33 -69l-317 -150l-317 150l33 69l284 -135z" />
<glyph unicode="&#x2d8;" horiz-adv-x="686" d="M219 833v-13q0 -29 19.5 -48.5t48.5 -19.5h168q28 0 48.5 19.5t20.5 48.5v13h59v-13q0 -26 -10 -49t-27.5 -40.5t-40.5 -27.5t-50 -10h-168q-53 0 -90 37q-17 17 -27 40.5t-10 49.5v13h59z" />
<glyph unicode="&#x2d9;" horiz-adv-x="332" d="M100 902h132v-109h-132v109z" />
<glyph unicode="&#x2da;" horiz-adv-x="545" d="M373 697h-148q-53 0 -90 37q-17 17 -27 40.5t-10 49.5v13q0 27 10 50t27 40.5t40.5 28t49.5 10.5h148q26 0 49.5 -10t41 -27.5t27.5 -41t10 -50.5v-13q0 -26 -10 -49t-27.5 -40.5t-40.5 -27.5t-50 -10zM177 886q-20 -20 -20 -49v-13q0 -29 19.5 -48.5t48.5 -19.5h148 q28 0 48.5 19.5t20.5 48.5v13q0 29 -20.5 49t-48.5 20h-148q-28 0 -48 -20z" />
<glyph unicode="&#x2db;" horiz-adv-x="477" d="M212 -200q-21 0 -41 7.5t-36 20.5t-25.5 31.5t-9.5 40.5v2q0 34 16 63.5t42 49.5l22 20h110l-83 -79q-11 -11 -20.5 -23.5t-9.5 -25.5q0 -6 3 -12q6 -11 14 -13.5t21 -4.5h192v-77h-195z" />
<glyph unicode="&#x2dc;" horiz-adv-x="663" d="M535 716q-20 0 -41 5.5t-43 17.5l-211 107q-13 7 -23.5 9.5t-19.5 2.5q-8 0 -17 -6t-9 -32v-89h-69v90q0 53 26 81q25 25 65 25t83 -23l211 -107q26 -13 43 -13q8 0 17 6t9 32v89h70v-90q0 -53 -27 -80q-24 -25 -64 -25z" />
<glyph unicode="&#x2dd;" horiz-adv-x="772" d="M451 904l-190 -189l-54 54l190 189zM671 904l-190 -189l-54 54l190 189z" />
<glyph unicode="&#x401;" horiz-adv-x="1062" d="M416 784v90h86v-90h-86zM706 784v90h86v-90h-86zM237 556q-29 -29 -45 -66.5t-16 -80.5v-25h793v-76h-793v-26q0 -42 16.5 -79.5t45 -65.5t66.5 -44.5t80 -16.5h585v-76h-585q-59 0 -110.5 22.5t-90 61.5t-61 90.5t-22.5 109.5v125q0 59 22.5 110.5t61.5 90t90.5 61 t109.5 22.5h585v-76h-585q-43 0 -80.5 -16t-66.5 -45z" />
<glyph unicode="&#x405;" horiz-adv-x="1018" d="M761 0h-661v76h661q24 0 45 9t37 25t25 37t9 45t-9 45.5t-24.5 37.5t-37 25t-45.5 9h-507q-39 0 -74 15t-61.5 41t-41.5 61t-15 75t15 75.5t41 61.5t61 41.5t75 15.5h661v-76h-661q-25 0 -45.5 -9.5t-36 -25t-24.5 -36.5t-10 -45q4 -50 36 -84t80 -34h507q40 0 75 -15 t61 -41t41 -61t15 -75t-15 -75t-41 -61.5t-61 -41.5t-75 -15z" />
<glyph unicode="&#x407;" horiz-adv-x="833" />
<glyph unicode="&#x40c;" horiz-adv-x="1040" d="M642 898l-190 -189l-54 54l190 189zM970 599q0 -79 -39.5 -144t-103.5 -102q64 -38 103.5 -103t39.5 -144v-106h-76v106q0 43 -16.5 81t-45 66t-66.5 44.5t-81 16.5h-509v-314h-76v701h76v-310h509q43 0 81 16.5t66.5 45t45 66t16.5 80.5v102h76v-102v0z" />
<glyph unicode="&#x410;" horiz-adv-x="1071" d="M923 610q38 -39 60.5 -90.5t22.5 -110.5v-409h-76v318h-754v-318h-76v409q0 59 22.5 110.5t61.5 90t90.5 61t109.5 22.5h338q59 0 110.5 -22.5t90.5 -60.5zM930 394v17q0 42 -16.5 79.5t-45 65.5t-66.5 44.5t-80 16.5h-340q-42 0 -79.5 -16.5t-65.5 -45t-44.5 -66 t-16.5 -80.5v-15h754z" />
<glyph unicode="&#x412;" horiz-adv-x="1105" d="M924 358q38 -27 61.5 -69t23.5 -90q0 -42 -17 -78t-46 -63t-67 -42.5t-80 -15.5h-699v693h696q30 0 59.5 -7t55 -21.5t46.5 -35t34 -47.5q18 -36 18 -74t-16.5 -74t-47.5 -61zM176 398h624q23 0 47 7.5t43 22t31 34.5t12 45q0 26 -12 46.5t-31.5 34.5t-44 21.5t-49.5 7.5 h-620v-219zM923 152q10 21 10 46t-10.5 47t-28.5 39t-42 27t-51 10h-625v-245h625q38 0 72.5 21t49.5 55z" />
<glyph unicode="&#x413;" horiz-adv-x="859" d="M100 0v409q0 58 22.5 110t61 90.5t90 61t110.5 22.5h514v-76h-514q-43 0 -80.5 -16.5t-66 -45t-45 -66t-16.5 -80.5v-409h-76z" />
<glyph unicode="&#x415;" horiz-adv-x="1062" d="M237 556q-29 -29 -45 -66.5t-16 -80.5v-25h793v-76h-793v-26q0 -42 16.5 -79.5t45 -65.5t66.5 -44.5t80 -16.5h585v-76h-585q-59 0 -110.5 22.5t-90 61.5t-61 90.5t-22.5 109.5v125q0 59 22.5 110.5t61.5 90t90.5 61t109.5 22.5h585v-76h-585q-43 0 -80.5 -16t-66.5 -45z " />
<glyph unicode="&#x417;" horiz-adv-x="1142" d="M1039 346q22 -14 27.5 -32t5.5 -39v-148q-2 -19 -10 -38.5t-25 -39.5q-25 -27 -56.5 -38t-72.5 -11h-641q-10 0 -24 1.5t-29 5t-30 9t-27 14.5q-57 42 -57 120v38h76v-38q1 -21 5 -33.5t18 -23.5q12 -10 27 -13t29 -4h653q20 0 33.5 3t22.5 8q12 7 22 17t10 27v143 q0 20 -15 27t-31 7h-715v77h716q13 0 29 8.5t16 25.5v140q-6 27 -30 42.5t-51 15.5h-659q-13 0 -28.5 -4t-26.5 -12q-15 -11 -20 -25.5t-5 -32.5v-38h-76v42q0 35 13.5 65t39.5 50q23 17 54 24t60 7h642q31 -1 59.5 -11t50.5 -27t36 -39.5t17 -48.5v-157q-1 -14 -3.5 -22.5 t-6.5 -15t-10 -12.5t-13 -14z" />
<glyph unicode="&#x418;" horiz-adv-x="1110" d="M299 6q-27 -13 -58 -13q-26 0 -49.5 9t-43 25.5t-32.5 39.5t-16 51v577h77v-570q2 -26 21 -40.5t42 -14.5q13 0 25.5 5t21.5 16l477 562q20 26 47.5 37.5t56.5 11.5q25 0 49.5 -8t44 -24t32.5 -38.5t15 -50.5l1 -3v-578h-76v571q-1 26 -21 40t-43 14q-14 0 -26 -4.5 t-21 -15.5l-477 -562q-14 -17 -23.5 -24t-23.5 -13z" />
<glyph unicode="&#x419;" horiz-adv-x="1110" d="M351 834v-13q0 -29 19.5 -48.5t48.5 -19.5h168q28 0 48.5 19.5t20.5 48.5v13h59v-13q0 -26 -10 -49t-27.5 -40.5t-40.5 -27.5t-50 -10h-168q-53 0 -90 37q-17 17 -27 40.5t-10 49.5v13h59zM299 6q-27 -13 -58 -13q-26 0 -49.5 9t-43 25.5t-32.5 39.5t-16 51v577h77v-570 q2 -26 21 -40.5t42 -14.5q13 0 25.5 5t21.5 16l477 562q20 26 47.5 37.5t56.5 11.5q25 0 49.5 -8t44 -24t32.5 -38.5t15 -50.5l1 -3v-578h-76v571q-1 26 -21 40t-43 14q-14 0 -26 -4.5t-21 -15.5l-477 -562q-14 -17 -23.5 -24t-23.5 -13z" />
<glyph unicode="&#x41a;" horiz-adv-x="1040" d="M970 599q0 -79 -39.5 -144t-103.5 -102q64 -38 103.5 -103t39.5 -144v-106h-76v106q0 43 -16.5 81t-45 66t-66.5 44.5t-81 16.5h-509v-314h-76v701h76v-310h509q43 0 81 16.5t66.5 45t45 66t16.5 80.5v102h76v-102v0z" />
<glyph unicode="&#x41c;" horiz-adv-x="1122" d="M580 -2h-28l-255 586q-11 17 -24.5 24.5t-34.5 7.5q-22 -1 -41.5 -15.5t-20.5 -37.5v-563h-76v567q0 4 1 8t1.5 8t2.5 9q13 41 46 69t79 31h24q20 0 38.5 -8t34.5 -20.5t27.5 -28.5t17.5 -32l206 -475l207 475q13 35 44 61.5t72 27.5h25q25 0 48 -11t41.5 -29t29.5 -40 t12 -45v-567h-76v563q-6 23 -18.5 37t-38.5 18l-8 1q-12 0 -22.5 -4.5t-18 -11.5t-12.5 -14t-7 -13l-252 -578h-24z" />
<glyph unicode="&#x41d;" horiz-adv-x="1015" d="M950 693v-693h-77v335h-697v-335h-76v693h76v-282h697v282h77z" />
<glyph unicode="&#x41e;" horiz-adv-x="1248" d="M384 0q-59 0 -110.5 22.5t-90 61t-61 90t-22.5 110.5v125q0 58 22.5 110t61 90.5t90 61t110.5 22.5h514q59 0 111 -22.5t90.5 -61t61 -90.5t22.5 -110v-125q0 -59 -22.5 -110.5t-61 -90t-90.5 -61t-111 -22.5h-514zM176 409v-125q0 -43 16.5 -80.5t45 -66t66 -45 t80.5 -16.5h514q43 0 81 16.5t66.5 45t45 66t16.5 80.5v125q0 43 -16.5 80.5t-45 66t-66.5 45t-81 16.5h-514q-43 0 -80.5 -16.5t-66 -45t-45 -66t-16.5 -80.5z" />
<glyph unicode="&#x41f;" horiz-adv-x="833" />
<glyph unicode="&#x420;" horiz-adv-x="1111" d="M177 0h-77v693h728q43 0 82.5 -17t69.5 -46t48 -67.5t18 -81.5q0 -44 -18.5 -83t-49 -67.5t-71 -45t-84.5 -16.5h-646v-269zM825 345q29 0 55 10.5t45.5 29t31.5 43.5t13 53q-1 28 -13 53t-32 43.5t-46.5 29t-55.5 10.5h-646v-272h648z" />
<glyph unicode="&#x421;" horiz-adv-x="1034" d="M184 83q-39 39 -61.5 90.5t-22.5 110.5v125q0 58 22.5 110t61 90.5t90.5 61t111 22.5h584v-76h-584q-43 0 -81 -16.5t-66.5 -45t-45 -66t-16.5 -80.5v-125q0 -42 16.5 -80t44.5 -66.5t65.5 -45t80.5 -16.5h586v-76h-584q-59 0 -111 22.5t-90 60.5z" />
<glyph unicode="&#x422;" horiz-adv-x="1031" d="M966 617h-395v-617h-76v617h-395v76h866v-76z" />
<glyph unicode="&#x425;" horiz-adv-x="1017" d="M868 304q39 -39 61.5 -90.5t22.5 -110.5v-103h-76v103q0 42 -16.5 80t-44.5 66.5t-65.5 45t-80.5 16.5h-285q-42 0 -80 -16.5t-66.5 -44.5t-45 -65.5t-16.5 -79.5v-105h-76v103q0 59 22.5 110.5t61.5 90.5q13 13 27.5 24t30.5 21q-34 19 -58 45q-39 39 -61.5 90.5 t-22.5 110.5v98h76v-98q0 -42 16.5 -80t44.5 -66.5t65.5 -45t80.5 -16.5h293q41 0 77.5 16.5t63.5 45t43 66t16 78.5v100h76v-98q0 -59 -22.5 -110.5t-61.5 -90.5q-28 -28 -59 -45q17 -10 31 -21t28 -24z" />
<glyph unicode="&#x42b;" horiz-adv-x="1239" d="M1090 0v693h76v-693h-76zM177 424h646q44 0 84.5 -16.5t71 -45t49 -67.5t18.5 -83q0 -43 -18 -81.5t-48 -67.5t-69.5 -46t-82.5 -17h-728v693h77v-269zM177 348v-272h646q29 0 55.5 10.5t46.5 29t32 43t13 53.5q-1 28 -13 53t-31.5 43.5t-45.5 29t-55 10.5h-648z" />
<glyph unicode="&#x42c;" horiz-adv-x="1111" d="M177 424h646q44 0 84.5 -16.5t71 -45t49 -67.5t18.5 -83q0 -43 -18 -81.5t-48 -67.5t-69.5 -46t-82.5 -17h-728v693h77v-269zM177 348v-272h646q29 0 55.5 10.5t46.5 29t32 43t13 53.5q-1 28 -13 53t-31.5 43.5t-45.5 29t-55 10.5h-648z" />
<glyph unicode="&#x42f;" horiz-adv-x="1124" d="M167 331q-32 29 -49.5 67.5t-17.5 82.5q0 55 27.5 101.5t72.5 75.5q26 17 57.5 26t65.5 9h722v-693h-76v269h-587l-201 -269h-95l203 272q-72 11 -122 59zM969 617h-646q-29 0 -55.5 -10.5t-47 -28.5t-32.5 -43t-12 -54t12 -53.5t31.5 -43t45.5 -29t54 -10.5h650v272z " />
<glyph unicode="&#x430;" horiz-adv-x="1083" d="M322 0q-68 0 -123 34.5t-81 93.5q-18 39 -18 83q0 45 17.5 83.5t47.5 67t69.5 45t83.5 16.5h596v47q0 30 -12 57t-32.5 46.5t-47 31.5t-56.5 12h-503v76h503q46 0 87 -17.5t71 -48t48 -71t18 -86.5v-471zM240 323q-30 -19 -47 -48t-17 -64q0 -29 11.5 -53.5t31 -42.5 t45 -28.5t54.5 -10.5h596v271h-592q-23 0 -44 -6.5t-38 -17.5z" />
<glyph unicode="&#x435;" horiz-adv-x="1064" d="M100 483q0 44 18.5 82.5t49 66.5t70.5 44t85 16h448q44 0 83.5 -16.5t69.5 -45.5t48 -67.5t18 -82.5q0 -45 -18 -83.5t-49 -67t-71 -45t-85 -16.5h-591v-95q4 -26 17.5 -44t33.5 -30t45 -17.5t51 -5.5h614v-76h-619q-38 0 -76.5 12t-69.5 34t-51 54t-21 73v310zM187 533 q-11 -24 -11 -50v-139h595q28 0 54 10.5t46 29t31.5 43t11.5 53.5t-12 54t-32.5 43t-47 28.5t-55.5 10.5h-444q-45 0 -81.5 -22t-54.5 -61z" />
<glyph unicode="&#x43a;" horiz-adv-x="833" />
<glyph unicode="&#x43d;" horiz-adv-x="1015" d="M950 693v-693h-77v335h-697v-335h-76v693h76v-282h697v282h77z" />
<glyph unicode="&#x43e;" horiz-adv-x="1248" d="M384 0q-59 0 -110.5 22.5t-90 61t-61 90t-22.5 110.5v125q0 58 22.5 110t61 90.5t90 61t110.5 22.5h514q59 0 111 -22.5t90.5 -61t61 -90.5t22.5 -110v-125q0 -59 -22.5 -110.5t-61 -90t-90.5 -61t-111 -22.5h-514zM176 409v-125q0 -43 16.5 -80.5t45 -66t66 -45 t80.5 -16.5h514q43 0 81 16.5t66.5 45t45 66t16.5 80.5v125q0 43 -16.5 80.5t-45 66t-66.5 45t-81 16.5h-514q-43 0 -80.5 -16.5t-66 -45t-45 -66t-16.5 -80.5z" />
<glyph unicode="&#x43f;" horiz-adv-x="1017" d="M668 693q58 0 110 -22.5t90.5 -61t61 -90.5t22.5 -111v-408h-76v408q0 42 -16.5 80t-44.5 66.5t-65.5 45.5t-79.5 17h-494v-617h-76v693h568z" />
<glyph unicode="&#x440;" horiz-adv-x="1111" d="M177 0h-77v693h728q43 0 82.5 -17t69.5 -46t48 -67.5t18 -81.5q0 -44 -18.5 -83t-49 -67.5t-71 -45t-84.5 -16.5h-646v-269zM825 345q29 0 55 10.5t45.5 29t31.5 43.5t13 53q-1 28 -13 53t-32 43.5t-46.5 29t-55.5 10.5h-646v-272h648z" />
<glyph unicode="&#x441;" horiz-adv-x="1034" d="M184 83q-39 39 -61.5 90.5t-22.5 110.5v125q0 58 22.5 110t61 90.5t90.5 61t111 22.5h584v-76h-584q-43 0 -81 -16.5t-66.5 -45t-45 -66t-16.5 -80.5v-125q0 -42 16.5 -80t44.5 -66.5t65.5 -45t80.5 -16.5h586v-76h-584q-59 0 -111 22.5t-90 60.5z" />
<glyph unicode="&#x442;" horiz-adv-x="1508" d="M1159 693q58 0 110 -22.5t90.5 -61t61 -90.5t22.5 -111v-408h-76v408q0 42 -16.5 80t-44.5 66.5t-65.5 45.5t-79.5 17h-384v-617h-76v617h-525v-617h-76v693h1059v0z" />
<glyph unicode="&#x443;" horiz-adv-x="1017" d="M952 693v-409q0 -59 -22.5 -110.5t-61 -90t-90 -61t-110.5 -22.5h-514v76h514q43 0 80.5 16.5t66 45t45 66t16.5 80.5v16h-492q-59 0 -110.5 22.5t-90 61t-61 90.5t-22.5 111v108h76v-108q0 -42 16.5 -80t44.5 -66.5t65.5 -45.5t79.5 -17h494v317h76z" />
<glyph unicode="&#x445;" d="M426 324q-72 0 -117.5 -10.5t-70.5 -34t-34 -60.5t-9 -90v-129h-65v135q0 97 34 148t114 72q-148 34 -148 231v114h65v-104q0 -57 9 -97t34.5 -65t70.5 -36.5t117 -11.5h311q72 0 117 11.5t70.5 36.5t34.5 65t9 97v104h65v-114q0 -197 -148 -231q80 -21 114 -72t34 -148 v-135h-65v129q0 53 -9 90t-34 60.5t-70.5 34t-117.5 10.5h-311z" />
<glyph unicode="&#x44c;" horiz-adv-x="1126" d="M177 424h646q44 0 84.5 -16.5t71 -45t49 -67.5t18.5 -83q0 -43 -18 -81.5t-48 -67.5t-69.5 -46t-82.5 -17h-728v693h77v-269zM177 348v-272h646q29 0 55.5 10.5t46.5 29t32 43t13 53.5q-1 28 -13 53t-31.5 43.5t-45.5 29t-55 10.5h-648z" />
<glyph unicode="&#x44f;" horiz-adv-x="1120" d="M167 331q-32 29 -49.5 67.5t-17.5 82.5q0 55 27.5 101.5t72.5 75.5q26 17 57.5 26t65.5 9h722v-693h-76v269h-587l-201 -269h-95l203 272q-72 11 -122 59zM969 617h-646q-29 0 -55.5 -10.5t-47 -28.5t-32.5 -43t-12 -54t12 -53.5t31.5 -43t45.5 -29t54 -10.5h650v272z " />
<glyph unicode="&#x451;" horiz-adv-x="1064" d="M344 790v90h86v-90h-86zM634 790v90h86v-90h-86zM100 483q0 44 18.5 82.5t49 66.5t70.5 44t85 16h448q44 0 83.5 -16.5t69.5 -45.5t48 -67.5t18 -82.5q0 -45 -18 -83.5t-49 -67t-71 -45t-85 -16.5h-591v-95q4 -26 17.5 -44t33.5 -30t45 -17.5t51 -5.5h614v-76h-619 q-38 0 -76.5 12t-69.5 34t-51 54t-21 73v310zM187 533q-11 -24 -11 -50v-139h595q28 0 54 10.5t46 29t31.5 43t11.5 53.5t-12 54t-32.5 43t-47 28.5t-55.5 10.5h-444q-45 0 -81.5 -22t-54.5 -61z" />
<glyph unicode="&#x455;" horiz-adv-x="1018" d="M761 0h-661v76h661q24 0 45 9t37 25t25 37t9 45t-9 45.5t-24.5 37.5t-37 25t-45.5 9h-507q-39 0 -74 15t-61.5 41t-41.5 61t-15 75t15 75.5t41 61.5t61 41.5t75 15.5h661v-76h-661q-25 0 -45.5 -9.5t-36 -25t-24.5 -36.5t-10 -45q4 -50 36 -84t80 -34h507q40 0 75 -15 t61 -41t41 -61t15 -75t-15 -75t-41 -61.5t-61 -41.5t-75 -15z" />
<glyph unicode="&#x457;" horiz-adv-x="465" d="M46 790v90h86v-90h-86zM336 790v90h86v-90h-86z" />
<glyph unicode="&#x458;" horiz-adv-x="1060" d="M224 693h728v-409q0 -59 -22.5 -110.5t-61.5 -90.5q-38 -38 -89.5 -60.5t-110.5 -22.5h-283q-60 0 -111.5 22.5t-89.5 60.5q-39 39 -61.5 90.5t-22.5 110.5v59h76v-59q0 -42 16.5 -80t44.5 -66.5t65.5 -45t80.5 -16.5h285q42 0 80 16.5t66.5 44.5t45 65.5t16.5 79.5v335 h-652v76z" />
<glyph unicode="&#x2013;" horiz-adv-x="951" d="M80 386h791v-60h-791v60z" />
<glyph unicode="&#x2014;" horiz-adv-x="1229" d="M80 386h1069v-60h-1069v60z" />
<glyph unicode="&#x2018;" horiz-adv-x="286" d="M141 477l-61 223h85l61 -223h-85z" />
<glyph unicode="&#x2019;" horiz-adv-x="286" d="M80 477l61 223h85l-61 -223h-85z" />
<glyph unicode="&#x201a;" horiz-adv-x="280" d="M80 -114l55 203h65l-55 -203h-65z" />
<glyph unicode="&#x201c;" horiz-adv-x="476" d="M321 477l-61 223h85l61 -223h-85zM141 477l-61 223h85l61 -223h-85z" />
<glyph unicode="&#x201d;" horiz-adv-x="491" d="M80 477l61 223h85l-61 -223h-85zM260 477l61 223h85l-61 -223h-85z" />
<glyph unicode="&#x201e;" horiz-adv-x="510" d="M80 -114l55 203h65l-55 -203h-65zM310 -114l55 203h65l-55 -203h-65z" />
<glyph unicode="&#x2020;" horiz-adv-x="515" />
<glyph unicode="&#x2021;" horiz-adv-x="515" />
<glyph unicode="&#x2022;" horiz-adv-x="470" d="M80 350q0 32 12 60.5t33 49.5t49.5 33t60.5 12t60.5 -12t49.5 -33t33 -49.5t12 -60.5t-12 -60.5t-33 -49.5t-49.5 -33t-60.5 -12t-60.5 12t-49.5 33t-33 49.5t-12 60.5zM235 459q-23 0 -42.5 -8.5t-34.5 -23.5t-23.5 -35t-8.5 -42q0 -23 8.5 -42.5t23.5 -34.5t34.5 -23.5 t42.5 -8.5q22 0 42 8.5t35 23.5t23.5 34.5t8.5 42.5q0 22 -8.5 42t-23.5 35t-35 23.5t-42 8.5z" />
<glyph unicode="&#x2026;" horiz-adv-x="776" d="M90 0v89h92v-89h-92zM342 0v89h92v-89h-92zM594 0v89h92v-89h-92z" />
<glyph unicode="&#x2030;" horiz-adv-x="1661" d="M283 -11l457 719h85l-457 -719h-85zM903 0h-173q-31 0 -58 11.5t-47 31.5t-32 47.5t-12 58.5v15q0 31 11.5 58t32 47.5t47.5 32.5t58 12h173q31 0 58 -12t47 -32t32 -47.5t12 -58.5v-15q0 -30 -11.5 -57.5t-32 -47.5t-47.5 -32t-58 -12zM673 221q-11 -11 -17 -25.5 t-6 -31.5v-15q0 -33 23.5 -56.5t56.5 -23.5h173q33 0 56.5 23.5t23.5 56.5v15q0 34 -23.5 57.5t-56.5 23.5h-173q-33 0 -57 -24zM393 384h-173q-31 0 -58 11.5t-47 31.5t-32 47.5t-12 58.5v15q0 31 11.5 58t32 47.5t47.5 32.5t58 12h173q31 0 58 -12t47 -32t32 -47.5 t12 -58.5v-15q0 -30 -11.5 -57.5t-32 -47.5t-47.5 -32t-58 -12zM163 605q-11 -11 -17 -25.5t-6 -31.5v-15q0 -33 23.5 -56.5t56.5 -23.5h173q33 0 56.5 23.5t23.5 56.5v15q0 34 -23.5 57.5t-56.5 23.5h-173q-33 0 -57 -24zM1423 0h-173q-31 0 -58 11.5t-47 31.5t-32 47.5 t-12 58.5v15q0 31 11.5 58t32 47.5t47.5 32.5t58 12h173q31 0 58 -12t47 -32t32 -47.5t12 -58.5v-15q0 -30 -11.5 -57.5t-32 -47.5t-47.5 -32t-58 -12zM1193 221q-11 -11 -17 -25.5t-6 -31.5v-15q0 -33 23.5 -56.5t56.5 -23.5h173q33 0 56.5 23.5t23.5 56.5v15 q0 34 -23.5 57.5t-56.5 23.5h-173q-33 0 -57 -24z" />
<glyph unicode="&#x2039;" horiz-adv-x="0" />
<glyph unicode="&#x203a;" horiz-adv-x="0" />
<glyph unicode="&#x2044;" horiz-adv-x="782" d="M677 700h75l-647 -700h-75z" />
<glyph unicode="&#x2215;" horiz-adv-x="782" d="M677 700h75l-647 -700h-75z" />
<glyph unicode="&#x20ac;" horiz-adv-x="1123" d="M435 617q-36 0 -69 -12t-59.5 -33t-45.5 -50t-28 -63h761v-76h-768v-73h768v-76h-762q9 -34 28 -63t45.5 -50t59 -33t68.5 -12h586v-76h-584q-59 0 -111 22.5t-90 60.5q-30 30 -50.5 68.5t-28.5 82.5h-87v76h82v73h-82v76h87q9 49 34 92t62.5 74.5t84 49.5t99.5 18h584 v-76h-584v0z" />
<glyph unicode="&#x2122;" horiz-adv-x="2153" />
<glyph unicode="&#xe000;" horiz-adv-x="695" d="M0 695h695v-695h-695v695z" />
<glyph unicode="&#xf004;" horiz-adv-x="270" d="M48 -151l87 186l69 -32l-87 -186z" />
<glyph unicode="&#xf6c3;" horiz-adv-x="270" d="M48 -151l87 186l69 -32l-87 -186z" />
<glyph unicode="&#xf6be;" horiz-adv-x="1032" d="M173 83q-39 39 -61.5 90.5t-22.5 110.5v59h76v-59q0 -42 16.5 -80t44.5 -66.5t65.5 -45t80.5 -16.5h285q42 0 80 16.5t66.5 44.5t45 65.5t16.5 79.5v411h76v-409q0 -59 -22.5 -110.5t-61.5 -90.5q-38 -38 -89.5 -60.5t-110.5 -22.5h-283q-60 0 -111.5 22.5t-89.5 60.5z " />
<glyph unicode="&#xfb0f;" horiz-adv-x="1032" d="M173 83q-39 39 -61.5 90.5t-22.5 110.5v59h76v-59q0 -42 16.5 -80t44.5 -66.5t65.5 -45t80.5 -16.5h285q42 0 80 16.5t66.5 44.5t45 65.5t16.5 79.5v411h76v-409q0 -59 -22.5 -110.5t-61.5 -90.5q-38 -38 -89.5 -60.5t-110.5 -22.5h-283q-60 0 -111.5 22.5t-89.5 60.5z " />
<glyph unicode="&#xfb01;" horiz-adv-x="1179" d="M1016 0v693h76v-693h-76zM237 555q-29 -28 -45 -65.5t-16 -81.5v-27h747v-76h-747v-305h-76v408q0 60 22.5 111.5t60.5 89.5q39 39 90.5 61.5t110.5 22.5h584v-76h-584q-43 0 -80.5 -16.5t-66.5 -45.5z" />
<glyph unicode="&#xfb02;" horiz-adv-x="2002" d="M237 555q-29 -28 -45 -65.5t-16 -81.5v-27h747v-76h-747v-305h-76v408q0 60 22.5 111.5t60.5 89.5q39 39 90.5 61.5t110.5 22.5h584v-76h-584q-43 0 -80.5 -16.5t-66.5 -45.5zM1209 693v-408q0 -44 16 -81.5t45 -65.5q29 -29 66.5 -45.5t80.5 -16.5h584v-76h-584 q-59 0 -110.5 22.5t-90.5 61.5q-38 38 -60.5 89.5t-22.5 111.5v408h76z" />
<glyph horiz-adv-x="833" />
<glyph horiz-adv-x="0" />
<glyph horiz-adv-x="2153" />
</font>
</defs>
</svg>
