<?xml version="1.0" standalone="no"?>
<!DOCTYPE svg PUBLIC "-//W3C//DTD SVG 1.1//EN" "http://www.w3.org/Graphics/SVG/1.1/DTD/svg11.dtd" >
<svg xmlns="http://www.w3.org/2000/svg">
<metadata>
This is a custom SVG font generated by IcoMoon.
<iconset grid="32"></iconset>
</metadata>
<defs>
<font id="SimiansBlogStandard" horiz-adv-x="1024" >
<font-face units-per-em="1024" ascent="992" descent="-32" />
<missing-glyph horiz-adv-x="1024" />
<glyph unicode="&#xe008;" d="M 128.00,416.00c0.00-35.348, 28.654-64.00, 64.00-64.00s 64.00,28.652, 64.00,64.00L 256.00,645.492 l 530.746-530.748c 24.992-24.992, 65.516-24.992, 90.508,0.00
	C 889.752,127.242, 896.00,143.622, 896.00,160.00s-6.248,32.758-18.746,45.254L 346.508,736.00L 576.00,736.00 c 35.346,0.00, 64.00,28.654, 64.00,64.00s-28.654,64.00-64.00,64.00L 128.00,864.00 
	L 128.00,416.00 z" data-tags="arrow-up-left, up, left, arrow, top left, up left" />
<glyph unicode="&#xe009;" d="M 877.254,589.254l-320.00,320.00c-24.992,24.994-65.514,24.994-90.508,0.00l-320.00-320.00c-24.994-24.994-24.994-65.516,0.00-90.51
	c 24.994-24.996, 65.516-24.996, 90.51,0.00L 448.00,709.49L 448.00,96.00 c0.00-35.346, 28.654-64.00, 64.00-64.00c 35.346,0.00, 64.00,28.654, 64.00,64.00L 576.00,709.49 l 210.746-210.746
	C 799.242,486.248, 815.622,480.00, 832.00,480.00s 32.758,6.248, 45.254,18.746C 902.248,523.74, 902.248,564.26, 877.254,589.254z" data-tags="arrow-up, upload, top" />
<glyph unicode="&#xe00a;" d="M 832.02,864.00c-0.012,0.00-0.028,0.00-0.04,0.00L 448.00,864.00 c-35.346,0.00-64.00-28.654-64.00-64.00s 28.654-64.00, 64.00-64.00l 229.492,0.00 L 146.746,205.254
	c-24.994-24.992-24.994-65.516,0.00-90.508C 159.242,102.248, 175.622,96.00, 192.00,96.00s 32.758,6.248, 45.254,18.746L 768.00,645.492L 768.00,416.00 
	c0.00-35.346, 28.654-64.00, 64.00-64.00s 64.00,28.654, 64.00,64.00L 896.00,864.00 L 832.02,864.00 z" data-tags="arrow-up-right, up, right, arrow, top right, up right" />
<glyph unicode="&#xe00b;" d="M 621.254,114.746l 320.00,320.00c 24.994,24.992, 24.994,65.516,0.00,90.51l-320.00,320.00c-24.994,24.992-65.516,24.992-90.51,0.00
	c-24.994-24.994-24.994-65.516,0.00-90.51L 741.49,544.00L 128.00,544.00 c-35.346,0.00-64.00-28.654-64.00-64.00s 28.654-64.00, 64.00-64.00l 613.49,0.00 L 530.744,205.254
	C 518.248,192.758, 512.00,176.378, 512.00,160.00s 6.248-32.758, 18.744-45.254C 555.738,89.752, 596.26,89.752, 621.254,114.746z" data-tags="arrow-right, right, next" />
<glyph unicode="&#xe00c;" d="M 896.00,544.00c0.00,35.348-28.652,64.00-64.00,64.00c-35.346,0.00-64.00-28.652-64.00-64.00l0.00-229.492 L 237.254,845.256
	c-24.992,24.992-65.516,24.992-90.508,0.00C 134.248,832.758, 128.00,816.378, 128.00,800.00s 6.248-32.758, 18.746-45.254L 677.492,224.00L 448.00,224.00 
	c-35.346,0.00-64.00-28.654-64.00-64.00s 28.654-64.00, 64.00-64.00l 448.00,0.00 L 896.00,544.00 z" data-tags="arrow-down-right, down, right, arrow, bottom right, down right" />
<glyph unicode="&#xe00d;" d="M 146.746,370.746l 320.00-320.00c 24.992-24.994, 65.516-24.994, 90.51,0.00l 320.00,320.00c 24.992,24.994, 24.992,65.516,0.00,90.51
	c-24.994,24.994-65.516,24.994-90.51,0.00L 576.00,250.51L 576.00,864.00 c0.00,35.346-28.654,64.00-64.00,64.00s-64.00-28.654-64.00-64.00l0.00-613.49 L 237.254,461.256
	C 224.758,473.752, 208.378,480.00, 192.00,480.00s-32.758-6.248-45.254-18.744C 121.752,436.262, 121.752,395.74, 146.746,370.746z" data-tags="arrow-down, download, bottom" />
<glyph unicode="&#xe00e;" d="M 576.00,96.00c 35.348,0.00, 64.00,28.652, 64.00,64.00c0.00,35.346-28.652,64.00-64.00,64.00L 346.508,224.00 l 530.748,530.746c 24.992,24.992, 24.992,65.516,0.00,90.508
	C 864.758,857.752, 848.378,864.00, 832.00,864.00s-32.758-6.248-45.254-18.746L 256.00,314.508L 256.00,544.00 c0.00,35.346-28.654,64.00-64.00,64.00s-64.00-28.654-64.00-64.00l0.00-448.00 L 576.00,96.00 z
	" data-tags="arrow-down-left, down, left, arrow, bottom left, down left" />
<glyph unicode="&#xe00f;" d="M 402.746,845.254l-320.00-320.00c-24.994-24.992-24.994-65.516,0.00-90.508l 320.00-320.00c 24.994-24.992, 65.516-24.992, 90.51,0.00
	c 24.996,24.992, 24.996,65.516,0.00,90.508L 282.508,416.00L 896.00,416.00 c 35.346,0.00, 64.00,28.652, 64.00,64.00c0.00,35.346-28.654,64.00-64.00,64.00L 282.508,544.00 l 210.746,210.746
	C 505.75,767.242, 512.00,783.622, 512.00,800.00s-6.248,32.758-18.744,45.254C 468.26,870.248, 427.74,870.248, 402.746,845.254z" data-tags="arrow-left, left, previous" />
<glyph unicode="&#xe010;" d="M 716.749,715.52L 716.80,244.48L 307.20,480.00 z" data-tags="arrow-left, left, triangle, previous" />
<glyph unicode="&#xe011;" d="M 747.52,684.749L 276.48,684.80L 512.00,275.20 z" data-tags="arrow-down, triangle, down, bottom" />
<glyph unicode="&#xe012;" d="M 276.48,275.20L 747.52,275.20L 511.949,684.80 z" data-tags="arrow-up, triangle, up, top" />
<glyph unicode="&#xe013;" d="M 307.251,715.52L 307.20,244.48L 716.80,480.00 z" data-tags="arrow-right, triangle, right, next" />
<glyph unicode="&#xe014;" d="M 585.574,760.781c-21.402-20.89-230.502-240.435-230.502-240.435C 343.654,509.184, 337.971,494.592, 337.971,480.00s 5.683-29.184, 17.101-40.346
	c0.00,0.00, 209.101-219.546, 230.502-240.384c 21.402-20.89, 59.904-22.323, 82.739,0.00c 22.784,22.272, 24.576,53.35-0.051,80.64L 476.416,480.00l 191.846,200.09
	c 24.627,27.341, 22.835,58.419, 0.051,80.691C 645.427,783.053, 606.925,781.67, 585.574,760.781z" data-tags="arrow-left, left, previous" />
<glyph unicode="&#xe015;" d="M 792.73,553.574c-20.838-21.402-240.384-230.554-240.384-230.554C 541.184,311.603, 526.592,305.92, 512.00,305.92c-14.643,0.00-29.235,5.683-40.346,17.101
	c0.00,0.00-219.546,209.152-240.435,230.554c-20.838,21.402-22.272,59.853,0.00,82.739c 22.323,22.835, 53.402,24.627, 80.691,0.00L 512.00,444.416l 200.038,191.846
	c 27.341,24.627, 58.47,22.835, 80.691,0.00C 815.053,613.427, 813.67,574.925, 792.73,553.574z" data-tags="arrow-down, down, bottom" />
<glyph unicode="&#xe016;" d="M 792.73,406.426c-20.838,21.402-240.384,230.502-240.384,230.502C 541.184,648.346, 526.592,654.08, 512.00,654.08c-14.643,0.00-29.235-5.734-40.346-17.152
	c0.00,0.00-219.546-209.101-240.435-230.502c-20.838-21.402-22.272-59.904,0.00-82.739c 22.323-22.784, 53.402-24.627, 80.691,0.00L 512.00,515.533l 200.038-191.846
	c 27.341-24.627, 58.47-22.784, 80.691,0.00C 815.053,346.573, 813.67,385.075, 792.73,406.426z" data-tags="arrow-up, up, top" />
<glyph unicode="&#xe017;" d="M 438.426,760.781c 21.402-20.89, 230.502-240.435, 230.502-240.435C 680.397,509.184, 686.08,494.592, 686.08,480.00s-5.683-29.184-17.152-40.346
	c0.00,0.00-209.101-219.546-230.502-240.384c-21.402-20.89-59.853-22.323-82.739,0.00c-22.835,22.272-24.627,53.35,0.00,80.64L 547.584,480.00L 355.738,680.09
	c-24.627,27.341-22.835,58.419,0.00,80.691C 378.573,783.053, 417.075,781.67, 438.426,760.781z" data-tags="arrow-right, right, next" />
<glyph unicode="&#xe018;" d="M 512.00,928.00c-141.384,0.00-269.376-57.32-362.032-149.978L0.00,928.00l0.00-384.00 l 384.00,0.00 l-143.532,143.522C 309.964,757.014, 405.96,800.00, 512.00,800.00
	c 212.068,0.00, 384.00-171.924, 384.00-384.00c0.00-114.696-50.292-217.636-130.018-288.00l 84.666-96.00C 956.95,125.816, 1024.00,263.076, 1024.00,416.00
	C 1024.00,698.77, 794.77,928.00, 512.00,928.00z" data-tags="undo, arrow, left" />
<glyph unicode="&#xe019;" d="M0.00,416.00c0.00-152.924, 67.048-290.184, 173.35-384.00l 84.666,96.00C 178.29,198.364, 128.00,301.304, 128.00,416.00c0.00,212.076, 171.93,384.00, 384.00,384.00
	c 106.042,0.00, 202.038-42.986, 271.53-112.478L 640.00,544.00l 384.00,0.00 L 1024.00,928.00 l-149.97-149.978C 781.376,870.68, 653.386,928.00, 512.00,928.00
	C 229.23,928.00,0.00,698.77,0.00,416.00z" data-tags="redo, arrow, right" />
<glyph unicode="&#xe01a;" d="M 761.862-32.00C 875.588,174.032, 894.75,488.306, 448.00,477.824L 448.00,224.00 L 64.00,608.00L 448.00,992.00l0.00-248.372 
	C 982.962,757.57, 1042.57,271.414, 761.862-32.00z" data-tags="undo, arrow, left" />
<glyph unicode="&#xe01b;" d="M 576.00,743.628L 576.00,992.00 l 384.00-384.00L 576.00,224.00L 576.00,477.824 C 129.25,488.306, 148.412,174.032, 262.14-32.00
	C-18.572,271.414, 41.04,757.57, 576.00,743.628z" data-tags="redo, arrow, right" />
<glyph unicode="&#xe01c;" d="M 262.14,992.00C 148.412,785.968, 129.25,471.696, 576.00,482.176L 576.00,736.00 l 384.00-384.00L 576.00-32.00L 576.00,216.372 C 41.04,202.43-18.572,688.586, 262.14,992.00z" data-tags="forward, arrow, right" />
<glyph unicode="&#xe01d;" d="M 448.00,216.372L 448.00-32.00 L 64.00,352.00l 384.00,384.00l0.00-253.824 C 894.75,471.696, 875.588,785.968, 761.862,992.00
	C 1042.572,688.586, 982.962,202.43, 448.00,216.372z" data-tags="reply, arrow, left" />
<glyph unicode="&#xe01e;" d="M 874.022,842.02C 781.37,934.676, 653.386,992.00, 512.00,992.00C 292.512,992.00, 105.31,853.872, 32.502,659.812l 119.876-44.954
		C 206.982,760.404, 347.384,864.00, 512.00,864.00c 106.04,0.00, 202.02-43.00, 271.506-112.494L 640.00,608.00l 384.00,0.00 L 1024.00,992.00 L 874.022,842.02zM 512.00,96.00c-106.04,0.00-202.026,42.992-271.512,112.488L 384.00,352.00L0.00,352.00 l0.00-384.00 l 149.994,149.994C 242.64,25.332, 370.612-32.00, 512.00-32.00
		c 219.49,0.00, 406.692,138.128, 479.50,332.188l-119.876,44.954C 817.02,199.596, 676.618,96.00, 512.00,96.00z" data-tags="loop, repeat, reload, refresh, update, upgrade, synchronize, media control, arrows" />
<glyph unicode="&#xe000;" d="M 64.00,608.00L 512.00,608.00L 512.00,928.00L 960.00,480.00L 512.00,32.00L 512.00,352.00L 64.00,352.00 z" data-tags="arrow-right, right, next" />
<glyph unicode="&#xe001;" d="M 960.00,352.00L 512.00,352.00L 512.00,32.00L 64.00,480.00L 512.00,928.00L 512.00,608.00L 960.00,608.00 z" data-tags="arrow-left, left, previous" />
<glyph unicode="&#xe002;" d="M 384.00,32.00L 384.00,480.00L 64.00,480.00L 512.00,928.00L 960.00,480.00L 640.00,480.00L 640.00,32.00 z" data-tags="arrow-up, upload, top" />
<glyph unicode="&#xe003;" d="M 640.00,928.00L 640.00,480.00L 960.00,480.00L 512.00,32.00L 64.00,480.00L 384.00,480.00L 384.00,928.00 z" data-tags="arrow-down, download, bottom" />
<glyph unicode="&#xe004;" d="M 916.064,703.072L 735.072,884.064L 418.272,567.328L 192.00,793.568L 192.00,160.00L 825.568,160.00L 599.296,386.272 z" data-tags="arrow-down-left, down left, bottom left" />
<glyph unicode="&#xe005;" d="M 288.928,884.064L 107.936,703.072L 424.672,386.272L 198.432,160.00L 832.00,160.00L 832.00,793.568L 605.728,567.296 z" data-tags="arrow-down-right, down right, bottom right" />
<glyph unicode="&#xe006;" d="M 735.072,75.936L 916.064,256.928L 599.328,573.728L 825.568,800.00L 192.00,800.00L 192.00,166.432L 418.272,392.704 z" data-tags="arrow-up-left, up left, top left" />
<glyph unicode="&#xe007;" d="M 107.936,256.928L 288.928,75.936L 605.728,392.672L 832.00,166.432L 832.00,800.00L 198.432,800.00L 424.704,573.728 z" data-tags="arrow-up-right, up right, top right" />
<glyph unicode="&#xe01f;" d="M 512.00,992.00L 276.48,618.24l 470.989,0.00L 512.00,992.00z M 512.051-32.00l 235.469,373.76L 276.48,341.811L 512.051-32.00z" data-tags="menu, arrows, up-down, dropdown" />
<glyph unicode="&#xe020;" d="M 192.00,864.00L 832.00,480.00L 192.00,96.00 z" data-tags="play, media control, audio" />
<glyph unicode="&#xe021;" d="M 128.00,864.00L 448.00,864.00L 448.00,96.00L 128.00,96.00zM 576.00,864.00L 896.00,864.00L 896.00,96.00L 576.00,96.00z" data-tags="pause, media control, audio" />
<glyph unicode="&#xe022;" d="M 512.00,128.00 L 512.00,448.00 L 192.00,128.00 L 192.00,832.00 L 512.00,512.00 L 512.00,832.00 L 864.00,480.00 Z" data-tags="forward, media control, audio" />
<glyph unicode="&#xe023;" d="M 576.00,832.00 L 576.00,512.00 L 896.00,832.00 L 896.00,128.00 L 576.00,448.00 L 576.00,128.00 L 224.00,480.00 Z" data-tags="backward, media control, audio" />
<glyph unicode="&#xe024;" d="M 128.00,96.00 L 128.00,864.00 L 256.00,864.00 L 256.00,512.00 L 576.00,832.00 L 576.00,512.00 L 896.00,832.00 L 896.00,128.00 L 576.00,448.00 L 576.00,128.00 L 256.00,448.00 L 256.00,96.00 Z" data-tags="first, media control, audio" />
<glyph unicode="&#xe025;" d="M 896.00,864.00 L 896.00,96.00 L 768.00,96.00 L 768.00,448.00 L 448.00,128.00 L 448.00,448.00 L 128.00,128.00 L 128.00,832.00 L 448.00,512.00 L 448.00,832.00 L 768.00,512.00 L 768.00,864.00 Z" data-tags="last, media control, audio" />
<glyph unicode="&#xe026;" d="M 128.00,864.00L 896.00,864.00L 896.00,96.00L 128.00,96.00z" data-tags="stop, media control, audio, square" />
<glyph unicode="&#xe027;" d="M 256.00,96.00 L 256.00,864.00 L 384.00,864.00 L 384.00,512.00 L 704.00,832.00 L 704.00,128.00 L 384.00,448.00 L 384.00,96.00 Z" data-tags="previous, media control, audio" />
<glyph unicode="&#xe028;" d="M 768.00,864.00 L 768.00,96.00 L 640.00,96.00 L 640.00,448.00 L 320.00,128.00 L 320.00,832.00 L 640.00,512.00 L 640.00,864.00 Z" data-tags="next, media control, audio" />
<glyph unicode="&#xe029;" d="M0.00,224.00L 1024.00,224.00L 1024.00,96.00L0.00,96.00zM 512.00,864.00 L 1024.00,352.00 L 0.00,352.00 Z" data-tags="eject, media control, audio" />
<glyph unicode="&#xe02a;" d="M 401.332,913.332 C 427.00,939.00 448.00,930.30 448.00,894.00 L 448.00,66.00 C 448.00,29.70 427.00,21.002 401.332,46.67 L 160.00,288.00 L 0.00,288.00 L 0.00,672.00 L 160.00,672.00 L 401.332,913.332 Z" data-tags="volume-mute, speaker, media control, audio, mute" />
<glyph unicode="&#xe02b;" d="M 549.02,250.98c-12.286,0.00-24.568,4.686-33.942,14.058c-18.746,18.746-18.746,49.136,0.00,67.882
		c 81.10,81.10, 81.10,213.058,0.00,294.156c-18.746,18.746-18.746,49.138,0.00,67.882c 18.746,18.744, 49.136,18.744, 67.882,0.00
		c 118.53-118.53, 118.53-311.392,0.00-429.922C 573.588,255.666, 561.304,250.98, 549.02,250.98zM 401.332,913.332 C 427.00,939.00 448.00,930.30 448.00,894.00 L 448.00,66.00 C 448.00,29.70 427.00,21.002 401.332,46.67 L 160.00,288.00 L 0.00,288.00 L 0.00,672.00 L 160.00,672.00 L 401.332,913.332 Z" data-tags="volume-low, speaker, media control, audio" />
<glyph unicode="&#xe02c;" d="M 401.332,913.332 C 427.00,939.00 448.00,930.30 448.00,894.00 L 448.00,66.00 C 448.00,29.70 427.00,21.002 401.332,46.67 L 160.00,288.00 L 0.00,288.00 L 0.00,672.00 L 160.00,672.00 L 401.332,913.332 ZM 960.00,372.852 L 960.00,288.00 L 875.148,288.00 L 768.00,395.148 L 660.852,288.00 L 576.00,288.00 L 576.00,372.852 L 683.148,480.00 L 576.00,587.148 L 576.00,672.00 L 660.852,672.00 L 768.00,564.852 L 875.148,672.00 L 960.00,672.00 L 960.00,587.148 L 852.852,480.00 Z" data-tags="volume-mute, speaker, media control, audio, mute" />
<glyph unicode="&#xf011;" d="M 877.714,480.00q0.00-89.143 -34.857-170.286t-93.714-140.00t-140.00-93.714t-170.286-34.857t-170.286,34.857t-140.00,93.714t-93.714,140.00t-34.857,170.286q0.00,104.00 46.00,196.00t 129.429,154.286q 24.571,18.286 54.571,14.286t 47.714-28.571q 18.286-24.00 14.00-54.00t-28.286-48.286q-56.00-42.286 -86.571-103.429t-30.571-130.286q0.00-59.429 23.143-113.429t 62.571-93.429t 93.429-62.571 t 113.429-23.143t 113.429,23.143t 93.429,62.571t 62.571,93.429t 23.143,113.429q0.00,69.143 -30.571,130.286t-86.571,103.429q-24.00,18.286 -28.286,48.286t 14.00,54.00q 17.714,24.571 48.00,28.571t 54.286-14.286q 83.429-62.286 129.429-154.286t 46.00-196.00zM 512.00,918.857l0.00-365.714 q0.00-29.714 -21.714-51.429t-51.429-21.714t-51.429,21.714t-21.714,51.429l0.00,365.714 q0.00,29.714 21.714,51.429t 51.429,21.714t 51.429-21.714t 21.714-51.429z" horiz-adv-x="877.7142857142857" data-tags="off, switch, power" />
<glyph unicode="&#xe02d;" d="M 768.00,992.00L 256.00,547.20l 277.312-148.288L 256.00-32.00l 512.00,444.80l-213.312,148.288L 768.00,992.00z" data-tags="bolt, power, electricity, lightning" />
<glyph unicode="&#xe02e;" d="M 640.00,416.00 C 745.87,416.00 841.87,372.934 911.402,303.402 L 820.934,212.934 C 774.58,259.29 710.578,288.00 640.00,288.00 C 569.422,288.00 505.422,259.29 459.066,212.934 L 368.598,303.402 C 438.13,372.934 534.13,416.00 640.00,416.00 ZM 187.452,484.548 C 308.332,605.428 469.05,672.00 640.00,672.00 C 810.95,672.00 971.668,605.428 1092.55,484.548 L 1002.04,394.04 L 1002.04,394.04 C 905.334,490.744 776.76,544.00 640.00,544.00 C 503.238,544.00 374.666,490.744 277.962,394.038 L 187.452,484.548 ZM 988.784,857.562 C 1095.486,812.43 1191.30,747.834 1273.566,665.566 L 1273.566,665.566 L 1183.058,575.058 C 1038.002,720.114 845.138,800.00 640.00,800.00 C 434.86,800.00 242.00,720.114 96.942,575.058 L 6.432,665.568 C 88.70,747.834 184.514,812.43 291.216,857.562 C 401.72,904.30 519.068,928.00 640.00,928.00 C 760.932,928.00 878.278,904.30 988.784,857.562 ZM 576.00,96.00A64.00,64.00 2700.00 1,0 704.00,96A64.00,64.00 2700.00 1,0 576.00,96z" horiz-adv-x="1280" data-tags="connection, broadcast, wifi, wave, feed" />
<glyph unicode="&#xe02f;" d="M-0.134-31.87l 639.99,1024.004l 639.99-1024.004L-0.134-31.87 z M 703.876,736.186l-127.988,0.00 l0.00-448.116 l 127.988,0.00 L 703.876,736.186 z
	 M 575.862,224.076L 575.862,96.01 l 127.988,0.00 l0.00,128.068 L 575.862,224.076 z" horiz-adv-x="1278" data-tags="alert, warning, notice, note" />
<glyph unicode="&#xe03b;" d="M 896.00,480.00L 725.333,650.667L 725.333,565.333L 597.333,565.333L 597.333,693.333L 682.667,693.333L 512.00,864.00L 341.333,693.333L 426.667,693.333L 426.667,565.333L 298.667,565.333L 298.667,650.667L 128.00,480.00L 298.667,309.333L 298.667,394.667L 426.667,394.667L 426.667,266.667L 341.333,266.667L 512.00,96.00L 682.667,266.667L 597.333,266.667L 597.333,394.667L 725.333,394.667L 725.333,309.333 		z" data-tags="move" />
<glyph unicode="&#xe03c;" d="M 469.333,352.00L 384.00,437.333L 298.667,352.00L 213.333,437.333L 213.333,181.333L 469.333,181.333L 384.00,266.667 		zM 384.00,522.667L 469.333,608.00L 384.00,693.333L 469.333,778.667L 213.333,778.667L 213.333,522.667L 298.667,608.00 		zM 640.00,437.333L 554.667,352.00L 640.00,266.667L 569.344,181.333L 810.667,181.333L 810.667,437.333L 725.333,352.00 		zM 554.667,778.667L 640.00,693.333L 554.667,608.00L 640.00,522.667L 725.333,608.00L 810.667,522.667L 810.667,778.667 		z" data-tags="expand" />
<glyph unicode="&#xe030;" d="M 1024.00,401.556 L 512.00,798.982 L 0.00,401.554 L 0.00,563.592 L 512.00,961.018 L 1024.00,563.59 ZM 896.00,416.00 L 896.00,32.00 L 640.00,32.00 L 640.00,288.00 L 384.00,288.00 L 384.00,32.00 L 128.00,32.00 L 128.00,416.00 L 512.00,704.00 Z" data-tags="home, house, building" />
<glyph unicode="&#xe031;" d="M 832.00,819.694 C 908.466,819.694 977.092,861.316 1024.00,892.80 L 1024.00,297.11 C 977.092,265.624 908.466,224.00 832.00,224.00 C 755.534,224.00 686.908,246.67 640.00,278.156 C 593.092,309.636 524.466,332.306 448.00,332.306 C 371.534,332.306 302.91,293.39 256.00,261.91 L 256.00,857.60 C 302.91,889.084 371.534,928.00 448.00,928.00 C 524.466,928.00 593.092,905.332 640.00,873.848 C 686.908,842.364 755.534,819.694 832.00,819.694 ZM 128.00,992.00 C 163.346,992.00 192.00,963.346 192.00,928.00 L 192.00-32.00 L 64.00-32.00 L 64.00,928.00 C 64.00,963.346 92.654,992.00 128.00,992.00 Z" data-tags="flag, report, mark" />
<glyph unicode="&#xe032;" d="M 321.008-32.00 C 252.762,110.008 289.106,191.378 341.558,268.044 C 398.998,352.00 413.802,435.11 413.802,435.11 C 413.802,435.11 458.956,376.41 440.894,284.602 C 520.666,373.402 535.718,514.882 523.676,569.066 C 703.99,443.054 781.052,170.21 677.198-32.00 C 1229.57,280.532 814.596,748.172 742.352,800.85 C 766.434,748.174 771.00,659.00 722.352,615.724 C 640.00,928.00 436.38,992.00 436.38,992.00 C 460.462,830.956 349.084,654.856 241.684,523.27 C 237.91,587.486 233.902,631.798 200.134,693.25 C 192.554,576.594 103.402,481.502 79.26,364.622 C 46.558,206.336 103.756,90.442 321.008-32.00 Z" data-tags="fire, flame, hot, popular" />
<glyph unicode="&#xf073;" d="M 73.143,41.143l 164.571,0.00 l0.00,164.571 l-164.571,0.00 l0.00-164.571 zM 274.286,41.143l 182.857,0.00 l0.00,164.571 l-182.857,0.00 l0.00-164.571 zM 73.143,242.286l 164.571,0.00 l0.00,182.857 l-164.571,0.00 l0.00-182.857 zM 274.286,242.286l 182.857,0.00 l0.00,182.857 l-182.857,0.00 l0.00-182.857 zM 73.143,461.714l 164.571,0.00 l0.00,164.571 l-164.571,0.00 l0.00-164.571 zM 493.714,41.143l 182.857,0.00 l0.00,164.571 l-182.857,0.00 l0.00-164.571 zM 274.286,461.714l 182.857,0.00 l0.00,164.571 l-182.857,0.00 l0.00-164.571 zM 713.143,41.143l 164.571,0.00 l0.00,164.571 l-164.571,0.00 l0.00-164.571 zM 493.714,242.286l 182.857,0.00 l0.00,182.857 l-182.857,0.00 l0.00-182.857 z M 292.571,736.00l0.00,164.571 q0.00,7.429 -5.429,12.857t-12.857,5.429l-36.571,0.00 q-7.429,0.00 -12.857-5.429t-5.429-12.857l0.00-164.571 q0.00-7.429 5.429-12.857t 12.857-5.429l 36.571,0.00 q 7.429,0.00 12.857,5.429t 5.429,12.857zM 713.143,242.286l 164.571,0.00 l0.00,182.857 l-164.571,0.00 l0.00-182.857 zM 493.714,461.714l 182.857,0.00 l0.00,164.571 l-182.857,0.00 l0.00-164.571 zM 713.143,461.714l 164.571,0.00 l0.00,164.571 l-164.571,0.00 l0.00-164.571 zM 731.429,736.00l0.00,164.571 q0.00,7.429 -5.429,12.857t-12.857,5.429l-36.571,0.00  q-7.429,0.00 -12.857-5.429t-5.429-12.857l0.00-164.571 q0.00-7.429 5.429-12.857t 12.857-5.429l 36.571,0.00 q 7.429,0.00 12.857,5.429t 5.429,12.857zM 950.857,772.571l0.00-731.429 q0.00-29.714 -21.714-51.429t-51.429-21.714l-804.571,0.00 q-29.714,0.00 -51.429,21.714t-21.714,51.429l0.00,731.429 q0.00,29.714 21.714,51.429t 51.429,21.714l 73.143,0.00 l0.00,54.857 q0.00,37.714 26.857,64.571t 64.571,26.857l 36.571,0.00 q 37.714,0.00 64.571-26.857t 26.857-64.571l0.00-54.857 l 219.429,0.00 l0.00,54.857 q0.00,37.714 26.857,64.571t 64.571,26.857 l 36.571,0.00 q 37.714,0.00 64.571-26.857t 26.857-64.571l0.00-54.857 l 73.143,0.00 q 29.714,0.00 51.429-21.714t 21.714-51.429z" horiz-adv-x="950.8571428571428" data-tags="calendar, date, schedule" />
<glyph unicode="&#xf07a;" d="M 365.714,114.286q0.00-30.286 -21.429-51.714t-51.714-21.429t-51.714,21.429t-21.429,51.714t 21.429,51.714t 51.714,21.429t 51.714-21.429t 21.429-51.714zM 877.714,114.286q0.00-30.286 -21.429-51.714t-51.714-21.429t-51.714,21.429t-21.429,51.714t 21.429,51.714t 51.714,21.429t 51.714-21.429t 21.429-51.714zM 950.857,736.00l0.00-292.571 q0.00-13.714 -9.143-24.286t-23.429-12.286 l-596.571-69.714q 0.571-4.00 2.571-12.286t 3.429-15.143t 1.429-12.571q0.00-9.143 -13.714-36.571l 525.714,0.00 q 14.857,0.00 25.714-10.857t 10.857-25.714t-10.857-25.714t-25.714-10.857l-585.143,0.00 q-14.857,0.00 -25.714,10.857t-10.857,25.714q0.00,8.00 6.286,22.571t 16.857,34.00t 11.714,21.714l-101.143,470.286l-116.571,0.00 q-14.857,0.00 -25.714,10.857t-10.857,25.714t 10.857,25.714t 25.714,10.857l 146.286,0.00 q 9.143,0.00 16.286-3.714t 11.429-8.857t 7.429-14.00t 4.286-15.143 t 3.143-16.857t 2.571-14.571l 686.286,0.00 q 14.857,0.00 25.714-10.857t 10.857-25.714z" horiz-adv-x="950.8571428571428" data-tags="shopping-cart, cart, ecommerce, store" />
<glyph unicode="&#xe033;" d="M 28.352,827.904L 164.096,963.648L 299.84,827.904L 164.096,692.16zM 978.752,149.056L 933.504,194.304L 797.76,58.496L 843.008,13.248L 1024.00-32.00 	zM 209.408,646.784L 345.088,782.592L 888.256,239.744L 752.576,103.936z" data-tags="pencil, write, blog, edit" />
<glyph unicode="&#xe034;" d="M 512.00,951.04c-260.147,0.00-471.04-210.944-471.04-471.04c0.00-260.147, 210.893-471.04, 471.04-471.04s 471.04,210.893, 471.04,471.04C 983.04,740.147, 772.147,951.04, 512.00,951.04z M 512.00,111.36
			c-203.622,0.00-368.64,165.069-368.64,368.64S 308.378,848.64, 512.00,848.64s 368.64-165.069, 368.64-368.64S 715.622,111.36, 512.00,111.36zM 547.84,746.24L 476.16,746.24L 476.16,465.152L 650.496,290.816L 701.184,341.504L 547.84,494.848 		z" data-tags="clock, time, history" />
<glyph unicode="&#xe06b;" d="M 570.784,430.656L 249.216,109.088c-24.896-24.896-65.376-24.832-90.368,0.16
	c-24.992,24.96-25.056,65.44-0.16,90.336l 24.448,24.448l-69.28,69.312c-12.512,12.48-12.544,32.704-0.096,45.184
	c 12.48,12.48, 32.672,12.416, 45.184-0.096l 69.312-69.312l 22.56,22.56l-24.064,24.064c-12.512,12.512-12.544,32.704-0.064,45.184
	c 12.448,12.448, 32.672,12.448, 45.184-0.064l 24.032-24.064l 22.56,22.56l-69.312,69.312c-12.512,12.512-12.544,32.672-0.064,45.152
	c 12.448,12.48, 32.672,12.448, 45.184-0.064l 69.28-69.312l 116.768,116.768c-75.68,105.44-85.088,231.296-15.36,300.992
	c 80.96,80.96, 237.792,55.424, 350.24-57.056s 138.016-269.28, 57.024-350.24C 802.432,345.12, 676.32,354.688, 570.784,430.656z M 747.168,697.536
	c-49.984,49.984-115.776,65.28-146.912,34.112s-15.872-96.896, 34.112-146.912c 49.984-49.984, 115.744-65.248, 146.912-34.112S 797.12,647.552, 747.168,697.536z" data-tags="key, login, log in, sign in, password, unlock" />
<glyph unicode="&#xf0ad;" d="M 219.429,150.857q0.00,14.857 -10.857,25.714t-25.714,10.857t-25.714-10.857t-10.857-25.714t 10.857-25.714t 25.714-10.857t 25.714,10.857t 10.857,25.714zM 587.429,390.857l-389.714-389.714q-21.143-21.143 -51.429-21.143q-29.714,0.00 -52.00,21.143l-60.571,61.714q-21.714,20.571 -21.714,51.429q0.00,30.286 21.714,52.00l 389.143,389.143q 22.286-56.00 65.429-99.143t 99.143-65.429zM 949.714,639.429q0.00-22.286 -13.143-60.571q-26.857-76.571 -94.00-124.286 t-147.714-47.714q-105.714,0.00 -180.857,75.143t-75.143,180.857t 75.143,180.857t 180.857,75.143q 33.143,0.00 69.429-9.429t 61.429-26.571q 9.143-6.286 9.143-16.00t-9.143-16.00l-167.429-96.571l0.00-128.00 l 110.286-61.143q 2.857,1.714 45.143,27.714t 77.429,46.286t 40.286,20.286q 8.571,0.00 13.429-5.714t 4.857-14.286z" horiz-adv-x="950.8571428571428" data-tags="wrench, took, fix, preferences, settings, options" />
<glyph unicode="&#xf013;" d="M 585.143,480.00q0.00,60.571 -42.857,103.429t-103.429,42.857t-103.429-42.857t-42.857-103.429t 42.857-103.429t 103.429-42.857t 103.429,42.857t 42.857,103.429zM 877.714,542.286l0.00-126.857 q0.00-6.857 -4.571-13.143t-11.429-7.429l-105.714-16.00q-10.857-30.857 -22.286-52.00q 20.00-28.571 61.143-78.857q 5.714-6.857 5.714-14.286t-5.143-13.143q-15.429-21.143 -56.571-61.714t-53.714-40.571q-6.857,0.00 -14.857,5.143l-78.857,61.714q-25.143-13.143 -52.00-21.714 q-9.143-77.714 -16.571-106.286q-4.00-16.00 -20.571-16.00l-126.857,0.00 q-8.00,0.00 -14.00,4.857t-6.571,12.286l-16.00,105.143q-28.00,9.143 -51.429,21.143l-80.571-61.143q-5.714-5.143 -14.286-5.143q-8.00,0.00 -14.286,6.286q-72.00,65.143 -94.286,96.00q-4.00,5.714 -4.00,13.143q0.00,6.857 4.571,13.143q 8.571,12.00 29.143,38.00t 30.857,40.286q-15.429,28.571 -23.429,56.571l-104.571,15.429q-7.429,1.143 -12.00,7.143t-4.571,13.429l0.00,126.857 q0.00,6.857 4.571,13.143t 10.857,7.429 l 106.286,16.00q 8.00,26.286 22.286,52.571q-22.857,32.571 -61.143,78.857q-5.714,6.857 -5.714,13.714q0.00,5.714 5.143,13.143q 14.857,20.571 56.286,61.429t 54.00,40.857q 7.429,0.00 14.857-5.714l 78.857-61.143q 25.143,13.143 52.00,21.714q 9.143,77.714 16.571,106.286q 4.00,16.00 20.571,16.00l 126.857,0.00 q 8.00,0.00 14.00-4.857t 6.571-12.286l 16.00-105.143q 28.00-9.143 51.429-21.143l 81.143,61.143q 5.143,5.143 13.714,5.143q 7.429,0.00 14.286-5.714q 73.714-68.00 94.286-97.143q 4.00-4.571 4.00-12.571 q0.00-6.857 -4.571-13.143q-8.571-12.00 -29.143-38.00t-30.857-40.286q 14.857-28.571 23.429-56.00l 104.571-16.00q 7.429-1.143 12.00-7.143t 4.571-13.429z" horiz-adv-x="877.7142857142857" data-tags="cog, settings, options, gear, preferences" />
<glyph unicode="&#xf004;" d="M 512.00,41.143q-14.857,0.00 -25.143,10.286l-356.571,344.00q-5.714,4.571 -15.714,14.857t-31.714,37.429t-38.857,55.714t-30.571,69.143t-13.429,78.857q0.00,125.714 72.571,196.571t 200.571,70.857q 35.429,0.00 72.286-12.286t 68.571-33.143t 54.571-39.143t 43.429-38.857q 20.571,20.571 43.429,38.857t 54.571,39.143t 68.571,33.143t 72.286,12.286q 128.00,0.00 200.571-70.857t 72.571-196.571q0.00-126.286 -130.857-257.143l-356.00-342.857 q-10.286-10.286 -25.143-10.286z" data-tags="heart, love, like" />
<glyph unicode="&#xe035;" d="M 512.00,966.848l 168.768-305.984l 343.168-65.92l-238.912-255.04l 43.392-346.752L 512.00,141.504
	l-316.352-148.352l 43.392,346.752L 0.064,594.944l 343.168,65.92L 512.00,966.848" data-tags="star, rating, rate" />
<glyph unicode="&#xf07b;" d="M 950.857,644.571l0.00-402.286 q0.00-52.571 -37.714-90.286t-90.286-37.714l-694.857,0.00 q-52.571,0.00 -90.286,37.714t-37.714,90.286l0.00,548.571 q0.00,52.571 37.714,90.286t 90.286,37.714l 182.857,0.00 q 52.571,0.00 90.286-37.714t 37.714-90.286l0.00-18.286 l 384.00,0.00 q 52.571,0.00 90.286-37.714t 37.714-90.286z" horiz-adv-x="950.8571428571428" data-tags="folder-close, category, directory" />
<glyph unicode="&#xf07c;" d="M 1073.714,448.00q0.00-17.714 -17.714-37.714l-192.00-226.286q-24.571-29.143 -68.857-49.429t-82.00-20.286l-621.714,0.00 q-19.429,0.00 -34.571,7.429t-15.143,24.571q0.00,17.714 17.714,37.714l 192.00,226.286q 24.571,29.143 68.857,49.429t 82.00,20.286l 621.714,0.00 q 19.429,0.00 34.571-7.429t 15.143-24.571zM 877.714,644.571l0.00-91.429 l-475.429,0.00 q-53.714,0.00 -112.571-27.143t-93.714-68.286l-192.571-226.286l-2.857-3.429q0.00,2.286 -0.286,7.143 t-0.286,7.143l0.00,548.571 q0.00,52.571 37.714,90.286t 90.286,37.714l 182.857,0.00 q 52.571,0.00 90.286-37.714t 37.714-90.286l0.00-18.286 l 310.857,0.00 q 52.571,0.00 90.286-37.714t 37.714-90.286z" horiz-adv-x="1097.142857142857" data-tags="folder-open, category, directory" />
<glyph unicode="&#xe036;" d="M 903.432,792.57l-142.864,142.862C 729.456,966.544, 668.00,992.00, 624.00,992.00L 144.00,992.00 C 100.00,992.00, 64.00,956.00, 64.00,912.00l0.00-864.00 c0.00-44.00, 36.00-80.00, 80.00-80.00l 736.00,0.00 c 44.00,0.00, 80.00,36.00, 80.00,80.00
	L 960.00,656.00 C 960.00,700.00, 934.544,761.458, 903.432,792.57z M 858.178,747.314c 3.13-3.13, 6.25-6.974, 9.28-11.314L 704.00,736.00 L 704.00,899.456 
	c 4.34-3.03, 8.184-6.15, 11.314-9.28L 858.178,747.314z M 896.00,48.00c0.00-8.672-7.328-16.00-16.00-16.00L 144.00,32.00 c-8.672,0.00-16.00,7.328-16.00,16.00L 128.00,912.00 c0.00,8.672, 7.328,16.00, 16.00,16.00
	l 480.00,0.00 c 4.832,0.00, 10.254-0.61, 16.00-1.704L 640.00,672.00 l 254.296,0.00 c 1.094-5.746, 1.704-11.166, 1.704-16.00L 896.00,48.00 z" data-tags="file, paper, page, new, empty, blank, document" />
<glyph unicode="&#xe037;" d="M 640.00,736.00L 640.00,992.00 L 192.00,992.00 L0.00,800.00l0.00-576.00 l 384.00,0.00 l0.00-256.00 l 640.00,0.00 L 1024.00,736.00 L 640.00,736.00 z M 192.00,901.49L 192.00,800.00 L 90.51,800.00 L 192.00,901.49z M 64.00,288.00L 64.00,736.00 l 192.00,0.00 L 256.00,928.00 l 320.00,0.00 l0.00-192.00 l-192.00-192.00l0.00-256.00 L 64.00,288.00 z
	 M 576.00,645.49L 576.00,544.00 l-101.49,0.00 L 576.00,645.49z M 960.00,32.00L 448.00,32.00 L 448.00,480.00 l 192.00,0.00 l0.00,192.00 l 320.00,0.00 L 960.00,32.00 z" data-tags="copy, duplicate, files, pages, papers, documents" />
<glyph unicode="&#xe111;" d="M 512.48,388.448l-130.304,106.976L 98.592,160.608l 828.032,0.00 l-283.616,338.144L 512.48,388.448z
			 M 957.632,799.392L 67.552,799.392 l 445.056-374.336L 957.632,799.392z M 662.56,515.616l 297.312-354.688L 959.872,767.392 L 662.56,515.616z M 64.128,767.392l0.00-606.464 
			l 297.312,354.688L 64.128,767.392z" data-tags="envelope, email, mail, letter, contact" />
<glyph unicode="&#xe112;" d="M 644.448,386.112l 313.184,255.968L 512.00,956.736l-444.48-314.656l 314.368-257.024L 644.448,386.112z
			 M 395.52,354.048L 98.592,3.264l 828.032,0.00 l-299.616,348.80L 395.52,354.048z M 662.56,358.304l 297.312-354.688L 959.872,610.08 L 662.56,358.304z M 64.128,610.08
			l0.00-606.464 l 297.312,354.688L 64.128,610.08z" data-tags="envelope, email, mail, letter, contact" />
<glyph unicode="&#xf0f2;" d="M 365.714,772.571l 292.571,0.00 l0.00,73.143 l-292.571,0.00 l0.00-73.143 zM 164.571,772.571l0.00-731.429 l-36.571,0.00 q-52.571,0.00 -90.286,37.714t-37.714,90.286l0.00,475.429 q0.00,52.571 37.714,90.286t 90.286,37.714l 36.571,0.00 zM 804.571,772.571l0.00-731.429 l-585.143,0.00 l0.00,731.429 l 73.143,0.00 l0.00,91.429 q0.00,22.857 16.00,38.857t 38.857,16.00l 329.143,0.00 q 22.857,0.00 38.857-16.00t 16.00-38.857l0.00-91.429 l 73.143,0.00 zM 1024.00,644.571l0.00-475.429 q0.00-52.571 -37.714-90.286t-90.286-37.714l-36.571,0.00 l0.00,731.429 l 36.571,0.00 q 52.571,0.00 90.286-37.714 t 37.714-90.286z" data-tags="suitcase, briefcase, travel, vacation" />
<glyph unicode="&#xe038;" d="M 622.826,289.264c-22.11,3.518-22.614,64.314-22.614,64.314s 64.968,64.316, 79.128,150.802
	c 38.09,0.00, 61.618,91.946, 23.522,124.296C 704.452,662.73, 751.822,896.00, 512.00,896.00c-239.822,0.00-192.45-233.27-190.864-267.324
	c-38.094-32.35-14.57-124.296, 23.522-124.296c 14.158-86.486, 79.128-150.802, 79.128-150.802s-0.504-60.796-22.614-64.314
	C 329.952,277.932, 64.00,160.63, 64.00,32.00l 448.00,0.00 l 448.00,0.00 C 960.00,160.63, 694.048,277.932, 622.826,289.264z" data-tags="user, profile, avatar, person, talk, member" />
<glyph unicode="&#xe03d;" d="M 320.00,800.00A192.00,192.00 10980.00 1,0 704.00,800A192.00,192.00 10980.00 1,0 320.00,800zM 768.078,544.00l-0.156,0.00 l-35.268,0.00 l-199.104-404.244L 608.00,512.00l-96.00,96.00l-96.00-96.00l 74.45-372.244L 291.348,544.00l-35.27,0.00 l-0.154,0.00 
		C 128.00,544.00, 128.00,458.014, 128.00,352.00l0.00-320.00 l 768.00,0.00 L 896.00,352.00 C 896.00,458.014, 896.00,544.00, 768.078,544.00z" data-tags="user, profile, avatar, person, talk, member, employee, job, official" />
<glyph unicode="&#xe03e;" d="M 256.00,928.00L 768.00,928.00L 768.00,800.00L 256.00,800.00zM 960.00,736.00L 64.00,736.00 C 28.80,736.00,0.00,707.20,0.00,672.00l0.00-320.00 c0.00-35.20, 28.796-64.00, 64.00-64.00l 192.00,0.00 l0.00-256.00 l 512.00,0.00 L 768.00,288.00 l 192.00,0.00 c 35.20,0.00, 64.00,28.80, 64.00,64.00L 1024.00,672.00 
		C 1024.00,707.20, 995.20,736.00, 960.00,736.00z M 704.00,96.00L 320.00,96.00 L 320.00,416.00 l 384.00,0.00 L 704.00,96.00 z M 974.40,640.00c0.00-25.626-20.774-46.40-46.398-46.40
		c-25.626,0.00-46.402,20.774-46.402,46.40s 20.776,46.40, 46.402,46.40C 953.628,686.40, 974.40,665.626, 974.40,640.00z" data-tags="print, printer" />
<glyph unicode="&#xe0ac;" d="M 925.056,365.568l-297.952-297.952c-25.312-25.312-66.368-25.312-91.68,0.00L 170.176,432.896
	l-90.24,279.328l 65.92,65.92l 126.304-126.304c-3.392-24.32, 3.968-49.824, 22.656-68.512c 31.648-31.648, 82.944-31.648, 114.592,0.00
	c 31.616,31.648, 31.616,82.944,0.00,114.592c-18.688,18.688-44.192,26.016-68.512,22.656L 214.592,846.88L 279.04,911.36l 280.768-88.80L 925.056,457.28
	C 950.368,431.936, 950.368,390.912, 925.056,365.568z M 363.552,629.152c-6.336-6.336-16.576-6.336-22.912,0.00L 88.512,881.28
	c-6.336,6.336-6.336,16.608,0.00,22.912s 16.608,6.336, 22.912,0.00l 252.096-252.096C 369.888,645.76, 369.888,635.488, 363.552,629.152z" data-tags="tag, price" />
<glyph unicode="&#xe0b9;" d="M 512.00,0.00c-167.904,0.00-304.00,136.128-304.00,304.00c0.00,109.12, 57.664,204.512, 144.00,258.144L 352.00,752.00 C 352.00,849.216, 430.816,928.00, 528.00,928.00S 704.00,849.216, 704.00,752.00l0.00-212.384 
	c 68.32-55.744, 112.00-140.544, 112.00-235.616C 816.00,136.128, 679.904,0.00, 512.00,0.00z M 640.00,752.00C 640.00,813.856, 589.888,864.00, 528.00,864.00C 466.144,864.00, 416.00,813.856, 416.00,752.00l0.00-159.712 
	C 446.208,602.336, 478.40,608.00, 512.00,608.00c 45.824,0.00, 89.056-10.40, 128.00-28.544L 640.00,752.00 z M 512.00,560.00c-141.376,0.00-256.00-114.624-256.00-256.00s 114.624-256.00, 256.00-256.00s 256.00,114.624, 256.00,256.00
	S 653.376,560.00, 512.00,560.00z M 512.00,64.00c-132.576,0.00-240.00,107.424-240.00,240.00S 379.424,544.00, 512.00,544.00c 132.576,0.00, 240.00-107.424, 240.00-240.00S 644.576,64.00, 512.00,64.00z M 560.00,368.00
	c0.00,26.496-21.504,48.00-48.00,48.00s-48.00-21.504-48.00-48.00c0.00-22.752, 16.128-40.864, 37.344-45.888L 464.00,176.00l 97.984,0.00 l-42.048,145.632
	C 542.496,325.504, 560.00,344.32, 560.00,368.00z" data-tags="locked, secure" />
<glyph unicode="&#xe0b8;" d="M 896.00,544.00L 896.00,752.00 C 896.00,813.856, 845.856,864.00, 784.00,864.00S 672.00,813.856, 672.00,752.00l0.00-189.856 c 86.304-53.632, 144.00-149.024, 144.00-258.144C 816.00,136.096, 679.904,0.00, 512.00,0.00
	s-304.00,136.096-304.00,303.968c0.00,167.904, 136.096,304.00, 304.00,304.00c 33.60,0.00, 65.792-5.664, 96.00-15.712L 608.00,752.00 C 608.00,849.184, 686.816,928.00, 784.00,928.00S 960.00,849.184, 960.00,752.00L 960.00,544.00 L 896.00,544.00 z
	 M 512.00,560.00c-141.376,0.00-256.00-114.624-256.00-256.00c0.00-141.376, 114.624-255.968, 256.00-255.968s 256.00,114.592, 256.00,255.968C 768.00,445.376, 653.376,560.00, 512.00,560.00z M 512.00,64.00
	c-132.576,0.00-240.00,107.424-240.00,239.968C 272.00,436.576, 379.424,544.00, 512.00,544.00s 240.00-107.424, 240.00-240.032C 752.00,171.424, 644.576,64.00, 512.00,64.00z M 560.00,367.968
	c0.00,26.528-21.504,48.00-48.00,48.00s-48.00-21.472-48.00-48.00c0.00-22.688, 16.128-40.864, 37.344-45.824L 464.00,176.00l 97.984,0.00 l-42.048,145.60
	C 542.496,325.536, 560.00,344.288, 560.00,367.968z" data-tags="unlocked" />
<glyph unicode="&#xe03f;" d="M 898.36,928.00L 128.00,928.00 l0.00-128.00 L 34.36,800.00 C 16.76,800.00,0.00,787.472,0.00,769.872l0.00-64.00 C0.00,688.272, 16.76,672.00, 34.36,672.00L 128.00,672.00 l0.00-64.00 L 34.36,608.00 
	C 16.76,608.00,0.00,595.472,0.00,577.872l0.00-64.00 C0.00,496.272, 16.76,480.00, 34.36,480.00L 128.00,480.00 l0.00-64.00 L 34.36,416.00 C 16.76,416.00,0.00,403.472,0.00,385.872l0.00-64.00 
	C0.00,304.274, 16.76,288.00, 34.36,288.00L 128.00,288.00 l0.00-64.00 L 34.36,224.00 C 16.76,224.00,0.00,211.472,0.00,193.872l0.00-64.00 C0.00,112.272, 16.76,96.00, 34.36,96.00L 128.00,96.00 l0.00-128.00 l 770.36,0.00 
	c 35.348,0.00, 61.64,30.526, 61.64,65.872l0.00,832.00 C 960.00,901.218, 933.708,928.00, 898.36,928.00z M 320.00,32.00L 192.00,32.00 l0.00,64.00 l 34.36,0.00 c 17.60,0.00, 29.64,16.272, 29.64,33.872
	l0.00,64.00 c0.00,17.602-12.042,30.128-29.64,30.128L 192.00,224.00 l0.00,64.00 l 34.36,0.00 c 17.60,0.00, 29.64,16.272, 29.64,33.872l0.00,64.00 c0.00,17.602-12.042,30.128-29.64,30.128L 192.00,416.00 l0.00,64.00 
	l 34.36,0.00 c 17.60,0.00, 29.64,16.272, 29.64,33.872l0.00,64.00 c0.00,17.602-12.042,30.128-29.64,30.128L 192.00,608.00 l0.00,64.00 l 34.36,0.00 c 17.60,0.00, 29.64,16.272, 29.64,33.872l0.00,64.00 
	C 256.00,787.474, 243.96,800.00, 226.36,800.00L 192.00,800.00 L 192.00,864.00 l 128.00,0.00 L 320.00,32.00 z" data-tags="notebook, notes, book, journal" />
<glyph unicode="&#xe040;" d="M 768.00-32.00l-256.00,352.00L 256.00-32.00c-35.328,0.00-64.00,28.672-64.00,64.00L 192.00,928.00 c0.00,35.328, 28.672,64.00, 64.00,64.00l 512.00,0.00 
	c 35.328,0.00, 64.00-28.672, 64.00-64.00l0.00-896.00 C 832.00-3.328, 803.328-32.00, 768.00-32.00z M 752.00,928.00l-480.00,0.00 C 263.168,928.00, 256.00,920.832, 256.00,912.00S 263.168,896.00, 272.00,896.00l 480.00,0.00 C 760.832,896.00, 768.00,903.168, 768.00,912.00
	S 760.832,928.00, 752.00,928.00z" data-tags="bookmark" />
<glyph unicode="&#xe041;" d="M 384.00,448.00c0.00-22.40, 32.00-44.80, 64.00-44.80l 128.00,0.00 c 32.00,0.00, 64.00,22.40, 64.00,44.80c0.00,22.368-32.00,44.80-64.00,44.80l-128.00,0.00 
	C 416.00,492.80, 384.00,470.368, 384.00,448.00z M 736.00,672.00c-46.016,0.00-92.096-37.248-122.88-90.016c 21.344-2.112, 42.432-17.12, 58.88-39.008
	c 17.76,23.712, 40.832,39.424, 64.00,39.424l 128.00,0.00 c 48.00,0.00, 96.00-67.232, 96.00-134.40s-48.00-134.40-96.00-134.40l-128.00,0.00 c-23.168,0.00-46.24,15.712-64.00,39.424
	c-16.448-21.856-37.536-36.864-58.88-38.976C 643.904,261.248, 689.984,224.00, 736.00,224.00l 128.00,0.00 c 80.00,0.00, 160.00,112.00, 160.00,224.00s-80.00,224.00-160.00,224.00L 736.00,672.00 z M 288.00,224.00
	c 46.016,0.00, 92.096,37.248, 122.88,90.048c-21.376,2.08-42.432,17.12-58.88,38.976C 334.208,329.312, 311.136,313.60, 288.00,313.60L 160.00,313.60 c-48.00,0.00-96.00,67.232-96.00,134.40
	s 48.00,134.40, 96.00,134.40l 128.00,0.00 c 23.136,0.00, 46.208-15.712, 64.00-39.424c 16.448,21.888, 37.504,36.864, 58.88,39.008C 380.096,634.752, 334.016,672.00, 288.00,672.00L 160.00,672.00 c-80.00,0.00-160.00-112.00-160.00-224.00
	s 80.00-224.00, 160.00-224.00L 288.00,224.00 z" data-tags="link, chain, url, uri" />
<glyph unicode="&#xe072;" d="M 255.776,639.584L 416.288,639.584L 416.288,607.488L 255.776,607.488zM 932.992,124.064l-181.632,181.568c-20.992,21.056-52.576,23.36-77.12,9.056l-97.12,97.12c 51.20,56.864, 82.56,131.872, 82.56,214.40
		c0.00,177.312-143.68,321.024-320.992,321.024c-177.28,0.00-320.992-143.712-320.992-321.024c0.00-177.28, 143.712-320.992, 320.992-320.992
		c 71.584,0.00, 137.472,23.712, 190.88,63.328l 99.328-99.264c-14.304-24.608-12.00-56.128, 8.992-77.184l 181.632-181.568c 25.056-25.088, 65.696-25.088, 90.816,0.00
		l 22.688,22.688C 958.048,58.304, 958.048,98.976, 932.992,124.064z M 338.016,386.816c-132.96,0.00-240.736,107.776-240.736,240.736
		s 107.776,240.736, 240.736,240.736s 240.768-107.776, 240.768-240.736S 471.008,386.816, 338.016,386.816z" data-tags="zoom out, magnifier" />
<glyph unicode="&#xe06f;" d="M 932.992,33.248l-22.688-22.688c-25.12-25.088-65.76-25.088-90.816,0.00l-181.632,181.568
	c-20.992,21.056-23.328,52.608-8.992,77.184l-99.328,99.264c-53.408-39.616-119.296-63.328-190.88-63.328c-177.28,0.00-320.992,143.712-320.992,320.992
	c0.00,177.312, 143.712,321.024, 320.992,321.024c 177.312,0.00, 320.992-143.712, 320.992-321.024c0.00-82.528-31.36-157.536-82.56-214.40l 97.12-97.12
	c 24.576,14.304, 56.128,12.00, 77.12-9.056l 181.632-181.568C 958.048,98.976, 958.048,58.304, 932.992,33.248z M 578.816,627.552
	c0.00,132.96-107.808,240.736-240.768,240.736S 97.28,760.544, 97.28,627.552s 107.776-240.736, 240.736-240.736S 578.816,494.592, 578.816,627.552z" data-tags="magnifier, search, lookup, find" />
<glyph unicode="&#xe070;" d="M 932.992,33.248l-22.688-22.688c-25.12-25.088-65.76-25.088-90.816,0.00l-181.632,181.568
	c-20.992,21.056-23.328,52.608-8.992,77.184l-99.328,99.264c-53.408-39.616-119.296-63.328-190.88-63.328c-177.28,0.00-320.992,143.712-320.992,320.992
	c0.00,177.312, 143.712,321.024, 320.992,321.024c 177.312,0.00, 320.992-143.712, 320.992-321.024c0.00-82.528-31.36-157.536-82.56-214.40l 97.12-97.12
	c 24.576,14.304, 56.128,12.00, 77.12-9.056l 181.632-181.568C 958.048,98.976, 958.048,58.304, 932.992,33.248z M 578.816,627.552
	c0.00,132.96-107.808,240.736-240.768,240.736S 97.28,760.544, 97.28,627.552s 107.776-240.736, 240.736-240.736S 578.816,494.592, 578.816,627.552z M 352.064,545.312
	L 319.968,545.312 l0.00,62.176 L 255.776,607.488 l0.00,32.096 l 64.192,0.00 L 319.968,703.808 l 32.096,0.00 l0.00-64.224 l 64.224,0.00 l0.00-32.096 l-64.224,0.00 L 352.064,545.312 z" data-tags="zoom in, magnifier, enlarge" />
<glyph unicode="&#xe042;" d="M0.00,480.00c0.00-282.77, 229.23-512.00, 512.00-512.00c 282.772,0.00, 512.00,229.23, 512.00,512.00S 794.772,992.00, 512.00,992.00C 229.23,992.00,0.00,762.77,0.00,480.00z M 896.00,480.00
	c0.00-73.236-20.512-141.68-56.088-199.912L 312.09,807.912C 370.32,843.49, 438.764,864.00, 512.00,864.00C 724.076,864.00, 896.00,692.078, 896.00,480.00z M 128.00,480.00
	c0.00,73.236, 20.512,141.678, 56.09,199.912l 527.822-527.824C 653.678,116.51, 585.236,96.00, 512.00,96.00C 299.924,96.00, 128.00,267.922, 128.00,480.00z" data-tags="blocked, cancel, stop, forbidden, denied, banned" />
<glyph unicode="&#xe043;" d="M 1024.00,352.00l-384.00,0.00 l0.00-384.00 L 384.00-32.00 l0.00,384.00 L0.00,352.00 L0.00,608.00 l 384.00,0.00 L 384.00,992.00 l 256.00,0.00 l0.00-384.00 l 384.00,0.00 L 1024.00,352.00 z" data-tags="plus, add, sum" />
<glyph unicode="&#xf0a8;" d="M 731.429,443.429l0.00,73.143 q0.00,14.857 -10.857,25.714t-25.714,10.857l-286.857,0.00 l 108.00,108.00q 10.857,10.857 10.857,25.714t-10.857,25.714l-52.00,52.00q-10.286,10.286 -25.714,10.286t-25.714-10.286l-206.857-206.857l-52.00-52.00q-10.286-10.286 -10.286-25.714t 10.286-25.714l 52.00-52.00l 206.857-206.857q 10.286-10.286 25.714-10.286t 25.714,10.286l 52.00,52.00q 10.286,10.286 10.286,25.714t-10.286,25.714l-108.00,108.00l 286.857,0.00 q 14.857,0.00 25.714,10.857t 10.857,25.714zM 877.714,480.00 q0.00-119.429 -58.857-220.286t-159.714-159.714t-220.286-58.857t-220.286,58.857t-159.714,159.714t-58.857,220.286t 58.857,220.286t 159.714,159.714t 220.286,58.857t 220.286-58.857t 159.714-159.714t 58.857-220.286z" horiz-adv-x="877.7142857142857" data-tags="circle-arrow-left, left, arrow, previous" />
<glyph unicode="&#xf0aa;" d="M 733.714,480.571q0.00,15.429 -10.286,25.714l-206.857,206.857l-52.00,52.00q-10.286,10.286 -25.714,10.286t-25.714-10.286l-52.00-52.00l-206.857-206.857q-10.286-10.286 -10.286-25.714t 10.286-25.714l 52.00-52.00q 10.286-10.286 25.714-10.286t 25.714,10.286l 108.00,108.00l0.00-286.857 q0.00-14.857 10.857-25.714t 25.714-10.857l 73.143,0.00 q 14.857,0.00 25.714,10.857t 10.857,25.714l0.00,286.857 l 108.00-108.00q 10.857-10.857 25.714-10.857t 25.714,10.857l 52.00,52.00q 10.286,10.286 10.286,25.714zM 877.714,480.00 q0.00-119.429 -58.857-220.286t-159.714-159.714t-220.286-58.857t-220.286,58.857t-159.714,159.714t-58.857,220.286t 58.857,220.286t 159.714,159.714t 220.286,58.857t 220.286-58.857t 159.714-159.714t 58.857-220.286z" horiz-adv-x="877.7142857142857" data-tags="circle-arrow-up, upload, arrow, top" />
<glyph unicode="&#xf0a9;" d="M 734.286,480.00q0.00,15.429 -10.286,25.714l-52.00,52.00l-206.857,206.857q-10.286,10.286 -25.714,10.286t-25.714-10.286l-52.00-52.00q-10.286-10.286 -10.286-25.714t 10.286-25.714l 108.00-108.00l-286.857,0.00 q-14.857,0.00 -25.714-10.857t-10.857-25.714l0.00-73.143 q0.00-14.857 10.857-25.714t 25.714-10.857l 286.857,0.00 l-108.00-108.00q-10.857-10.857 -10.857-25.714t 10.857-25.714l 52.00-52.00q 10.286-10.286 25.714-10.286t 25.714,10.286l 206.857,206.857l 52.00,52.00q 10.286,10.286 10.286,25.714zM 877.714,480.00 q0.00-119.429 -58.857-220.286t-159.714-159.714t-220.286-58.857t-220.286,58.857t-159.714,159.714t-58.857,220.286t 58.857,220.286t 159.714,159.714t 220.286,58.857t 220.286-58.857t 159.714-159.714t 58.857-220.286z" horiz-adv-x="877.7142857142857" data-tags="circle-arrow-right, right, arrow, next" />
<glyph unicode="&#xf10c;" d="M 731.429,480.00q0.00,59.429 -23.143,113.429t-62.571,93.429t-93.429,62.571t-113.429,23.143t-113.429-23.143t-93.429-62.571t-62.571-93.429t-23.143-113.429t 23.143-113.429t 62.571-93.429t 93.429-62.571t 113.429-23.143t 113.429,23.143t 93.429,62.571t 62.571,93.429t 23.143,113.429zM 877.714,480.00q0.00-119.429 -58.857-220.286 t-159.714-159.714t-220.286-58.857t-220.286,58.857t-159.714,159.714t-58.857,220.286t 58.857,220.286t 159.714,159.714t 220.286,58.857t 220.286-58.857t 159.714-159.714t 58.857-220.286z" horiz-adv-x="877.7142857142857" data-tags="circle-blank" />
<glyph unicode="&#xf111;" d="M 877.714,480.00q0.00-119.429 -58.857-220.286t-159.714-159.714t-220.286-58.857t-220.286,58.857t-159.714,159.714t-58.857,220.286t 58.857,220.286t 159.714,159.714t 220.286,58.857t 220.286-58.857t 159.714-159.714t 58.857-220.286z" horiz-adv-x="877.7142857142857" data-tags="circle" />
<glyph unicode="&#xf0ab;" d="M 733.714,479.429q0.00,15.429 -10.286,25.714l-52.00,52.00q-10.286,10.286 -25.714,10.286t-25.714-10.286l-108.00-108.00l0.00,286.857 q0.00,14.857 -10.857,25.714t-25.714,10.857l-73.143,0.00 q-14.857,0.00 -25.714-10.857t-10.857-25.714l0.00-286.857 l-108.00,108.00q-10.857,10.857 -25.714,10.857t-25.714-10.857l-52.00-52.00q-10.286-10.286 -10.286-25.714t 10.286-25.714l 206.857-206.857l 52.00-52.00q 10.286-10.286 25.714-10.286t 25.714,10.286l 52.00,52.00l 206.857,206.857q 10.286,10.286 10.286,25.714zM 877.714,480.00 q0.00-119.429 -58.857-220.286t-159.714-159.714t-220.286-58.857t-220.286,58.857t-159.714,159.714t-58.857,220.286t 58.857,220.286t 159.714,159.714t 220.286,58.857t 220.286-58.857t 159.714-159.714t 58.857-220.286z" horiz-adv-x="877.7142857142857" data-tags="circle-arrow-down, download, arrow, bottom" />
<glyph unicode="&#xe0e2;" d="M 607.136,422.336l-249.408,144.00c-30.592,17.696-69.76,7.20-87.424-23.392
			c-17.664-30.624-7.168-69.76, 23.424-87.424l 249.376-144.00c 30.624-17.696, 69.76-7.20, 87.424,23.424C 648.256,365.536, 637.76,404.672, 607.136,422.336z
			 M 401.44,578.048l 193.984-112.00l 65.984,183.616l-133.952,77.312L 401.44,578.048z M 258.432,106.368l 185.568,225.408l-83.136,48.00L 258.432,106.368z
			 M 741.568,751.20l-166.24,96.00c-22.976,13.248-52.32,5.408-65.568-17.568c-13.28-22.976-5.376-52.32, 17.568-65.568l 166.272-96.00
			c 22.976-13.248, 52.32-5.408, 65.568,17.568C 772.416,708.608, 764.544,737.952, 741.568,751.20z" data-tags="pin, location, map marker, marker" />
<glyph unicode="&#xe0e1;" d="M 656.00,512.00l-288.00,0.00 c-35.328,0.00-64.00-28.672-64.00-64.00s 28.672-64.00, 64.00-64.00l 288.00,0.00 c 35.328,0.00, 64.00,28.672, 64.00,64.00
			S 691.328,512.00, 656.00,512.00z M 434.656,736.00L 400.00,544.00l 224.00,0.00 l-34.688,192.00L 434.656,736.00 z M 512.00,64.00l 48.00,288.00l-96.00,0.00 L 512.00,64.00z M 416.00,768.00l 192.00,0.00 c 26.496,0.00, 48.00,21.504, 48.00,48.00
			S 634.496,864.00, 608.00,864.00l-192.00,0.00 c-26.528,0.00-48.00-21.504-48.00-48.00S 389.472,768.00, 416.00,768.00z" data-tags="pin, location, map marker, marker" />
<glyph unicode="&#xe045;" d="M 721.408,877.619C 662.989,919.757, 589.722,940.80, 501.453,940.80C 434.278,940.80, 377.651,925.952, 331.622,896.358C 258.56,849.971, 219.75,771.226, 215.04,660.122l 169.267,0.00 
		c0.00,32.358, 9.421,63.539, 28.314,93.542s 50.944,45.005, 96.154,45.005c 45.926,0.00, 77.619-12.186, 94.925-36.506c 17.357-24.422, 26.01-51.405, 26.01-80.998
		c0.00-25.754-12.902-49.306-28.467-70.758c-8.55-12.493-19.866-23.962-33.843-34.509c0.00,0.00-91.802-58.88-132.147-106.189
		c-23.398-27.443-25.498-68.506-27.546-127.437c-0.154-4.198, 1.434-12.851, 16.128-12.851s 118.63,0.00, 131.686,0.00s 15.77,9.677, 15.974,13.926
		c 0.922,21.453, 3.328,32.41, 7.27,44.80c 7.424,23.398, 27.494,43.827, 50.125,61.389l 46.592,32.154c 42.035,32.768, 75.622,59.648, 90.419,80.742
		C 791.194,597.146, 808.96,639.846, 808.96,690.483C 808.96,773.171, 779.725,835.533, 721.408,877.619z M 498.739,227.891c-58.368,1.741-106.496-38.605-108.339-101.888
		c-1.843-63.232, 43.93-105.011, 102.298-106.752c 60.928-1.792, 107.776,37.274, 109.619,100.506C 604.109,183.04, 559.667,226.099, 498.739,227.891z" data-tags="question, help" />
<glyph unicode="&#xf06a;" d="M 438.857,918.857q 119.429,0.00 220.286-58.857t 159.714-159.714t 58.857-220.286t-58.857-220.286t-159.714-159.714t-220.286-58.857t-220.286,58.857t-159.714,159.714t-58.857,220.286t 58.857,220.286t 159.714,159.714t 220.286,58.857zM 512.00,206.286l0.00,108.571 q0.00,8.00 -5.143,13.429t-12.571,5.429l-109.714,0.00 q-7.429,0.00 -13.143-5.714t-5.714-13.143l0.00-108.571 q0.00-7.429 5.714-13.143t 13.143-5.714l 109.714,0.00  q 7.429,0.00 12.571,5.429t 5.143,13.429zM 510.857,402.857l 10.286,354.857q0.00,6.857 -5.714,10.286q-5.714,4.571 -13.714,4.571l-125.714,0.00 q-8.00,0.00 -13.714-4.571q-5.714-3.429 -5.714-10.286l 9.714-354.857q0.00-5.714 5.714-10.00t 13.714-4.286l 105.714,0.00 q 8.00,0.00 13.429,4.286t 6.00,10.00z" horiz-adv-x="877.7142857142857" data-tags="exclamation-sign, sign, notification, attention, warning" />
<glyph unicode="&#xe047;" d="M 999.014,71.322L 542.925,871.629C 536.627,882.688, 524.80,889.498, 512.00,889.498c-12.80,0.00-24.576-6.81-30.925-17.869L 25.037,71.322
		c-6.195-10.854-6.093-24.115, 0.256-34.867s 18.022-17.357, 30.618-17.357l 912.128,0.00 c 12.493,0.00, 24.218,6.605, 30.618,17.357
		C 1005.005,47.206, 1005.107,60.467, 999.014,71.322z M 568.32,121.498L 455.68,121.498 l0.00,102.40 l 112.64,0.00 L 568.32,121.498 z M 568.32,300.698L 455.68,300.698 l0.00,307.20 l 112.64,0.00 L 568.32,300.698 z" data-tags="warning, alert, exclamation" />
<glyph unicode="&#xe046;" d="M 1024.00,256.00M 736.00,992.00L 288.00,992.00 L0.00,704.00l0.00-448.00 l 288.00-288.00l 448.00,0.00 l 288.00,288.00L 1024.00,704.00 L 736.00,992.00z M 576.00,160.00l-128.00,0.00 l0.00,128.00 l 128.00,0.00 L 576.00,160.00 z M 576.00,416.00l-128.00,0.00 L 448.00,800.00 l 128.00,0.00 L 576.00,416.00 z" data-tags="spam, notice, notification, exclamation" />
<glyph unicode="&#xe048;" d="M 367.872,10.496c 40.397-26.112, 87.194-43.776, 144.128-42.394
	c 56.934-1.382, 103.68,16.282, 144.077,42.394L 656.077,116.48 L 367.872,116.48 L 367.872,10.496 z M 650.035,177.971c0.00,223.027, 237.107,294.40, 219.341,516.557
	C 858.214,834.714, 763.238,992.00, 512.00,992.00S 165.786,834.714, 154.624,694.528c-17.766-222.208, 219.29-293.53, 219.29-516.557L 650.035,177.971 z M 263.066,686.438
	C 273.715,819.507, 364.237,886.989, 512.00,886.989c 147.763,0.00, 238.285-67.482, 248.883-200.55c 5.786-72.858-36.096-121.446-92.672-201.011
	c-41.626-58.675-90.88-127.949-113.92-218.163L 469.658,267.264 c-23.04,90.214-72.243,159.437-113.971,218.163C 299.162,565.043, 257.28,613.581, 263.066,686.438z" data-tags="light-bulb, lamp, bulb, idea, tip" />
<glyph unicode="&#xe0e6;" d="M 896.00,704.00l-62.656,0.00 L 833.344,798.016 L 704.00,800.00l 0.672-96.00L 316.00,704.00 l 2.656,96.00L 192.00,798.016l0.00-96.00 L 128.00,704.00
			c-35.328,0.00-64.00-28.672-64.00-64.00l0.00-448.00 c0.00-35.328, 28.672-64.00, 64.00-64.00l 768.00,0.00 c 35.328,0.00, 64.00,28.672, 64.00,64.00L 960.00,640.00 C 960.00,675.328, 931.328,704.00, 896.00,704.00z M 736.00,768.00l 64.00,0.00 l0.00-128.00 l-64.00,0.00 L 736.00,768.00 z M 320.00,550.016
			c 38.656,0.00, 70.016-41.184, 70.016-92.00S 358.656,366.016, 320.00,366.016s-70.016,41.184-70.016,92.00S 281.344,550.016, 320.00,550.016z M 224.00,768.00l 64.00,0.00 l0.00-128.00 L 224.00,640.00 L 224.00,768.00 z
			 M 181.344,257.664c0.00,0.00, 7.584,60.864, 24.832,72.352c 17.216,11.488, 66.88,19.136, 66.88,19.136s 32.192-34.40, 45.888-34.40
			c 13.664,0.00, 45.856,34.40, 45.856,34.40s 49.664-7.616, 66.912-19.136c 20.256-13.504, 25.312-72.352, 25.312-72.352L 181.344,257.664 z M 832.00,288.00l-288.00,0.00 l0.00,32.00 l 288.00,0.00 L 832.00,288.00 z M 832.00,352.00
			l-288.00,0.00 l0.00,32.00 l 288.00,0.00 L 832.00,352.00 z M 832.00,416.00l-288.00,0.00 l0.00,32.00 l 288.00,0.00 L 832.00,416.00 z M 832.00,480.00l-288.00,0.00 l0.00,32.00 l 288.00,0.00 L 832.00,480.00 z" data-tags="profile, card, id, vcard" />
<glyph unicode="&#xf03e;" d="M 365.714,662.857q0.00-45.714 -32.00-77.714t-77.714-32.00t-77.714,32.00t-32.00,77.714t 32.00,77.714t 77.714,32.00t 77.714-32.00t 32.00-77.714zM 950.857,443.429l0.00-256.00 l-804.571,0.00 l0.00,109.714 l 182.857,182.857l 91.429-91.429l 292.571,292.571zM 1005.714,845.714l-914.286,0.00 q-7.429,0.00 -12.857-5.429t-5.429-12.857l0.00-694.857 q0.00-7.429 5.429-12.857t 12.857-5.429l 914.286,0.00 q 7.429,0.00 12.857,5.429t 5.429,12.857l0.00,694.857  q0.00,7.429 -5.429,12.857t-12.857,5.429zM 1097.143,827.429l0.00-694.857 q0.00-37.714 -26.857-64.571t-64.571-26.857l-914.286,0.00 q-37.714,0.00 -64.571,26.857t-26.857,64.571l0.00,694.857 q0.00,37.714 26.857,64.571t 64.571,26.857l 914.286,0.00 q 37.714,0.00 64.571-26.857t 26.857-64.571z" horiz-adv-x="1097.142857142857" data-tags="picture, image, photo" />
<glyph unicode="&#xe15a;" d="M 768.00-33.312L 192.00-33.312 c-35.36,0.00-64.00,28.576-64.00,63.872L 128.00,801.664 c0.00,35.264, 28.64,63.84, 64.00,63.84l 160.00,0.00 l0.00-66.528 
	L 224.00,798.976 c-17.664,0.00-32.00-14.272-32.00-31.936l0.00-704.544 c0.00-17.696, 14.336-31.936, 32.00-31.936l 512.00,0.00 c 17.696,0.00, 32.00,14.24, 32.00,31.936L 768.00,767.04 c0.00,17.664-14.304,31.936-32.00,31.936l-128.00,0.00 
	L 608.00,865.504 l 160.00,0.00 c 35.328,0.00, 64.00-28.608, 64.00-63.84l0.00-771.104 C 832.00-4.736, 803.328-33.312, 768.00-33.312z M 352.00,607.392l 352.00,0.00 l0.00-31.936 L 352.00,575.456 L 352.00,607.392 z M 352.00,511.584l 352.00,0.00 l0.00-31.936 
	L 352.00,479.648 L 352.00,511.584 z M 352.00,415.744l 352.00,0.00 l0.00-31.936 L 352.00,383.808 L 352.00,415.744 z M 352.00,319.936l 352.00,0.00 L 704.00,288.00 L 352.00,288.00 L 352.00,319.936 z M 704.00,96.448L 352.00,96.448 L 352.00,128.32 l 352.00,0.00 L 704.00,96.448 z M 352.00,224.128l 352.00,0.00 l0.00-31.936 L 352.00,192.192 
	L 352.00,224.128 z M 256.00,608.032l 32.00,0.00 l0.00-31.936 L 256.00,576.096 L 256.00,608.032 z M 256.00,512.224l 32.00,0.00 l0.00-31.936 L 256.00,480.288 L 256.00,512.224 z M 256.00,416.448l 32.00,0.00 l0.00-31.936 L 256.00,384.512 L 256.00,416.448 z M 256.00,320.64l 32.00,0.00 l0.00-31.936 L 256.00,288.704 L 256.00,320.64 z
	 M 288.00,97.056L 256.00,97.056 l0.00,31.936 l 32.00,0.00 L 288.00,97.056 z M 256.00,224.80l 32.00,0.00 l0.00-31.936 L 256.00,192.864 L 256.00,224.80 z M 672.00,765.088c 17.696,0.00, 32.00-14.304, 32.00-31.968c0.00-17.632,0.00-61.856,0.00-61.856L 256.00,671.264 
	c0.00,0.00,0.00,44.224,0.00,61.856c0.00,17.664, 14.304,31.968, 32.00,31.968l 96.00,0.00 c0.00,0.00, 0.384,45.408, 0.384,97.312c0.00,53.888, 41.60,98.944, 95.616,98.944
	s 97.056-47.36, 97.056-99.264C 577.056,806.176, 576.00,765.088, 576.00,765.088L 672.00,765.088 z M 480.00,865.504c-17.696,0.00-32.00-14.272-32.00-31.904c0.00-17.664, 14.304-31.936, 32.00-31.936
	s 32.00,14.272, 32.00,31.936C 512.00,851.232, 497.696,865.504, 480.00,865.504z" data-tags="clipboard, list, board" />
<glyph unicode="&#xe15b;" d="M 252.896,767.264c0.00-17.60,0.00-63.776,0.00-63.776l 448.448,0.00 c0.00,0.00,0.00,46.176,0.00,63.776
		c0.00,17.632-14.24,31.904-31.872,31.904l-95.68,0.00 c0.00,0.00, 1.088,36.416, 1.088,92.224c0.00,51.808-44.928,99.136-98.752,99.136s-95.296-44.992-95.296-98.848
		c0.00-51.808-0.384-92.512-0.384-92.512L 284.80,799.168 C 267.168,799.168, 252.896,784.896, 252.896,767.264z M 476.128,894.816c 17.60,0.00, 31.904-14.272, 31.904-31.872
		c0.00-17.632-14.304-31.904-31.904-31.904s-31.904,14.272-31.904,31.904C 444.224,880.544, 458.528,894.816, 476.128,894.816zM 765.152,799.168l0.00-316.832 c0.00,0.00, 27.52,30.368, 63.744,44.928L 828.896,831.04 
		c0.00,35.232-30.56,63.776-65.76,63.776l-157.472,0.00 L 605.664,831.04 l 127.552,0.00 C 750.848,831.04, 765.152,816.768, 765.152,799.168zM 410.336,31.808L 220.992,31.808 c-17.60,0.00-31.872,14.24-31.872,31.872L 189.12,799.168 
		c0.00,17.60, 14.272,31.872, 31.872,31.872l 129.568,0.00 L 350.56,894.816 L 189.12,894.816 c-35.232,0.00-63.776-28.576-63.776-63.776l0.00-799.232 C 125.344-3.424, 153.888-32.00, 189.12-32.00l 290.592,0.00 
		C 467.232-10.944, 444.928,13.376, 410.336,31.808zM 765.152,63.68c0.00-17.632-14.304-31.872-31.904-31.872l-87.328,0.00 
		c-16.064-21.504-31.20-42.88-45.12-63.808l 162.368,0.00 c 35.20,0.00, 65.76,28.576, 65.76,63.808l0.00,196.128 c-21.12-17.376-42.496-36.992-63.744-58.56L 765.184,63.68 zM 898.656,322.368c-35.936,79.872-15.36,144.736-10.24,219.616
		c-210.528-104.80-344.032-419.296-344.032-419.296l-82.144,154.752l-169.44-99.808c 71.904-24.928, 174.592-104.80, 261.888-209.632
		C 616.256,77.824, 806.24,302.368, 898.656,322.368z" data-tags="clipboard" />
<glyph unicode="&#xf056;" d="M 694.857,443.429l0.00,73.143 q0.00,14.857 -10.857,25.714t-25.714,10.857l-438.857,0.00 q-14.857,0.00 -25.714-10.857t-10.857-25.714l0.00-73.143 q0.00-14.857 10.857-25.714t 25.714-10.857l 438.857,0.00 q 14.857,0.00 25.714,10.857t 10.857,25.714zM 877.714,480.00q0.00-119.429 -58.857-220.286t-159.714-159.714t-220.286-58.857t-220.286,58.857t-159.714,159.714t-58.857,220.286t 58.857,220.286t 159.714,159.714t 220.286,58.857t 220.286-58.857t 159.714-159.714 t 58.857-220.286z" horiz-adv-x="877.7142857142857" data-tags="minus-sign, remove, delete, subtract, sign" />
<glyph unicode="&#xf068;" d="M 804.571,571.429l0.00-109.714 q0.00-22.857 -16.00-38.857t-38.857-16.00l-694.857,0.00 q-22.857,0.00 -38.857,16.00t-16.00,38.857l0.00,109.714 q0.00,22.857 16.00,38.857t 38.857,16.00l 694.857,0.00 q 22.857,0.00 38.857-16.00t 16.00-38.857z" horiz-adv-x="804.5714285714286" data-tags="minus, remove, delete, subtract" />
<glyph unicode="&#xe049;" d="M 512.00-32.00c-282.752,0.00-512.00,229.248-512.00,512.00c0.00,282.752, 229.248,512.00, 512.00,512.00c 282.752,0.00, 512.00-229.248, 512.00-512.00
	C 1024.00,197.248, 794.752-32.00, 512.00-32.00z M 768.00,544.00L 576.00,544.00 L 576.00,736.00 L 448.00,736.00 l0.00-192.00 L 256.00,544.00 l0.00-128.00 l 192.00,0.00 l0.00-192.00 l 128.00,0.00 L 576.00,416.00 l 192.00,0.00 L 768.00,544.00 z" data-tags="plus, add" />
<glyph unicode="&#xe044;" d="M 217.805-19.814c 15.667,51.251, 39.424,123.443, 71.219,227.891c 138.547,22.374, 195.891-17.869, 283.904,142.541
	c-71.424-22.323-157.542,41.421-152.883,69.018c 4.608,27.648, 200.346-19.917, 328.448,165.786c-161.485-36.301-213.197,43.674-192.358,55.757
	c 48.077,27.904, 190.822,11.571, 266.906,87.194c 39.219,38.912, 57.549,133.581, 41.626,167.373c-19.20,40.755-136.038,101.581-200.448,95.898
	c-64.41-5.734-165.427-250.317-195.379-248.371S 432.896,852.787, 485.171,952.832c-55.142-24.883-156.16-102.349-187.853-168.55
	c-59.034-123.187, 5.53-405.658-15.155-415.744c-20.736-10.035-90.419,129.69-111.206,193.024c-28.416-97.075-29.082-194.355, 53.965-323.584
	c-31.334-84.787-48.435-182.374-51.046-231.987C 172.646-33.741, 210.893-42.24, 217.805-19.814z" data-tags="feather, write, blog, quill, edit" />
<glyph unicode="&#xe04a;" d="M 957.133,857.088C 939.571,850.893, 70.298,544.614, 53.197,538.573c-14.541-5.12-17.818-17.664-0.512-24.525
	c 20.531-8.243, 194.355-77.875, 194.355-77.875L 246.989,436.173 l 115.251-46.182c0.00,0.00, 554.854,407.501, 562.381,412.979c 7.526,5.53, 16.282-4.864, 10.803-10.803
	c-5.478-5.99-402.995-435.917-402.995-435.917c-0.051,0.00-0.051,0.00-0.051,0.00l-23.142-25.805l 30.669-16.486l0.00,0.00c0.00,0.00, 238.08-128.154, 255.027-137.318
	c 14.848-7.987, 34.202-1.331, 38.502,17.152c 5.069,21.811, 145.664,627.814, 148.787,641.229C 986.317,852.582, 974.746,863.283, 957.133,857.088z M 361.216,113.306
	c0.00-12.646, 7.117-16.128, 16.947-7.219c 12.80,11.674, 145.869,131.072, 145.869,131.072l-162.816,84.275L 361.216,113.306 z" data-tags="paperplane, travel, plane, airplane" />
<glyph unicode="&#xe04b;" d="M 135.373,666.522c 89.446,76.80, 160.154,137.574, 351.846,29.184c 92.109-52.07, 166.40-71.629, 228.25-71.629c 108.288,0.00, 178.432,60.262, 239.104,112.333
	c 21.658,18.586, 24.474,51.61, 6.246,73.677s-50.483,24.934-72.141,6.349c-89.446-76.851-160.102-137.574-351.898-29.184
	C 283.443,930.355, 164.762,828.416, 69.427,746.496C 47.821,727.91, 45.005,694.938, 63.181,672.87S 113.715,647.885, 135.373,666.522z M 888.627,554.957
	c-89.446-76.80-160.102-137.574-351.898-29.184C 283.443,668.877, 164.762,566.938, 69.427,485.069c-21.658-18.586-24.474-51.61-6.246-73.677
	s 50.483-24.934, 72.141-6.349c 89.446,76.851, 160.154,137.574, 351.846,29.235c 92.109-52.07, 166.40-71.68, 228.25-71.68c 108.288,0.00, 178.432,60.262, 239.104,112.384
	c 21.658,18.586, 24.474,51.558, 6.246,73.626C 942.592,570.726, 910.285,573.542, 888.627,554.957z M 888.627,293.478c-89.446-76.80-160.102-137.574-351.898-29.184
	c-253.286,143.104-372.019,41.216-467.302-40.704c-21.658-18.586-24.474-51.61-6.246-73.677s 50.483-24.934, 72.141-6.349
	C 224.819,220.416, 295.475,281.088, 487.219,172.80c 92.109-52.07, 166.40-71.68, 228.25-71.68c 108.288,0.00, 178.432,60.262, 239.104,112.384
	c 21.658,18.534, 24.474,51.558, 6.246,73.626S 910.285,312.115, 888.627,293.478z" data-tags="air, waves" />
<glyph unicode="&#xe04c;" d="M 574.822,899.84c-227.635,0.00-412.723-182.374-418.253-409.344L 30.72,490.496 l 188.365-209.971l 188.314,209.971L 261.171,490.496 C 266.701,659.507, 404.941,794.88, 574.822,794.88
	c 173.363,0.00, 313.856-140.954, 313.856-314.88s-140.493-314.88-313.856-314.88c-69.53,0.00-133.734,22.733-185.754,61.082l-71.987-77.005
	C 388.147,93.44, 477.594,60.16, 574.822,60.16c 231.117,0.00, 418.509,187.955, 418.509,419.84C 993.28,711.885, 805.888,899.84, 574.822,899.84z M 537.60,705.28l0.00-240.128 l 153.856-153.856
	l 50.688,50.688L 609.28,494.848L 609.28,705.28 L 537.60,705.28 z" data-tags="history, time" />
<glyph unicode="&#xe14d;" d="M 512.00,896.512C 281.568,896.512, 95.52,710.432, 95.52,480.00c0.00-230.368, 186.048-416.512, 416.48-416.512
			c 230.40,0.00, 416.512,186.112, 416.512,416.512C 928.512,710.432, 742.368,896.512, 512.00,896.512z M 510.528,729.952c 29.792,0.00, 53.984-24.16, 53.984-54.016
			c0.00-29.824-24.192-54.016-53.984-54.016c-29.856,0.00-54.016,24.192-54.016,54.016C 456.48,705.792, 480.672,729.952, 510.528,729.952z M 517.824,91.488
			c-113.312,0.00-200.32,84.608-200.32,194.08c0.00,105.76, 80.064,194.144, 187.424,194.048c0.00,0.00, 201.536,9.92, 201.536,194.656c0.00,111.04-67.20,178.144-194.72,194.656
			c 229.536-12.736, 388.736-171.936, 388.736-388.704C 900.512,268.704, 726.432,91.488, 517.824,91.488z M 512.48,341.952
			c-29.824,0.00-54.016-24.16-54.016-54.016c0.00-29.824, 24.192-54.016, 54.016-54.016c 29.824,0.00, 54.016,24.192, 54.016,54.016
			C 566.496,317.792, 542.304,341.952, 512.48,341.952z" data-tags="ying yang" />
<glyph unicode="&#xe04d;" d="M 480.00,928.00C 214.904,928.00,0.00,713.096,0.00,448.00c0.00-265.098, 214.904-480.00, 480.00-480.00c 265.098,0.00, 480.00,214.902, 480.00,480.00
		C 960.00,713.096, 745.098,928.00, 480.00,928.00z M 480.00,64.00c-212.078,0.00-384.00,171.922-384.00,384.00c0.00,212.078, 171.922,384.00, 384.00,384.00
		c 212.078,0.00, 384.00-171.922, 384.00-384.00C 864.00,235.922, 692.078,64.00, 480.00,64.00zM 512.00,480.00l0.00,128.00 l 128.00,0.00 l0.00,64.00 l-128.00,0.00 l0.00,64.00 l-64.00,0.00 l0.00-64.00 l-128.00,0.00 l0.00-256.00 l 128.00,0.00 l0.00-128.00 l-128.00,0.00 l0.00-64.00 l 128.00,0.00 l0.00-64.00 l 64.00,0.00 l0.00,64.00 l 128.00,0.00 l 0.002,0.00 L 640.00,480.00L 512.00,480.00 z M 448.00,480.00l-64.00,0.00 l0.00,128.00 l 64.00,0.00 L 448.00,480.00 z
	 M 576.002,288.00L 512.00,288.00 l0.00,128.00 l 64.002,0.00 L 576.002,288.00 z" data-tags="coin, money, cash" />
<glyph unicode="&#xe069;" d="M 294.176,350.816c-40.00,0.00-45.312,18.688-45.312,18.688l-156.00-306.56l 125.088,14.016
			l 69.184-104.00c0.00,0.00, 144.00,300.576, 144.00,298.56C 356.576,273.312, 386.176,348.80, 294.176,350.816z M 645.824,317.92c 19.424,32.64, 48.128,49.184, 86.112,49.696
			c 37.952,0.512, 57.184,19.744, 57.696,57.728c 0.512,37.952, 17.056,66.656, 49.696,86.048c 32.64,19.392, 39.68,45.696, 21.12,78.816s-18.56,66.272,0.00,99.392
			s 11.488,59.392-21.12,78.816s-49.184,48.096-49.696,86.08c-0.512,37.952-19.744,57.184-57.696,57.696c-38.016,0.512-66.688,17.056-86.112,49.696
			c-19.36,32.64-45.696,39.68-78.816,21.12s-66.24-18.56-99.36,0.00s-59.392,11.488-78.816-21.12c-19.424-32.64-48.096-49.184-86.08-49.696
			C 264.80,911.648, 245.568,892.416, 245.056,854.464c-0.512-37.984-17.056-66.656-49.696-86.08s-39.68-45.696-21.12-78.816c 18.56-33.12, 18.56-66.272,0.00-99.392
			c-18.56-33.12-11.488-59.392, 21.12-78.816c 32.64-19.424, 49.184-48.128, 49.696-86.048c 0.512-37.984, 19.744-57.216, 57.696-57.728
			c 37.984-0.512, 66.656-17.056, 86.08-49.696c 19.392-32.64, 45.696-39.648, 78.816-21.12s 66.24,18.528, 99.36,0.00S 626.432,285.28, 645.824,317.92z
			 M 560.576,479.872l-56.992,0.00 L 503.584,695.104 c-20.832-19.488-45.44-33.888-73.76-43.232L 429.824,703.616 c 14.88,4.864, 31.072,14.08, 48.544,27.68
			s 29.44,29.44, 35.936,47.552l 46.272,0.00 L 560.576,479.872 z M 773.12,357.504c-113.984-12.00-90.816-40.192-116.80-62.176c-30.016-32.00-67.424-25.824-67.424-25.824
			l 176.00-302.56l 43.20,112.00l 123.072-16.00L 773.12,357.504z" data-tags="medal, first, win" />
<glyph unicode="&#xe0fe;" d="M 618.624,382.688c0.00,0.00-53.248-68.00-121.28,0.00c-65.984,64.00-113.984,0.00-113.984,0.00l-158.944-313.28
			c-4.608-17.056, 5.536-34.592, 22.592-39.168l 527.904,0.00 c 17.056,4.576, 27.20,22.08, 22.624,39.168L 618.624,382.688z M 862.048,85.44l-255.328,429.696
			l0.00,0.80 l-0.448,251.808l 17.632,0.00 c 26.432,0.00, 47.936,21.472, 47.936,47.968c0.00,26.464-21.504,47.936-47.936,47.936l-255.84,0.00 
			c-26.464,0.00-47.936-21.472-47.936-47.936c0.00-26.496, 21.472-47.968, 47.936-47.968l 15.424,0.00 l-0.512-251.872L 161.92,85.44
			C 148.224,34.272, 178.592-18.304, 229.728-32.00L 794.24-32.00 C 845.44-18.304, 875.808,34.272, 862.048,85.44z M 785.696,0.064L 238.24,0.672
			c-34.08,9.152-54.304,44.224-45.184,78.272l 222.304,435.712l 0.672,285.056l-47.936,0.00 c-8.80,0.00-15.968,7.168-15.968,16.00
			c0.00,8.80, 7.168,15.968, 15.968,15.968l 255.84,0.00 c 8.80,0.00, 15.936-7.168, 15.936-15.968c0.00-8.832-7.136-16.00-15.936-16.00L 576.00,799.712 l 0.80-284.00
			l 254.048-437.312C 840.00,44.256, 819.744,9.184, 785.696,0.064z M 527.36,911.616c0.00-17.664, 14.336-32.00, 32.00-32.00s 32.00,14.336, 32.00,32.00s-14.304,32.00-32.00,32.00
			S 527.36,929.312, 527.36,911.616z M 559.36,991.616c 26.496,0.00, 48.00,21.472, 48.00,48.00s-21.504,48.00-48.00,48.00s-48.00-21.472-48.00-48.00
			S 532.864,991.616, 559.36,991.616z M 431.36,911.616c 17.696,0.00, 32.00,14.336, 32.00,32.00s-14.304,32.00-32.00,32.00s-32.00-14.336-32.00-32.00S 413.664,911.616, 431.36,911.616z" data-tags="lab, beta, experiments" />
<glyph unicode="&#xe05c;" d="M 429.696,734.40c 54.88,0.00, 68.608-27.424, 105.152-22.848
			c 36.576,4.576, 4.576,68.576-27.424,114.272s-105.12,22.848-160.00-9.152c-54.848-32.00-346.272-209.152-346.272-209.152L 256.00,607.52 
			C 256.00,607.552, 374.848,734.40, 429.696,734.40z M0.00,574.432l0.00-416.00 c0.00-35.328, 28.64-64.00, 64.00-64.00c0.00,0.00, 246.72,0.00, 514.656,0.00c 48.064,0.00, 92.00,149.344, 141.344,149.344
			c 42.848,0.00, 75.072-149.344, 117.312-149.344c 284.576,0.00, 538.656,0.00, 538.656,0.00c 35.36,0.00, 64.032,28.672, 64.032,64.00l0.00,416.00 L0.00,574.432 z M 576.00,286.40c0.00-52.992-43.008-96.00-96.00-96.00L 192.00,190.40 
			c-53.024,0.00-96.00,43.008-96.00,96.00l0.00,96.00 c0.00,53.024, 42.976,96.00, 96.00,96.00l 288.00,0.00 c 52.992,0.00, 96.00-42.976, 96.00-96.00L 576.00,286.40 z M 1344.00,286.40c0.00-52.992-43.008-96.00-96.00-96.00l-288.00,0.00 
			c-53.024,0.00-96.00,43.008-96.00,96.00l0.00,96.00 c0.00,53.024, 42.976,96.00, 96.00,96.00l 288.00,0.00 c 52.992,0.00, 96.00-42.976, 96.00-96.00L 1344.00,286.40 z M 905.12,711.552c 36.576-4.576, 50.272,22.848, 105.152,22.848
			c 54.848,0.00, 173.728-126.848, 173.728-126.848l 254.848,0.00 c0.00,0.00-291.424,177.152-346.272,209.152c-54.88,32.00-128.00,54.848-160.00,9.152S 868.576,716.128, 905.12,711.552z" horiz-adv-x="1440" data-tags="3d glasses, glasses" />
<glyph unicode="&#xe04f;" d="M 768.00,128.00l-96.00,0.00 c-17.696,0.00-32.00,14.304-32.00,32.00l0.00,64.00 c0.00,17.696, 14.304,32.00, 32.00,32.00l 64.00,0.00 l0.00,192.00 l-224.00,0.00 l0.00-192.00 l 32.00,0.00 
	c 17.664,0.00, 32.00-14.304, 32.00-32.00l0.00-64.00 c0.00-17.696-14.336-32.00-32.00-32.00l-96.00,0.00 c-17.696,0.00-32.00,14.304-32.00,32.00l0.00,64.00 c0.00,17.696, 14.304,32.00, 32.00,32.00l 32.00,0.00 l0.00,192.00 L 256.00,448.00 l0.00-192.00 l 64.00,0.00 c 17.664,0.00, 32.00-14.304, 32.00-32.00l0.00-64.00 
	c0.00-17.696-14.336-32.00-32.00-32.00L 224.00,128.00 c-17.696,0.00-32.00,14.304-32.00,32.00l0.00,64.00 c0.00,17.696, 14.304,32.00, 32.00,32.00l0.00,192.00 l0.00,32.00 l 32.00,0.00 l 224.00,0.00 L 480.00,704.00 l-32.00,0.00 c-17.696,0.00-32.00,14.336-32.00,32.00L 416.00,800.00 c0.00,17.664, 14.304,32.00, 32.00,32.00l 96.00,0.00 
	c 17.664,0.00, 32.00-14.336, 32.00-32.00l0.00-64.00 c0.00-17.664-14.336-32.00-32.00-32.00l-32.00,0.00 l0.00-224.00 l 224.00,0.00 l 32.00,0.00 l0.00-32.00 l0.00-192.00 c 17.664,0.00, 32.00-14.304, 32.00-32.00l0.00-64.00 C 800.00,142.304, 785.664,128.00, 768.00,128.00z" data-tags="site map, tree, map" />
<glyph unicode="&#xe050;" d="M 851.328,45.216l-83.968,23.04l-0.192,232.256l 80.32-22.592l 115.808,432.288L 376.672,867.392
	l-38.656-144.192L 271.84,723.20 l 59.616,222.464l 710.176-190.272L 851.328,45.216z M 737.248-32.00L0.00-32.00 L0.00,703.264 l 737.248,0.00 L 737.248-32.00 z M 673.312,639.328L 63.936,639.328 l0.00-447.52 l 609.376,0.00 
	L 673.312,639.328 z M 251.168,320.224l 73.056,118.144l 73.056-73.632l 100.448,151.264l 105.056-260.288L 136.992,255.712 l 59.36,118.72L 251.168,320.224z M 207.488,445.248
	c-26.496,0.00-47.968,21.44-47.968,47.936s 21.472,47.936, 47.968,47.936s 47.936-21.44, 47.936-47.936S 233.984,445.248, 207.488,445.248z" horiz-adv-x="1040" data-tags="pictures, images, photos, polaroid" />
<glyph unicode="&#xe0bb;" d="M 680.576,286.752l 22.688,22.688c 25.056,25.056, 25.056,65.696,0.00,90.752l-39.168,39.136
			c 12.608,21.952, 22.496,45.568, 29.376,70.496l 42.368,0.00 c 35.424,0.00, 64.16,28.736, 64.16,64.16l0.00,32.064 c0.00,35.424-28.704,64.16-64.16,64.16l-41.856,0.00 
			C 687.328,694.88, 677.888,718.368, 665.60,740.16l 37.664,37.632c 25.056,25.056, 25.056,65.696,0.00,90.752l-22.688,22.656
			c-25.056,25.056-65.696,25.056-90.752,0.00l-36.896-36.896c-22.56,13.152-46.944,23.392-72.704,30.432L 480.224,927.84 C 480.192,963.296, 451.456,992.00, 416.032,992.00
			l-32.064,0.00 c-35.424,0.00-64.192-28.704-64.192-64.16l0.00-43.104 c-25.76-7.04-50.112-17.28-72.704-30.432L 210.144,891.232
			c-25.024,25.056-65.664,25.056-90.72,0.00L 96.736,868.576c-25.056-25.056-25.056-65.696,0.00-90.752L 134.368,740.16c-12.256-21.792-21.76-45.28-28.384-69.984
			L 64.16,670.176 C 28.704,670.208,0.00,641.472,0.00,606.016l0.00-32.064 c0.00-35.424, 28.704-64.16, 64.16-64.16l 42.336,0.00 c 6.912-24.928, 16.768-48.544, 29.408-70.496
			l-39.168-39.136c-25.056-25.056-25.056-65.696,0.00-90.752l 22.688-22.688c 25.056-25.056, 65.696-25.056, 90.72,0.00l 39.392,39.392
			c 21.888-12.448, 45.408-22.144, 70.208-28.896l0.00-41.088 c0.00-35.392, 28.736-64.16, 64.192-64.16l 32.064,0.00 c 35.424,0.00, 64.16,28.736, 64.16,64.16l0.00,41.088 
			c 24.80,6.752, 48.384,16.48, 70.208,28.896l 39.392-39.392C 614.88,261.696, 655.488,261.696, 680.576,286.752z M 400.00,412.576
			c-97.44,0.00-176.448,78.976-176.448,176.448c0.00,97.44, 79.008,176.448, 176.448,176.448s 176.448-79.008, 176.448-176.448
			C 576.448,491.552, 497.44,412.576, 400.00,412.576z M 400.00,671.20c-44.32,0.00-80.224-35.904-80.224-80.192s 35.904-80.192, 80.224-80.192
			c 44.288,0.00, 80.192,35.904, 80.192,80.192S 444.288,671.20, 400.00,671.20z M 801.984,68.416c-21.504,0.00-38.912-17.408-38.912-38.912
			c0.00-21.472, 17.408-38.88, 38.912-38.88c 21.472,0.00, 38.912,17.408, 38.912,38.88C 840.896,51.008, 823.456,68.416, 801.984,68.416z M 964.864,67.936
			l-20.288,0.00 c-3.232,11.968-7.84,23.36-13.792,33.952l 18.24,18.24c 12.16,12.16, 12.16,31.872,0.00,44.00l-11.008,11.008c-12.16,12.16-31.84,12.16-44.00,0.00
			l-17.92-17.888c-10.944,6.368-22.784,11.328-35.264,14.752l0.00,20.864 c0.00,17.184-13.952,31.136-31.136,31.136l-15.552,0.00 
			c-17.184,0.00-31.136-13.952-31.136-31.136l0.00-20.864 c-12.512-3.424-24.32-8.384-35.264-14.752l-17.92,17.888c-12.16,12.16-31.872,12.16-44.00,0.00
			l-11.008-11.008c-12.16-12.128-12.16-31.84,0.00-44.00l 18.24-18.24c-5.984-10.56-10.56-21.984-13.792-33.952l-20.288,0.00 
			c-17.184,0.00-31.136-13.952-31.136-31.136l0.00-15.552 c0.00-17.184, 13.952-31.136, 31.136-31.136l 20.544,0.00 c 3.328-12.064, 8.128-23.52, 14.24-34.176
			l-18.976-18.976c-12.16-12.16-12.16-31.84,0.00-44.032l 11.008-11.008c 12.128-12.128, 31.84-12.128, 44.00,0.00l 19.104,19.136
			c 10.624-6.016, 22.016-10.752, 34.048-14.016l0.00-19.936 c0.00-17.184, 13.952-31.136, 31.136-31.136l 15.552,0.00 c 17.184,0.00, 31.136,13.952, 31.136,31.136l0.00,19.936 
			c 12.032,3.264, 23.424,7.968, 34.016,14.016l 19.136-19.136c 12.16-12.128, 31.84-12.128, 44.00,0.00l 11.008,11.008c 12.16,12.192, 12.16,31.872,0.00,44.032
			l-18.976,18.976c 6.08,10.656, 10.912,22.112, 14.24,34.176l 20.544,0.00 c 17.184,0.00, 31.136,13.952, 31.136,31.136L 995.872,36.80 
			C 996.00,54.016, 982.048,67.936, 964.864,67.936z M 801.984-57.024c-47.264,0.00-85.568,38.304-85.568,85.60c0.00,47.264, 38.304,85.568, 85.568,85.568
			s 85.568-38.304, 85.568-85.568C 887.552-18.72, 849.248-57.024, 801.984-57.024z" data-tags="cogs, settings, gears, options, generate" />
<glyph unicode="&#xe07b;" d="M 958.816,192.576l0.00,190.304 l-93.12,0.00 l0.00-191.008 l-97.184,0.00 l0.00-94.496 l-225.536,0.00 l0.00,95.20 l 225.536,0.00 L 768.512,287.68 L 288.80,287.68 
	l0.00-95.136 l 192.96-0.672l0.00-95.136 L 288.128,96.736 l0.00,94.432 L 190.976,191.168 l0.00,192.32 L 97.824,383.488 l0.00-190.304 L0.00,193.184 l0.00,288.128 l 95.84,0.00 l0.00,92.512 l 95.136,0.00 l0.00,97.824 l 96.48,0.00 l 1.344,0.00 L 288.80,767.456 l 95.808,0.00 l0.00-96.096 
	l 287.456-0.768L 672.064,767.456 l 95.808,0.00 l0.00-97.152 l 97.824,0.00 l0.00-95.168 l 94.496,0.00 L 960.192,480.00 l 96.448,0.00 l0.00-287.424 L 958.816,192.576 z M 384.608,575.84L 288.80,575.84 L 288.80,480.00 l 95.808,0.00 L 384.608,575.84 z M 767.872,575.84
	l-95.808,0.00 L 672.064,480.00 l 95.808,0.00 L 767.872,575.84 z M 190.976,863.264l 97.824,0.00 l0.00-95.808 L 190.976,767.456 L 190.976,863.264 z M 865.696,863.264l0.00-95.808 l-97.824,0.00 L 767.872,863.264 L 865.696,863.264 z" horiz-adv-x="1056" data-tags="space invaders" />
<glyph unicode="&#xe0b5;" d="M 494.464,895.808L 66.88,711.584l 428.00-182.784L 927.296,712.00L 494.464,895.808z M 512.00,505.792
			l0.00-441.60 l 415.84,197.408L 927.84,682.432 L 512.00,505.792z M 64.16,261.60l 417.248-197.408l0.00,441.60 L 64.16,682.432L 64.16,261.60 z" data-tags="cube, 3d, box" />
<glyph unicode="&#xe08a;" d="M 179.232,396.128c-62.464-62.496-62.464-163.808,0.00-226.304L 201.888,147.20
			c 62.464-62.432, 163.776-62.432, 226.272,0.00l 180.992,181.056l-248.896,248.896L 179.232,396.128z M 405.504,169.824c-49.984-49.984-131.04-49.984-180.992,0.00
			l-22.624,22.624c-49.984,49.984-49.984,131.072,0.00,181.056l 158.368,158.368l 203.648-203.616L 405.504,169.824z M 812.80,758.144l-22.624,22.624
			c-62.464,62.496-163.776,62.496-226.272,0.00l-181.024-180.992l 248.896-248.896l 181.024,180.992C 875.296,594.368, 875.296,695.68, 812.80,758.144z" data-tags="pil, drug, medicine" />
<glyph unicode="&#xe08b;" d="M 773.12,697.376c 12.096-12.064, 12.096-31.648,0.00-43.744
	c-12.096-12.064-21.92-21.888-21.92-21.888l 21.92-21.888c 24.16-24.16, 24.16-63.328,0.00-87.52L 444.96,194.24c-24.192-24.192-63.36-24.192-87.52,0.00
	l-21.888,21.888l-87.488-87.552l 43.744-43.744c 12.096-12.064, 12.096-31.616,0.00-43.744c-12.096-12.064-31.68-12.064-43.744,0.00l-175.04,175.072
	c-12.064,12.064-12.064,31.616,0.00,43.744c 12.096,12.064, 31.68,12.064, 43.744,0.00l 43.744-43.744l 87.52,87.488l-21.888,21.888
	c-24.192,24.128-24.192,63.328,0.00,87.488L 554.336,741.152c 24.192,24.192, 63.328,24.192, 87.488,0.00l 21.888-21.888c0.00,0.00, 9.824,9.824, 21.888,21.888
	c 12.096,12.096, 31.68,12.096, 43.744,0.00l 10.944-10.944l 175.04,175.04l0.00-43.744 l-153.152-153.152L 773.12,697.376z M 619.968,719.264
	c-12.064,12.096-31.648,12.096-43.744,0.00l-65.632-65.632l 43.744-43.744l-21.888-21.888l-43.744,43.744l-65.632-65.632l 43.744-43.776l-21.888-21.888
	l-43.776,43.776l-21.888-21.888l 87.52-87.488l-21.888-21.888l-87.52,87.488L 291.808,434.88l 87.488-87.488l-21.888-21.888l-87.488,87.488l-21.888-21.888
	c-12.096-12.064-12.096-31.68,0.00-43.744l 131.264-131.264c 12.096-12.128, 31.68-12.128, 43.776,0.00l 328.128,328.128c 12.128,12.064, 12.128,31.648,0.00,43.744
	L 619.968,719.264z M 532.48,675.52l 21.888,21.888l 87.488-87.488l-21.888-21.888L 532.48,675.52z M 532.48,500.512l-87.488,87.52l 21.888,21.888l 87.488-87.52
	L 532.48,500.512z M 313.696,456.736l 21.888,21.888l 43.744-43.744l-21.888-21.888L 313.696,456.736z M 958.144,691.648c0.00-23.20-18.816-41.984-41.984-41.984
	c-23.232,0.00-42.016,18.816-42.016,41.984c0.00,23.232, 42.016,86.656, 42.016,86.656S 958.144,714.848, 958.144,691.648z" data-tags="injection, medicine" />
<glyph unicode="&#xe0dc;" d="M 737.952,561.888c0.00,0.00, 37.504,28.512, 8.992,57.024c-28.576,28.512-56.32-8.288-56.32-8.288
	l-223.008-223.04c0.00,0.00-67.296-86.752-118.272-34.24s 34.24,118.272, 34.24,118.272l 312.288,312.32c0.00,0.00, 87.808,96.736, 170.304,14.24
	c 82.496-82.528-14.496-170.528-14.496-170.528L 428.864,204.80c0.00,0.00-135.296-156.288-260.576-31.008s 32.512,259.04, 32.512,259.04L 521.888,753.92
	c0.00,0.00, 36.00,30.016, 8.992,57.024s-56.992-8.992-56.992-8.992L 105.568,433.60c0.00,0.00-139.04-152.544, 16.256-307.776
	c 155.296-155.296, 307.808-16.288, 307.808-16.288l 506.304,506.336c0.00,0.00, 101.248,111.776-19.488,232.576s-232.576,19.488-232.576,19.488L 312.352,496.384
	c0.00,0.00-111.68-90.688-10.40-191.936c 101.28-101.28, 190.432,11.904, 190.432,11.904L 737.952,561.888z" data-tags="attachment, paperclip" />
<glyph unicode="&#xe0fb;" d="M 223.584,832.00L 192.00,832.00 l0.00-736.00 l 640.00,0.00 l0.00,30.816 l-607.872,1.60L 223.584,832.00z M 448.00,550.016l-160.00,160.00L 288.00,192.00 l 160.00,0.00 L 448.00,550.016 z
			 M 480.00,572.00L 480.00,192.00 l 160.00,0.00 L 640.00,604.00 l-64.00,64.00L 480.00,572.00z M 672.00,480.00l0.00-288.00 l 160.00,0.00 l0.00,288.00 L 672.00,480.00 z M 579.808,756.128l 167.744-168.288l-46.944-44.48l 131.296-1.408l-0.608,126.752
			l-56.672-55.008l-194.752,197.60l-119.84-121.184L 321.888,828.16L 293.824,799.008l 163.936-165.376L 579.808,756.128z" data-tags="stats, statistics, decrease, down" />
<glyph unicode="&#xe0fc;" d="M 191.936,832.00L 160.352,832.00 l0.00-736.00 l 640.00,0.00 l0.00,30.816 L 192.48,128.384L 191.936,832.00z M 256.352,192.00l 160.00,0.00 L 416.352,540.00 l-160.00-160.00L 256.352,192.00 z
			 M 448.352,192.00l 160.00,0.00 l0.00,316.00 l-64.00-64.00l-96.00,96.00L 448.352,192.00 z M 640.352,192.00l 160.00,0.00 L 800.352,677.984 l-160.00-160.00L 640.352,192.00 z M 428.384,637.856l 115.84-115.20l 228.736,227.584l 58.688-59.008L 830.24,832.00
			L 688.96,831.264l 54.944-55.104l-199.744-200.32l-118.048,118.496l-179.936-179.328l 30.048-29.184L 428.384,637.856z" data-tags="stats, statistics, grow, increase, up" />
<glyph unicode="&#xe0fd;" d="M 883.968,321.44l-30.656-162.304L 170.688,159.136 l-30.656,162.304L 63.712,321.44 l0.00-257.984 l 896.576,0.00 l0.00,257.984 L 883.968,321.44 z M 864.64,609.728l-224.704,0.00 l0.00,93.76 l-255.808,0.00 l0.00-93.76 
	L 161.568,609.728 l 349.248-365.184L 864.64,609.728z M 639.904,864.576l-255.808,0.00 l0.00-34.112 l 255.808,0.00 L 639.904,864.576 z M 639.904,800.864l-255.808,0.00 l0.00-65.216 l 255.808,0.00 L 639.904,800.864 z" data-tags="download, store, save" />
<glyph unicode="&#xe11c;" d="M0.00,96.00L0.00,832.00 l 992.00,0.00 l0.00-736.00 L0.00,96.00 z M 192.00,416.00L 160.00,416.00 L 160.00,800.00 L 32.00,800.00 l0.00-672.00 l 160.00,0.00 L 192.00,416.00 z M 384.00,416.00l-32.00,0.00 L 352.00,800.00 L 256.00,800.00 l0.00-384.00 L 224.00,416.00 l0.00-288.00 l 160.00,0.00 L 384.00,416.00 z M 576.00,416.00l-32.00,0.00 L 544.00,800.00 l-96.00,0.00 
	l0.00-384.00 l-32.00,0.00 l0.00-288.00 l 160.00,0.00 L 576.00,416.00 z M 640.00,800.00l0.00-384.00 l-32.00,0.00 l0.00-288.00 l 160.00,0.00 l0.00,288.00 l-32.00,0.00 L 736.00,800.00 L 640.00,800.00 z M 960.00,800.00l-128.00,0.00 l0.00-384.00 l-32.00,0.00 l0.00-288.00 l 160.00,0.00 L 960.00,800.00 z" data-tags="piano, music" />
<glyph unicode="&#xe14b;" d="M 496.00,928.00C 239.744,928.00, 32.00,720.256, 32.00,464.00S 239.744,0.00, 496.00,0.00S 960.00,207.744, 960.00,464.00
			S 752.256,928.00, 496.00,928.00z M 344.064,868.672c-22.848-41.248-49.888-105.44-67.616-196.192L 116.992,672.48 C 166.624,762.048, 246.976,832.256, 344.064,868.672z
			 M 100.928,640.416l 170.112,0.00 c-7.488-46.976-12.512-100.096-13.28-160.384l-193.92,0.00 C 65.984,537.024, 78.816,591.20, 100.928,640.416z M 63.616,447.968l 194.304,0.00 
			c 0.736-60.576, 6.016-113.312, 13.504-160.384l-169.28,0.00 C 79.936,336.96, 65.728,390.752, 63.616,447.968z M 117.44,255.52l 159.264,0.00 
			c 17.888-91.648, 45.312-155.744, 68.288-196.544C 247.52,95.264, 167.168,165.728, 117.44,255.52z M 481.984,31.712
			c-33.664,1.056-66.144,6.368-97.44,14.72c-24.16,39.552-55.552,107.616-75.392,209.088l 172.832,0.00 L 481.984,31.712 z M 481.984,287.584L 303.488,287.584 
			c-7.488,47.008-12.672,99.808-13.472,160.384l 191.936,0.00 L 481.952,287.584 z M 481.984,480.032L 289.856,480.032 c 0.80,60.352, 5.856,113.376, 13.344,160.384l 178.784,0.00 L 481.984,480.032 z
			 M 481.984,672.48L 308.48,672.48 c 19.68,100.736, 50.912,168.512, 75.008,208.80c 31.584,8.512, 64.48,13.92, 98.496,15.04L 481.984,672.48 z M 928.096,480.032L 738.24,480.032 
			c-0.80,60.288-5.824,113.408-13.312,160.384l 165.504,0.00 C 912.608,591.104, 925.888,537.056, 928.096,480.032z M 874.304,672.48l-154.784,0.00 
			c-17.568,89.792-44.224,153.60-66.912,194.88C 747.552,830.432, 825.472,760.64, 874.304,672.48z M 514.016,896.352c 34.144-1.504, 67.264-6.912, 98.944-15.776
			c 24.032-40.416, 55.04-107.904, 74.592-208.096l-173.536,0.00 L 514.016,896.352 z M 514.016,640.416l 178.784,0.00 c 7.488-47.008, 12.544-100.032, 13.344-160.384l-192.128,0.00 L 514.016,640.416 z
			 M 514.016,447.968l 191.936,0.00 c-0.736-60.576-5.984-113.376-13.472-160.384l-178.464,0.00 L 514.016,447.968 z M 514.016,32.288l0.00,223.264 l 172.864,0.00 
			c-19.744-100.864-50.912-168.672-74.976-208.384C 580.608,38.464, 547.744,33.792, 514.016,32.288z M 651.744,60.352
			c 22.848,40.832, 49.92,104.512, 67.584,195.20l 154.72,0.00 C 825.344,167.04, 747.104,97.152, 651.744,60.352z M 889.44,287.584l-164.864,0.00 
			c 7.488,47.072, 12.736,99.808, 13.536,160.384l 189.664,0.00 C 925.632,390.784, 911.52,336.992, 889.44,287.584z" data-tags="globe, network, sphere" />
<glyph unicode="&#xe148;" d="M 789.984,478.816c 73.376-79.136, 106.24-156.992, 77.728-206.912
	c-28.448-49.792-111.392-60.064-215.616-35.648c-31.20-104.288-81.728-172.384-138.912-172.384c-57.248,0.00-107.744,68.32-138.88,172.896
	c-105.376-25.12-189.312-15.04-217.984,35.136c-28.512,49.92, 4.384,127.872, 77.76,207.104c-74.784,79.872-108.448,158.72-79.68,209.024
	c 28.80,50.432, 113.536,60.384, 219.648,34.784c 31.168,104.80, 81.856,173.312, 139.168,173.312c 57.28,0.00, 107.808-68.288, 138.944-172.832
	c 105.12,24.96, 188.928,14.848, 217.568-35.264C 898.40,637.696, 864.704,558.784, 789.984,478.816z M 184.064,670.688
	c-22.016-38.528, 8.352-101.696, 72.64-168.48c 26.208,25.568, 56.384,50.944, 89.984,75.328c 4.096,40.512, 10.336,78.944, 18.88,113.92
	C 275.744,714.528, 206.176,709.376, 184.064,670.688z M 343.072,532.448c-23.04-17.536-44.064-35.328-62.912-53.088c 19.104-17.856, 39.712-35.776, 63.04-53.44
	c-0.96,17.76-1.632,35.712-1.632,54.08C 341.568,497.792, 342.144,515.264, 343.072,532.448z M 346.656,380.992
	c-33.632,24.288-63.712,49.60-90.016,75.072c-63.136-66.176-92.448-128.608-70.624-166.816c 21.984-38.432, 90.816-43.776, 179.84-21.184
	C 357.312,302.848, 350.72,340.672, 346.656,380.992z M 642.848,357.28c-14.272-9.376-28.864-18.592-44.064-27.456
	c-15.424-8.992-30.848-17.248-46.208-25.12c 26.336-11.20, 52.096-20.96, 76.544-28.448C 634.848,301.344, 639.296,328.704, 642.848,357.28z
	 M 513.152,98.56c 43.808,0.00, 82.688,57.12, 107.84,145.824c-34.72,9.984-71.392,23.872-108.768,40.768c-36.704-16.672-72.608-30.08-106.784-40.096
	C 430.528,156.128, 469.344,98.56, 513.152,98.56z M 397.536,277.056c 23.744,7.392, 48.576,16.576, 74.112,27.456
	c-15.424,7.904-30.944,16.256-46.432,25.28c-14.368,8.416-28.192,17.056-41.728,25.92C 386.976,327.648, 391.936,301.76, 397.536,277.056z
	 M 383.552,603.008c 14.112,9.248, 28.576,18.336, 43.584,27.136c 14.816,8.672, 29.632,16.64, 44.416,24.256c-25.632,10.944-50.72,20.608-74.592,28.064
	C 391.392,657.824, 387.072,630.976, 383.552,603.008z M 513.152,861.44c-43.936,0.00-83.008-57.664-108.128-147.008c 34.144-10.048, 70.112-23.84, 106.752-40.544
	c 37.504,17.184, 74.176,30.912, 109.088,41.088C 595.776,803.84, 556.992,861.44, 513.152,861.44z M 628.832,683.04c-24.576-7.648-50.24-17.12-76.736-28.512
	c 14.88-7.648, 29.824-15.68, 44.736-24.416c 16.064-9.376, 31.424-19.136, 46.432-29.056C 639.744,630.336, 634.656,657.376, 628.832,683.04z M 647.68,556.672
	c-21.44,14.912-44.096,29.472-68.032,43.392c-22.912,13.376-45.632,25.056-68.096,35.968c-22.176-10.816-44.672-22.816-67.232-35.968
	c-22.816-13.28-44.608-27.168-65.12-41.312c-1.984-25.504-3.328-51.616-3.328-78.784c0.00-27.456, 1.12-54.176, 3.104-79.968
	c 20.064-13.792, 41.248-27.264, 63.392-40.192c 23.552-13.728, 46.912-25.728, 70.016-36.864c 22.816,11.072, 45.984,23.328, 69.184,36.864
	c 23.008,13.408, 44.864,27.36, 65.568,41.664c 1.952,25.408, 3.328,51.424, 3.328,78.496C 650.464,506.272, 649.504,531.904, 647.68,556.672z
	 M 837.984,289.248c 21.824,38.144-7.744,100.48-70.752,166.496c-25.632-24.768-54.976-49.344-87.552-72.992c-4.096-41.024-10.432-79.968-19.136-115.328
	C 748.416,245.504, 816.224,251.168, 837.984,289.248z M 683.296,427.84c 22.048,16.832, 42.272,33.92, 60.512,50.912
	c-18.304,17.28-38.048,34.656-60.384,51.776c 0.80-16.608, 1.376-33.408, 1.376-50.528C 684.768,462.272, 684.192,444.928, 683.296,427.84z
	 M 839.904,670.688c-21.952,38.368-90.56,43.808-179.36,21.312c 8.736-35.776, 15.488-74.848, 19.52-116.512c 32.608-23.84, 61.76-48.64, 87.296-73.568
	C 831.776,568.832, 861.984,632.096, 839.904,670.688z M 518.40,414.016c-37.664,0.00-68.192,30.816-68.192,68.864c0.00,38.016, 30.528,68.864, 68.192,68.864
	c 37.632,0.00, 68.16-30.848, 68.16-68.864C 586.56,444.80, 556.032,414.016, 518.40,414.016z" data-tags="atom, nuclear" />
<glyph unicode="&#xe051;" d="M 320.00,928.00 L 64.00,928.00 L 64.00,672.00 L 320.00,672.00 L 320.00,928.00 Z M 384.00,992.00 L 384.00,992.00 L 384.00,608.00 L 0.00,608.00 L 0.00,992.00 L 384.00,992.00 ZM 128.00,864.00L 256.00,864.00L 256.00,736.00L 128.00,736.00zM 960.00,928.00 L 704.00,928.00 L 704.00,672.00 L 960.00,672.00 L 960.00,928.00 Z M 1024.00,992.00 L 1024.00,992.00 L 1024.00,608.00 L 640.00,608.00 L 640.00,992.00 L 1024.00,992.00 ZM 768.00,864.00L 896.00,864.00L 896.00,736.00L 768.00,736.00zM 320.00,288.00 L 64.00,288.00 L 64.00,32.00 L 320.00,32.00 L 320.00,288.00 Z M 384.00,352.00 L 384.00,352.00 L 384.00-32.00 L 0.00-32.00 L 0.00,352.00 L 384.00,352.00 ZM 128.00,224.00L 256.00,224.00L 256.00,96.00L 128.00,96.00zM 448.00,992.00L 512.00,992.00L 512.00,928.00L 448.00,928.00zM 512.00,928.00L 576.00,928.00L 576.00,864.00L 512.00,864.00zM 448.00,864.00L 512.00,864.00L 512.00,800.00L 448.00,800.00zM 512.00,800.00L 576.00,800.00L 576.00,736.00L 512.00,736.00zM 448.00,736.00L 512.00,736.00L 512.00,672.00L 448.00,672.00zM 512.00,672.00L 576.00,672.00L 576.00,608.00L 512.00,608.00zM 448.00,608.00L 512.00,608.00L 512.00,544.00L 448.00,544.00zM 448.00,480.00L 512.00,480.00L 512.00,416.00L 448.00,416.00zM 512.00,416.00L 576.00,416.00L 576.00,352.00L 512.00,352.00zM 448.00,352.00L 512.00,352.00L 512.00,288.00L 448.00,288.00zM 512.00,288.00L 576.00,288.00L 576.00,224.00L 512.00,224.00zM 448.00,224.00L 512.00,224.00L 512.00,160.00L 448.00,160.00zM 512.00,160.00L 576.00,160.00L 576.00,96.00L 512.00,96.00zM 448.00,96.00L 512.00,96.00L 512.00,32.00L 448.00,32.00zM 512.00,32.00L 576.00,32.00L 576.00-32.00L 512.00-32.00zM 960.00,480.00L 1024.00,480.00L 1024.00,416.00L 960.00,416.00zM 64.00,480.00L 128.00,480.00L 128.00,416.00L 64.00,416.00zM 128.00,544.00L 192.00,544.00L 192.00,480.00L 128.00,480.00zM0.00,544.00L 64.00,544.00L 64.00,480.00L0.00,480.00zM 256.00,544.00L 320.00,544.00L 320.00,480.00L 256.00,480.00zM 320.00,480.00L 384.00,480.00L 384.00,416.00L 320.00,416.00zM 384.00,544.00L 448.00,544.00L 448.00,480.00L 384.00,480.00zM 576.00,480.00L 640.00,480.00L 640.00,416.00L 576.00,416.00zM 640.00,544.00L 704.00,544.00L 704.00,480.00L 640.00,480.00zM 704.00,480.00L 768.00,480.00L 768.00,416.00L 704.00,416.00zM 768.00,544.00L 832.00,544.00L 832.00,480.00L 768.00,480.00zM 832.00,480.00L 896.00,480.00L 896.00,416.00L 832.00,416.00zM 896.00,544.00L 960.00,544.00L 960.00,480.00L 896.00,480.00zM 960.00,352.00L 1024.00,352.00L 1024.00,288.00L 960.00,288.00zM 576.00,352.00L 640.00,352.00L 640.00,288.00L 576.00,288.00zM 640.00,416.00L 704.00,416.00L 704.00,352.00L 640.00,352.00zM 704.00,352.00L 768.00,352.00L 768.00,288.00L 704.00,288.00zM 832.00,352.00L 896.00,352.00L 896.00,288.00L 832.00,288.00zM 896.00,416.00L 960.00,416.00L 960.00,352.00L 896.00,352.00zM 960.00,224.00L 1024.00,224.00L 1024.00,160.00L 960.00,160.00zM 576.00,224.00L 640.00,224.00L 640.00,160.00L 576.00,160.00zM 640.00,288.00L 704.00,288.00L 704.00,224.00L 640.00,224.00zM 768.00,288.00L 832.00,288.00L 832.00,224.00L 768.00,224.00zM 832.00,224.00L 896.00,224.00L 896.00,160.00L 832.00,160.00zM 896.00,288.00L 960.00,288.00L 960.00,224.00L 896.00,224.00zM 960.00,96.00L 1024.00,96.00L 1024.00,32.00L 960.00,32.00zM 640.00,160.00L 704.00,160.00L 704.00,96.00L 640.00,96.00zM 704.00,96.00L 768.00,96.00L 768.00,32.00L 704.00,32.00zM 768.00,160.00L 832.00,160.00L 832.00,96.00L 768.00,96.00zM 832.00,96.00L 896.00,96.00L 896.00,32.00L 832.00,32.00zM 640.00,32.00L 704.00,32.00L 704.00-32.00L 640.00-32.00zM 768.00,32.00L 832.00,32.00L 832.00-32.00L 768.00-32.00zM 896.00,32.00L 960.00,32.00L 960.00-32.00L 896.00-32.00z" data-tags="qrcode, price" />
<glyph unicode="&#xe052;" d="M0.00,864.00L 128.00,864.00L 128.00,224.00L0.00,224.00zM 192.00,864.00L 256.00,864.00L 256.00,224.00L 192.00,224.00zM 320.00,864.00L 384.00,864.00L 384.00,224.00L 320.00,224.00zM 512.00,864.00L 576.00,864.00L 576.00,224.00L 512.00,224.00zM 768.00,864.00L 832.00,864.00L 832.00,224.00L 768.00,224.00zM 960.00,864.00L 1024.00,864.00L 1024.00,224.00L 960.00,224.00zM 640.00,864.00L 672.00,864.00L 672.00,224.00L 640.00,224.00zM 448.00,864.00L 480.00,864.00L 480.00,224.00L 448.00,224.00zM 864.00,864.00L 896.00,864.00L 896.00,224.00L 864.00,224.00zM0.00,160.00L 64.00,160.00L 64.00,96.00L0.00,96.00zM 192.00,160.00L 256.00,160.00L 256.00,96.00L 192.00,96.00zM 320.00,160.00L 384.00,160.00L 384.00,96.00L 320.00,96.00zM 640.00,160.00L 704.00,160.00L 704.00,96.00L 640.00,96.00zM 960.00,160.00L 1024.00,160.00L 1024.00,96.00L 960.00,96.00zM 768.00,160.00L 896.00,160.00L 896.00,96.00L 768.00,96.00zM 448.00,160.00L 576.00,160.00L 576.00,96.00L 448.00,96.00z" data-tags="barcode, price" />
<glyph unicode="&#xe053;" d="M 896.00,544.00l 16.00,0.00 c 26.40,0.00 48.00,21.60 48.00,48.00l0.00,160.00 c0.00,26.40-21.60,48.00-48.00,48.00l-16.00,0.00 L 896.00,992.00 l-128.00,0.00 l 0.00-192.00 l-16.00,0.00 c-26.40,0.00, -48.00-21.60, -48.00-48.00l 0.00-160.00 c 0.00-26.40, 21.60-48.00, 48.00-48.00l 16.00,0.00 
		l 0.00-576.00 L 896.00-32.00 L 896.00,544.00 z M 768.00,736.00L 896.00,736.00 l 0.00-128.00 l-128.00,0.00 L 768.00,736.00 zM 592.00,160.00c 26.40,0.00 48.00,21.60 48.00,48.00l0.00,160.00 c0.00,26.40-21.60,48.00-48.00,48.00l-16.00,0.00 L 576.00,992.00 l-128.00,0.00 l 0.00-576.00 l-16.00,0.00 c-26.40,0.00, -48.00-21.60, -48.00-48.00l 0.00-160.00 c 0.00-26.40, 21.60-48.00, 48.00-48.00l 16.00,0.00 
		l 0.00-192.00 l 128.00,0.00 l0.00,192.00 L 592.00,160.00 z M 448.00,352.00l 128.00,0.00 l 0.00-128.00 l-128.00,0.00 L 448.00,352.00 zM 272.00,544.00c 26.40,0.00 48.00,21.60 48.00,48.00l0.00,160.00 c0.00,26.40-21.60,48.00-48.00,48.00l-16.00,0.00 L 256.00,992.00 l-128.00,0.00 l 0.00-192.00 l-16.00,0.00 c-26.40,0.00, -48.00-21.60, -48.00-48.00l 0.00-160.00 c 0.00-26.40, 21.60-48.00, 48.00-48.00l 16.00,0.00 
		l 0.00-576.00 l 128.00,0.00 L 256.00,544.00 L 272.00,544.00 z M 128.00,736.00l 128.00,0.00 l 0.00-128.00 l-128.00,0.00 L 128.00,736.00 z" data-tags="equalizer, control, options, settings, dashboard" />
<glyph unicode="&#xe054;" d="M 512.00,992.00 C 233.252,992.00 6.542,769.238 0.152,492.026 C 6.072,733.89 189.984,928.00 416.00,928.00 C 645.75,928.00 832.00,727.424 832.00,480.00 C 832.00,426.98 874.98,384.00 928.00,384.00 C 981.02,384.00 1024.00,426.98 1024.00,480.00 C 1024.00,762.77 794.77,992.00 512.00,992.00 ZM 512.00-32.00 C 790.748-32.00 1017.458,190.762 1023.848,467.974 C 1017.928,226.11 834.016,32.00 608.00,32.00 C 378.25,32.00 192.00,232.576 192.00,480.00 C 192.00,533.02 149.02,576.00 96.00,576.00 C 42.98,576.00 0.00,533.02 0.00,480.00 C 0.00,197.23 229.23-32.00 512.00-32.00 Z" data-tags="spinner, loading, busy, wait, wheel" />
<glyph unicode="&#xe055;" d="M 192.00,480.00c0.00,12.18, 0.704,24.196, 2.03,36.022l-184.98,60.104C 3.134,544.986,0.00,512.862,0.00,480.00
			c0.00-147.23, 62.166-279.922, 161.654-373.324l 114.284,157.296C 223.814,320.898, 192.00,396.73, 192.00,480.00zM 832.00,480.00c0.00-83.268-31.812-159.102-83.938-216.028l 114.284-157.296C 961.834,200.078, 1024.00,332.77, 1024.00,480.00
			c0.00,32.862-3.132,64.986-9.048,96.126l-184.98-60.104C 831.296,504.194, 832.00,492.18, 832.00,480.00zM 576.00,793.592c 91.934-18.662, 169.544-76.742, 214.45-155.826l 184.978,60.102C 902.232,853.288, 753.188,965.928, 576.00,988.024L 576.00,793.592 zM 233.55,637.768c 44.906,79.084, 122.516,137.164, 214.45,155.826L 448.00,988.024 C 270.812,965.928, 121.77,853.288, 48.574,697.87
			L 233.55,637.768zM 644.556,188.672C 604.166,170.264, 559.284,160.00, 512.00,160.00s-92.166,10.264-132.554,28.67l-114.292-157.31
			C 338.36-9.006, 422.49-32.00, 512.00-32.00s 173.64,22.994, 246.848,63.36L 644.556,188.672z" data-tags="spinner, loading, busy, wait, wheel" />
<glyph unicode="&#xe056;" d="M 384.00,864.00A128.00,128.00 12780.00 1,0 640.00,864A128.00,128.00 12780.00 1,0 384.00,864zM 655.53,751.53A128.00,128.00 12780.00 1,0 911.53,751.53A128.00,128.00 12780.00 1,0 655.53,751.53zM 832.00,480.00A64.00,64.00 12780.00 1,0 960.00,480A64.00,64.00 12780.00 1,0 832.00,480zM 719.53,208.47A64.00,64.00 12780.00 1,0 847.53,208.47000000000003A64.00,64.00 12780.00 1,0 719.53,208.47000000000003zM 448.002,96.00A64.00,64.00 12780.00 1,0 576.002,96A64.00,64.00 12780.00 1,0 448.002,96zM 176.472,208.47A64.00,64.00 12780.00 1,0 304.472,208.47000000000003A64.00,64.00 12780.00 1,0 176.472,208.47000000000003zM 144.472,751.53A96.00,96.00 12780.00 1,0 336.472,751.53A96.00,96.00 12780.00 1,0 144.472,751.53zM 56.00,480.00A72.00,72.00 12780.00 1,0 200.00,480A72.00,72.00 12780.00 1,0 56.00,480z" data-tags="spinner, loading, busy, wait, wheel" />
<glyph unicode="&#xe058;" d="M 512.00,928.00 C 794.77,928.00 1024.00,698.77 1024.00,416.00 C 1024.00,223.208 917.424,55.334 759.992-32.00 L 264.008-32.00 C 106.576,55.334 0.00,223.208 0.00,416.00 C 0.00,698.77 229.23,928.00 512.00,928.00 Z M 801.914,126.086 C 879.352,203.526 922.00,306.484 922.00,416.00 L 832.00,416.00 L 832.00,480.00 L 917.038,480.00 C 910.024,524.998 895.648,568.146 874.474,608.00 L 768.00,608.00 L 768.00,672.00 L 832.284,672.00 C 822.846,683.762 812.732,695.096 801.914,705.914 C 755.692,752.134 700.374,785.952 640.00,805.712 L 640.00,736.00 L 576.00,736.00 L 576.00,821.04 C 555.018,824.308 533.64,826.00 512.00,826.00 C 490.36,826.00 468.982,824.31 448.00,821.04 L 448.00,736.00 L 384.00,736.00 L 384.00,805.712 C 323.628,785.952 268.308,752.136 222.086,705.914 C 211.268,695.096 201.154,683.762 191.716,672.00 L 256.00,672.00 L 256.00,608.00 L 149.524,608.00 C 128.35,568.146 113.972,524.998 106.96,480.00 L 192.00,480.00 L 192.00,416.00 L 102.00,416.00 C 102.00,306.484 144.648,203.526 222.086,126.086 C 232.796,115.376 244.01,105.358 255.646,96.00 L 448.00,96.00 L 484.572,608.00 L 539.428,608.00 L 576.00,96.00 L 768.354,96.00 C 779.99,105.358 791.206,115.378 801.914,126.086 Z" data-tags="meter" />
<glyph unicode="&#xe059;" d="M 704.00,928.00L 384.00,608.00L 192.00,608.00 L0.00,352.00c0.00,0.00, 203.416,56.652, 322.066,30.084L0.00-32.00l 421.902,328.144C 480.74,161.49, 384.00-32.00, 384.00-32.00l 256.00,192.00
	l0.00,192.00 l 320.00,320.00L 1024.00,992.00L 704.00,928.00z" data-tags="rocket, speed, jet, spaceship, fast" />
<glyph unicode="&#xe05a;" d="M 512.00-32.00c 282.77,0.00, 512.00,229.23, 512.00,512.00S 794.77,992.00, 512.00,992.00S0.00,762.77,0.00,480.00S 229.23-32.00, 512.00-32.00z M 512.00,896.00
		c 229.75,0.00, 416.00-186.25, 416.00-416.00s-186.25-416.00-416.00-416.00S 96.00,250.25, 96.00,480.00S 282.25,896.00, 512.00,896.00zM 512.00,393.24 C 627.95,393.24 738.23,424.046 832.00,478.16 C 817.426,299.722 678.872,160.00 512.00,160.00 C 345.132,160.00 206.578,299.872 192.00,478.304 C 285.77,424.192 396.05,393.24 512.00,393.24 ZM 256.00,640.00A64.00,96.00 2700.00 1,0 384.00,640A64.00,96.00 2700.00 1,0 256.00,640zM 640.00,640.00A64.00,96.00 2700.00 1,0 768.00,640A64.00,96.00 2700.00 1,0 640.00,640z" data-tags="happy, emoticon, smiley, face" />
<glyph unicode="&#xe05b;" d="M 512.00-32.00c 282.77,0.00, 512.00,229.23, 512.00,512.00S 794.77,992.00, 512.00,992.00S0.00,762.77,0.00,480.00S 229.23-32.00, 512.00-32.00z M 512.00,896.00
		c 229.75,0.00, 416.00-186.25, 416.00-416.00s-186.25-416.00-416.00-416.00S 96.00,250.25, 96.00,480.00S 282.25,896.00, 512.00,896.00zM 256.00,672.00 C 256.00,707.346 284.654,736.00 320.00,736.00 C 355.346,736.00 384.00,707.346 384.00,672.00 C 384.00,636.654 355.346,608.00 320.00,608.00 C 284.654,608.00 256.00,636.654 256.00,672.00 Z M 640.00,672.00 C 640.00,707.346 668.654,736.00 704.00,736.00 C 739.346,736.00 768.00,707.346 768.00,672.00 C 768.00,636.654 739.346,608.00 704.00,608.00 C 668.654,608.00 640.00,636.654 640.00,672.00 ZM 768.00,416.00 L 768.00,352.00 L 704.00,352.00 L 704.00,256.00 C 704.00,202.98 661.02,160.00 608.00,160.00 C 554.98,160.00 512.00,202.98 512.00,256.00 L 512.00,352.00 L 256.00,352.00 L 256.00,416.00 L 768.00,416.00 Z" data-tags="tongue, emoticon, smiley, face" />
</font>
</defs>
</svg>
